{
	"asset":{
		"generator":"Khronos glTF Blender I/O v4.4.56",
		"version":"2.0"
	},
	"scene":0,
	"scenes":[
		{
			"name":"Scene",
			"nodes":[
				0
			]
		}
	],
	"nodes":[
		{
			"mesh":0,
			"name":"Plane",
			"scale":[
				5,
				5,
				5
			]
		}
	],
	"materials":[
		{
			"doubleSided":true,
			"name":"Material.001",
			"pbrMetallicRoughness":{
				"baseColorTexture":{
					"index":0
				},
				"metallicFactor":0,
				"metallicRoughnessTexture":{
					"index":1
				}
			}
		}
	],
	"meshes":[
		{
			"name":"Plane",
			"primitives":[
				{
					"attributes":{
						"POSITION":0,
						"NORMAL":1,
						"TEXCOORD_0":2
					},
					"indices":3,
					"material":0
				}
			]
		}
	],
	"textures":[
		{
			"sampler":0,
			"source":0
		},
		{
			"sampler":1,
			"source":1
		}
	],
	"images":[
		{
			"mimeType":"image/jpeg",
			"name":"floor_tiles_06_diff_4k",
			"uri":"floor_tiles_06_diff_4k.jpg"
		},
		{
			"mimeType":"image/png",
			"name":"floor_tiles_06_rough_4k",
			"uri":"floor_tiles_06_rough_4k.png"
		}
	],
	"accessors":[
		{
			"bufferView":0,
			"componentType":5126,
			"count":446,
			"max":[
				10,
				2.0652947425842285,
				7.000000953674316
			],
			"min":[
				-6.999999523162842,
				-1,
				-7.800000190734863
			],
			"type":"VEC3"
		},
		{
			"bufferView":1,
			"componentType":5126,
			"count":446,
			"type":"VEC3"
		},
		{
			"bufferView":2,
			"componentType":5126,
			"count":446,
			"type":"VEC2"
		},
		{
			"bufferView":3,
			"componentType":5123,
			"count":1086,
			"type":"SCALAR"
		}
	],
	"bufferViews":[
		{
			"buffer":0,
			"byteLength":5352,
			"byteOffset":0,
			"target":34962
		},
		{
			"buffer":0,
			"byteLength":5352,
			"byteOffset":5352,
			"target":34962
		},
		{
			"buffer":0,
			"byteLength":3568,
			"byteOffset":10704,
			"target":34962
		},
		{
			"buffer":0,
			"byteLength":2172,
			"byteOffset":14272,
			"target":34963
		}
	],
	"samplers":[
		{
			"magFilter":9728,
			"minFilter":9984
		},
		{
			"magFilter":9729,
			"minFilter":9987
		}
	],
	"buffers":[
		{
			"byteLength":16444,
			"uri":"map.bin"
		}
	]
}
