{
	"asset":{
		"generator":"Khronos glTF Blender I/O v4.5.47",
		"version":"2.0"
	},
	"scene":0,
	"scenes":[
		{
			"name":"Scene",
			"nodes":[
				0
			]
		}
	],
	"nodes":[
		{
			"mesh":0,
			"name":"wild_rooibos_bush_a.001"
		}
	],
	"materials":[
		{
			"doubleSided":true,
			"name":"Material.002",
			"normalTexture":{
				"index":0
			},
			"pbrMetallicRoughness":{
				"baseColorTexture":{
					"index":1
				},
				"metallicFactor":0,
				"metallicRoughnessTexture":{
					"index":2
				}
			}
		}
	],
	"meshes":[
		{
			"name":"Plane.002",
			"primitives":[
				{
					"attributes":{
						"POSITION":0,
						"NORMAL":1,
						"TEXCOORD_0":2
					},
					"indices":3,
					"material":0
				}
			]
		}
	],
	"textures":[
		{
			"sampler":0,
			"source":0
		},
		{
			"sampler":0,
			"source":1
		},
		{
			"sampler":0,
			"source":2
		}
	],
	"images":[
		{
			"mimeType":"image/png",
			"name":"baked4",
			"uri":"baked4.png"
		},
		{
			"mimeType":"image/png",
			"name":"baked2",
			"uri":"baked2.png"
		},
		{
			"mimeType":"image/png",
			"name":"baked3",
			"uri":"baked3.png"
		}
	],
	"accessors":[
		{
			"bufferView":0,
			"componentType":5126,
			"count":20597,
			"max":[
				0.3463645279407501,
				0.5374173521995544,
				0.3064473271369934
			],
			"min":[
				-0.35020989179611206,
				-0.0020769955590367317,
				-0.5369825959205627
			],
			"type":"VEC3"
		},
		{
			"bufferView":1,
			"componentType":5126,
			"count":20597,
			"type":"VEC3"
		},
		{
			"bufferView":2,
			"componentType":5126,
			"count":20597,
			"type":"VEC2"
		},
		{
			"bufferView":3,
			"componentType":5123,
			"count":39453,
			"type":"SCALAR"
		}
	],
	"bufferViews":[
		{
			"buffer":0,
			"byteLength":247164,
			"byteOffset":0,
			"target":34962
		},
		{
			"buffer":0,
			"byteLength":247164,
			"byteOffset":247164,
			"target":34962
		},
		{
			"buffer":0,
			"byteLength":164776,
			"byteOffset":494328,
			"target":34962
		},
		{
			"buffer":0,
			"byteLength":78906,
			"byteOffset":659104,
			"target":34963
		}
	],
	"samplers":[
		{
			"magFilter":9729,
			"minFilter":9987
		}
	],
	"buffers":[
		{
			"byteLength":738012,
			"uri":"wild_rooibos_bush_8k.bin"
		}
	]
}
