{
	"asset":{
		"generator":"Khronos glTF Blender I/O v4.5.47",
		"version":"2.0"
	},
	"extensionsUsed":[
		"KHR_texture_transform",
		"KHR_materials_specular",
		"KHR_materials_sheen",
		"KHR_materials_anisotropy"
	],
	"extensionsRequired":[
		"KHR_texture_transform"
	],
	"scene":0,
	"scenes":[
		{
			"name":"Scene",
			"nodes":[
				0
			]
		}
	],
	"nodes":[
		{
			"mesh":0,
			"name":"Plane"
		}
	],
	"materials":[
		{
			"doubleSided":true,
			"extensions":{
				"KHR_materials_specular":{
					"specularTexture":{
						"extensions":{
							"KHR_texture_transform":{
								"scale":[
									0.96225506067276,
									1
								]
							}
						},
						"index":0
					}
				},
				"KHR_materials_sheen":{
					"sheenColorFactor":[
						1.0,
						0.31658321619033813,
						0.39531147480010986
					],
					"sheenRoughnessFactor":0.239130437374115
				},
				"KHR_materials_anisotropy":{
					"anisotropyStrength":1,
					"anisotropyTexture":{
						"extensions":{
							"KHR_texture_transform":{
								"scale":[
									0.96225506067276,
									1
								]
							}
						},
						"index":1
					}
				}
			},
			"name":"velour_velvet",
			"normalTexture":{
				"extensions":{
					"KHR_texture_transform":{
						"scale":[
							0.96225506067276,
							1
						]
					}
				},
				"index":2
			},
			"pbrMetallicRoughness":{
				"baseColorTexture":{
					"extensions":{
						"KHR_texture_transform":{
							"scale":[
								0.96225506067276,
								1
							]
						}
					},
					"index":3
				},
				"metallicRoughnessTexture":{
					"extensions":{
						"KHR_texture_transform":{
							"scale":[
								0.96225506067276,
								1
							]
						}
					},
					"index":4
				}
			}
		}
	],
	"meshes":[
		{
			"name":"Plane.001",
			"primitives":[
				{
					"attributes":{
						"POSITION":0,
						"NORMAL":1,
						"TEXCOORD_0":2
					},
					"indices":3,
					"material":0
				}
			]
		}
	],
	"textures":[
		{
			"sampler":0,
			"source":0
		},
		{
			"sampler":0,
			"source":1
		},
		{
			"sampler":0,
			"source":2
		},
		{
			"sampler":0,
			"source":3
		},
		{
			"sampler":0,
			"source":4
		}
	],
	"images":[
		{
			"mimeType":"image/png",
			"name":"velour_velvet_spec_ior",
			"uri":"velour_velvet_spec_ior.png"
		},
		{
			"mimeType":"image/png",
			"name":"Image",
			"uri":"Image.png"
		},
		{
			"mimeType":"image/png",
			"name":"velour_velvet_nor_gl",
			"uri":"velour_velvet_nor_gl.png"
		},
		{
			"mimeType":"image/jpeg",
			"name":"velour_velvet_diff",
			"uri":"velour_velvet_diff.jpg"
		},
		{
			"mimeType":"image/png",
			"name":"velour_velvet_metal-velour_velvet_rough",
			"uri":"velour_velvet_metal-velour_velvet_rough.png"
		}
	],
	"accessors":[
		{
			"bufferView":0,
			"componentType":5126,
			"count":4,
			"max":[
				1,
				0,
				1
			],
			"min":[
				-1,
				0,
				-1
			],
			"type":"VEC3"
		},
		{
			"bufferView":1,
			"componentType":5126,
			"count":4,
			"type":"VEC3"
		},
		{
			"bufferView":2,
			"componentType":5126,
			"count":4,
			"type":"VEC2"
		},
		{
			"bufferView":3,
			"componentType":5123,
			"count":6,
			"type":"SCALAR"
		}
	],
	"bufferViews":[
		{
			"buffer":0,
			"byteLength":48,
			"byteOffset":0,
			"target":34962
		},
		{
			"buffer":0,
			"byteLength":48,
			"byteOffset":48,
			"target":34962
		},
		{
			"buffer":0,
			"byteLength":32,
			"byteOffset":96,
			"target":34962
		},
		{
			"buffer":0,
			"byteLength":12,
			"byteOffset":128,
			"target":34963
		}
	],
	"samplers":[
		{
			"magFilter":9729,
			"minFilter":9987
		}
	],
	"buffers":[
		{
			"byteLength":140,
			"uri":"velour_velvet_4k.bin"
		}
	]
}
