{
	"asset":{
		"generator":"Khronos glTF Blender I/O v4.3.47",
		"version":"2.0"
	},
	"scene":0,
	"scenes":[
		{
			"name":"Scene",
			"nodes":[
				0
			]
		}
	],
	"nodes":[
		{
			"mesh":0,
			"name":"Plane.001"
		}
	],
	"materials":[
		{
			"doubleSided":true,
			"name":"Material.001",
			"pbrMetallicRoughness":{
				"baseColorTexture":{
					"index":0
				},
				"metallicFactor":0,
				"metallicRoughnessTexture":{
					"index":1
				}
			}
		},
		{
			"doubleSided":true,
			"name":"Material.002",
			"pbrMetallicRoughness":{
				"baseColorTexture":{
					"index":2
				},
				"metallicFactor":0,
				"roughnessFactor":0.5
			}
		}
	],
	"meshes":[
		{
			"name":"Plane.001",
			"primitives":[
				{
					"attributes":{
						"POSITION":0,
						"NORMAL":1,
						"TEXCOORD_0":2
					},
					"indices":3,
					"material":0
				},
				{
					"attributes":{
						"POSITION":4,
						"NORMAL":5,
						"TEXCOORD_0":6
					},
					"indices":7,
					"material":1
				}
			]
		}
	],
	"textures":[
		{
			"sampler":0,
			"source":0
		},
		{
			"sampler":0,
			"source":1
		},
		{
			"sampler":0,
			"source":2
		}
	],
	"images":[
		{
			"mimeType":"image/jpeg",
			"name":"bark",
			"uri":"textures/bark.jpg"
		},
		{
			"mimeType":"image/png",
			"name":"barkreflect",
			"uri":"textures/barkreflect.png"
		},
		{
			"mimeType":"image/jpeg",
			"name":"leavestx",
			"uri":"textures/leavestx.jpg"
		}
	],
	"accessors":[
		{
			"bufferView":0,
			"componentType":5126,
			"count":1253,
			"max":[
				3.000913143157959,
				28.570749282836914,
				0.13183832168579102
			],
			"min":[
				-3.00091290473938,
				9.948220252990723,
				-8.217967987060547
			],
			"type":"VEC3"
		},
		{
			"bufferView":1,
			"componentType":5126,
			"count":1253,
			"type":"VEC3"
		},
		{
			"bufferView":2,
			"componentType":5126,
			"count":1253,
			"type":"VEC2"
		},
		{
			"bufferView":3,
			"componentType":5123,
			"count":3855,
			"type":"SCALAR"
		},
		{
			"bufferView":4,
			"componentType":5126,
			"count":10574,
			"max":[
				9.968944549560547,
				17.976167678833008,
				9.953521728515625
			],
			"min":[
				-14.000940322875977,
				0.7344646453857422,
				-11.414831161499023
			],
			"type":"VEC3"
		},
		{
			"bufferView":5,
			"componentType":5126,
			"count":10574,
			"type":"VEC3"
		},
		{
			"bufferView":6,
			"componentType":5126,
			"count":10574,
			"type":"VEC2"
		},
		{
			"bufferView":7,
			"componentType":5123,
			"count":30720,
			"type":"SCALAR"
		}
	],
	"bufferViews":[
		{
			"buffer":0,
			"byteLength":15036,
			"byteOffset":0,
			"target":34962
		},
		{
			"buffer":0,
			"byteLength":15036,
			"byteOffset":15036,
			"target":34962
		},
		{
			"buffer":0,
			"byteLength":10024,
			"byteOffset":30072,
			"target":34962
		},
		{
			"buffer":0,
			"byteLength":7710,
			"byteOffset":40096,
			"target":34963
		},
		{
			"buffer":0,
			"byteLength":126888,
			"byteOffset":47808,
			"target":34962
		},
		{
			"buffer":0,
			"byteLength":126888,
			"byteOffset":174696,
			"target":34962
		},
		{
			"buffer":0,
			"byteLength":84592,
			"byteOffset":301584,
			"target":34962
		},
		{
			"buffer":0,
			"byteLength":61440,
			"byteOffset":386176,
			"target":34963
		}
	],
	"samplers":[
		{
			"magFilter":9729,
			"minFilter":9987
		}
	],
	"buffers":[
		{
			"byteLength":447616,
			"uri":"tree.bin"
		}
	]
}
