{
	"asset":{
		"generator":"Khronos glTF Blender I/O v4.3.47",
		"version":"2.0"
	},
	"scene":0,
	"scenes":[
		{
			"name":"Scene",
			"nodes":[
				0,
				1,
				2,
				3,
				4,
				5,
				6
			]
		}
	],
	"nodes":[
		{
			"mesh":0,
			"name":"Plane",
			"scale":[
				0.20000000298023224,
				0.20000000298023224,
				0.20000000298023224
			]
		},
		{
			"mesh":1,
			"name":"Plane.001",
			"scale":[
				0.20000000298023224,
				0.20000000298023224,
				0.20000000298023224
			]
		},
		{
			"mesh":2,
			"name":"Plane.002",
			"scale":[
				0.20000000298023224,
				0.20000000298023224,
				0.20000000298023224
			]
		},
		{
			"mesh":3,
			"name":"Plane.003",
			"scale":[
				0.20000000298023224,
				0.20000000298023224,
				0.20218399167060852
			]
		},
		{
			"mesh":4,
			"name":"Plane.004",
			"scale":[
				0.20000000298023224,
				0.20000000298023224,
				0.20000000298023224
			],
			"translation":[
				0,
				3.5443010330200195,
				0
			]
		},
		{
			"mesh":5,
			"name":"Plane.005",
			"scale":[
				0.20000000298023224,
				0.20000000298023224,
				0.20000000298023224
			],
			"translation":[
				0,
				3.5443010330200195,
				0
			]
		},
		{
			"mesh":6,
			"name":"Plane.006",
			"scale":[
				0.20000000298023224,
				0.20000000298023224,
				0.20000000298023224
			],
			"translation":[
				0,
				3.5443010330200195,
				0
			]
		}
	],
	"materials":[
		{
			"doubleSided":true,
			"name":"Material.001",
			"pbrMetallicRoughness":{
				"baseColorTexture":{
					"index":0
				},
				"metallicFactor":0,
				"metallicRoughnessTexture":{
					"index":1
				}
			}
		},
		{
			"doubleSided":true,
			"name":"Material.003",
			"pbrMetallicRoughness":{
				"baseColorTexture":{
					"index":2
				},
				"metallicFactor":0,
				"metallicRoughnessTexture":{
					"index":3
				}
			}
		},
		{
			"doubleSided":true,
			"name":"Material.002",
			"pbrMetallicRoughness":{
				"baseColorTexture":{
					"index":4
				},
				"metallicFactor":0,
				"metallicRoughnessTexture":{
					"index":5
				}
			}
		},
		{
			"doubleSided":true,
			"name":"Material.004",
			"pbrMetallicRoughness":{
				"baseColorTexture":{
					"index":6
				},
				"metallicFactor":0,
				"metallicRoughnessTexture":{
					"index":7
				}
			}
		},
		{
			"doubleSided":true,
			"name":"Material.005",
			"pbrMetallicRoughness":{
				"baseColorTexture":{
					"index":8
				},
				"metallicFactor":0,
				"metallicRoughnessTexture":{
					"index":9
				}
			}
		}
	],
	"meshes":[
		{
			"name":"Plane",
			"primitives":[
				{
					"attributes":{
						"POSITION":0,
						"NORMAL":1,
						"TEXCOORD_0":2
					},
					"indices":3,
					"material":0
				}
			]
		},
		{
			"name":"Plane.002",
			"primitives":[
				{
					"attributes":{
						"POSITION":4,
						"NORMAL":5,
						"TEXCOORD_0":6
					},
					"indices":7,
					"material":1
				}
			]
		},
		{
			"name":"Plane.003",
			"primitives":[
				{
					"attributes":{
						"POSITION":8,
						"NORMAL":9,
						"TEXCOORD_0":10
					},
					"indices":11,
					"material":2
				}
			]
		},
		{
			"name":"Plane.001",
			"primitives":[
				{
					"attributes":{
						"POSITION":12,
						"NORMAL":13,
						"TEXCOORD_0":14
					},
					"indices":15,
					"material":2
				}
			]
		},
		{
			"name":"Plane.004",
			"primitives":[
				{
					"attributes":{
						"POSITION":16,
						"NORMAL":17,
						"TEXCOORD_0":18
					},
					"indices":19,
					"material":3
				}
			]
		},
		{
			"name":"Plane.005",
			"primitives":[
				{
					"attributes":{
						"POSITION":20,
						"NORMAL":21,
						"TEXCOORD_0":22
					},
					"indices":23,
					"material":3
				}
			]
		},
		{
			"name":"Plane.006",
			"primitives":[
				{
					"attributes":{
						"POSITION":24,
						"NORMAL":25,
						"TEXCOORD_0":26
					},
					"indices":27,
					"material":4
				}
			]
		}
	],
	"textures":[
		{
			"sampler":0,
			"source":0
		},
		{
			"sampler":0,
			"source":1
		},
		{
			"sampler":0,
			"source":2
		},
		{
			"sampler":0,
			"source":3
		},
		{
			"sampler":0,
			"source":4
		},
		{
			"sampler":0,
			"source":5
		},
		{
			"sampler":0,
			"source":4
		},
		{
			"sampler":0,
			"source":5
		},
		{
			"sampler":0,
			"source":2
		},
		{
			"sampler":0,
			"source":3
		}
	],
	"images":[
		{
			"mimeType":"image/jpeg",
			"name":"tile_diffuse",
			"uri":"tile_diffuse.jpg"
		},
		{
			"mimeType":"image/png",
			"name":"tile_specular",
			"uri":"tile_specular.png"
		},
		{
			"mimeType":"image/jpeg",
			"name":"plank_diffuse",
			"uri":"plank_diffuse.jpg"
		},
		{
			"mimeType":"image/png",
			"name":"plank_specular",
			"uri":"plank_specular.png"
		},
		{
			"mimeType":"image/jpeg",
			"name":"brick_diffuse",
			"uri":"brick_diffuse.jpg"
		},
		{
			"mimeType":"image/png",
			"name":"brick_specular",
			"uri":"brick_specular.png"
		}
	],
	"accessors":[
		{
			"bufferView":0,
			"componentType":5126,
			"count":26,
			"max":[
				31.39270782470703,
				34.44633102416992,
				80
			],
			"min":[
				-60,
				0,
				-10
			],
			"type":"VEC3"
		},
		{
			"bufferView":1,
			"componentType":5126,
			"count":26,
			"type":"VEC3"
		},
		{
			"bufferView":2,
			"componentType":5126,
			"count":26,
			"type":"VEC2"
		},
		{
			"bufferView":3,
			"componentType":5123,
			"count":36,
			"type":"SCALAR"
		},
		{
			"bufferView":4,
			"componentType":5126,
			"count":48,
			"max":[
				30,
				17.105464935302734,
				80
			],
			"min":[
				-60,
				4.780623435974121,
				-10
			],
			"type":"VEC3"
		},
		{
			"bufferView":5,
			"componentType":5126,
			"count":48,
			"type":"VEC3"
		},
		{
			"bufferView":6,
			"componentType":5126,
			"count":48,
			"type":"VEC2"
		},
		{
			"bufferView":7,
			"componentType":5123,
			"count":114,
			"type":"SCALAR"
		},
		{
			"bufferView":8,
			"componentType":5126,
			"count":46,
			"max":[
				30,
				4.780623435974121,
				80.3212890625
			],
			"min":[
				-60.38313293457031,
				0,
				-10
			],
			"type":"VEC3"
		},
		{
			"bufferView":9,
			"componentType":5126,
			"count":46,
			"type":"VEC3"
		},
		{
			"bufferView":10,
			"componentType":5126,
			"count":46,
			"type":"VEC2"
		},
		{
			"bufferView":11,
			"componentType":5123,
			"count":78,
			"type":"SCALAR"
		},
		{
			"bufferView":12,
			"componentType":5126,
			"count":34,
			"max":[
				30,
				19.9262752532959,
				88.9197998046875
			],
			"min":[
				-65.5719985961914,
				16.33868980407715,
				-10
			],
			"type":"VEC3"
		},
		{
			"bufferView":13,
			"componentType":5126,
			"count":34,
			"type":"VEC3"
		},
		{
			"bufferView":14,
			"componentType":5126,
			"count":34,
			"type":"VEC2"
		},
		{
			"bufferView":15,
			"componentType":5123,
			"count":54,
			"type":"SCALAR"
		},
		{
			"bufferView":16,
			"componentType":5126,
			"count":32,
			"max":[
				40.011390686035156,
				26.869976043701172,
				88.9197998046875
			],
			"min":[
				-66.11377716064453,
				16.33868980407715,
				-45.04242706298828
			],
			"type":"VEC3"
		},
		{
			"bufferView":17,
			"componentType":5126,
			"count":32,
			"type":"VEC3"
		},
		{
			"bufferView":18,
			"componentType":5126,
			"count":32,
			"type":"VEC2"
		},
		{
			"bufferView":19,
			"componentType":5123,
			"count":48,
			"type":"SCALAR"
		},
		{
			"bufferView":20,
			"componentType":5126,
			"count":34,
			"max":[
				30,
				4.780623435974121,
				80.3212890625
			],
			"min":[
				-60.38313293457031,
				0,
				-10
			],
			"type":"VEC3"
		},
		{
			"bufferView":21,
			"componentType":5126,
			"count":34,
			"type":"VEC3"
		},
		{
			"bufferView":22,
			"componentType":5126,
			"count":34,
			"type":"VEC2"
		},
		{
			"bufferView":23,
			"componentType":5123,
			"count":60,
			"type":"SCALAR"
		},
		{
			"bufferView":24,
			"componentType":5126,
			"count":56,
			"max":[
				30,
				16.475595474243164,
				80
			],
			"min":[
				-60,
				4.780623435974121,
				-10
			],
			"type":"VEC3"
		},
		{
			"bufferView":25,
			"componentType":5126,
			"count":56,
			"type":"VEC3"
		},
		{
			"bufferView":26,
			"componentType":5126,
			"count":56,
			"type":"VEC2"
		},
		{
			"bufferView":27,
			"componentType":5123,
			"count":138,
			"type":"SCALAR"
		}
	],
	"bufferViews":[
		{
			"buffer":0,
			"byteLength":312,
			"byteOffset":0,
			"target":34962
		},
		{
			"buffer":0,
			"byteLength":312,
			"byteOffset":312,
			"target":34962
		},
		{
			"buffer":0,
			"byteLength":208,
			"byteOffset":624,
			"target":34962
		},
		{
			"buffer":0,
			"byteLength":72,
			"byteOffset":832,
			"target":34963
		},
		{
			"buffer":0,
			"byteLength":576,
			"byteOffset":904,
			"target":34962
		},
		{
			"buffer":0,
			"byteLength":576,
			"byteOffset":1480,
			"target":34962
		},
		{
			"buffer":0,
			"byteLength":384,
			"byteOffset":2056,
			"target":34962
		},
		{
			"buffer":0,
			"byteLength":228,
			"byteOffset":2440,
			"target":34963
		},
		{
			"buffer":0,
			"byteLength":552,
			"byteOffset":2668,
			"target":34962
		},
		{
			"buffer":0,
			"byteLength":552,
			"byteOffset":3220,
			"target":34962
		},
		{
			"buffer":0,
			"byteLength":368,
			"byteOffset":3772,
			"target":34962
		},
		{
			"buffer":0,
			"byteLength":156,
			"byteOffset":4140,
			"target":34963
		},
		{
			"buffer":0,
			"byteLength":408,
			"byteOffset":4296,
			"target":34962
		},
		{
			"buffer":0,
			"byteLength":408,
			"byteOffset":4704,
			"target":34962
		},
		{
			"buffer":0,
			"byteLength":272,
			"byteOffset":5112,
			"target":34962
		},
		{
			"buffer":0,
			"byteLength":108,
			"byteOffset":5384,
			"target":34963
		},
		{
			"buffer":0,
			"byteLength":384,
			"byteOffset":5492,
			"target":34962
		},
		{
			"buffer":0,
			"byteLength":384,
			"byteOffset":5876,
			"target":34962
		},
		{
			"buffer":0,
			"byteLength":256,
			"byteOffset":6260,
			"target":34962
		},
		{
			"buffer":0,
			"byteLength":96,
			"byteOffset":6516,
			"target":34963
		},
		{
			"buffer":0,
			"byteLength":408,
			"byteOffset":6612,
			"target":34962
		},
		{
			"buffer":0,
			"byteLength":408,
			"byteOffset":7020,
			"target":34962
		},
		{
			"buffer":0,
			"byteLength":272,
			"byteOffset":7428,
			"target":34962
		},
		{
			"buffer":0,
			"byteLength":120,
			"byteOffset":7700,
			"target":34963
		},
		{
			"buffer":0,
			"byteLength":672,
			"byteOffset":7820,
			"target":34962
		},
		{
			"buffer":0,
			"byteLength":672,
			"byteOffset":8492,
			"target":34962
		},
		{
			"buffer":0,
			"byteLength":448,
			"byteOffset":9164,
			"target":34962
		},
		{
			"buffer":0,
			"byteLength":276,
			"byteOffset":9612,
			"target":34963
		}
	],
	"samplers":[
		{
			"magFilter":9729,
			"minFilter":9987
		}
	],
	"buffers":[
		{
			"byteLength":9888,
			"uri":"combine.bin"
		}
	]
}
