{
	"asset":{
		"generator":"Khronos glTF Blender I/O v4.4.56",
		"version":"2.0"
	},
	"scene":0,
	"scenes":[
		{
			"name":"Scene",
			"nodes":[
				0
			]
		}
	],
	"nodes":[
		{
			"mesh":0,
			"name":"Circle"
		}
	],
	"materials":[
		{
			"doubleSided":true,
			"name":"Material.003",
			"normalTexture":{
				"index":0
			},
			"pbrMetallicRoughness":{
				"baseColorTexture":{
					"index":1
				},
				"metallicRoughnessTexture":{
					"index":2
				}
			}
		}
	],
	"meshes":[
		{
			"name":"Circle",
			"primitives":[
				{
					"attributes":{
						"POSITION":0,
						"NORMAL":1,
						"TEXCOORD_0":2,
						"TEXCOORD_1":3
					},
					"indices":4,
					"material":0
				}
			]
		}
	],
	"textures":[
		{
			"sampler":0,
			"source":0
		},
		{
			"sampler":0,
			"source":1
		},
		{
			"sampler":0,
			"source":2
		}
	],
	"images":[
		{
			"mimeType":"image/png",
			"name":"bakedbarnorm14",
			"uri":"bakedbarnorm14.png"
		},
		{
			"mimeType":"image/png",
			"name":"bakedbar14",
			"uri":"bakedbar14.png"
		},
		{
			"mimeType":"image/png",
			"name":"bakedbarspec14",
			"uri":"bakedbarspec14.png"
		}
	],
	"accessors":[
		{
			"bufferView":0,
			"componentType":5126,
			"count":722,
			"max":[
				1.2100000381469727,
				1.9513448476791382,
				1.2100000381469727
			],
			"min":[
				-1.2100000381469727,
				-1.9513448476791382,
				-1.2100000381469727
			],
			"type":"VEC3"
		},
		{
			"bufferView":1,
			"componentType":5126,
			"count":722,
			"type":"VEC3"
		},
		{
			"bufferView":2,
			"componentType":5126,
			"count":722,
			"type":"VEC2"
		},
		{
			"bufferView":3,
			"componentType":5126,
			"count":722,
			"type":"VEC2"
		},
		{
			"bufferView":4,
			"componentType":5123,
			"count":3264,
			"type":"SCALAR"
		}
	],
	"bufferViews":[
		{
			"buffer":0,
			"byteLength":8664,
			"byteOffset":0,
			"target":34962
		},
		{
			"buffer":0,
			"byteLength":8664,
			"byteOffset":8664,
			"target":34962
		},
		{
			"buffer":0,
			"byteLength":5776,
			"byteOffset":17328,
			"target":34962
		},
		{
			"buffer":0,
			"byteLength":5776,
			"byteOffset":23104,
			"target":34962
		},
		{
			"buffer":0,
			"byteLength":6528,
			"byteOffset":28880,
			"target":34963
		}
	],
	"samplers":[
		{
			"magFilter":9729,
			"minFilter":9987
		}
	],
	"buffers":[
		{
			"byteLength":35408,
			"uri":"barrel2.bin"
		}
	]
}
