{
	"asset":{
		"generator":"Khronos glTF Blender I/O v4.4.56",
		"version":"2.0"
	},
	"scene":0,
	"scenes":[
		{
			"name":"Scene",
			"nodes":[
				0,
				1,
				2,
				3
			]
		}
	],
	"nodes":[
		{
			"mesh":0,
			"name":"Cube.003",
			"translation":[
				-12.975557327270508,
				4.7855682373046875,
				-18.99038314819336
			]
		},
		{
			"mesh":1,
			"name":"Cube.005",
			"translation":[
				28.955751419067383,
				4.7855682373046875,
				43.332122802734375
			]
		},
		{
			"mesh":2,
			"name":"Cube.002",
			"rotation":[
				0,
				-1,
				0,
				1.6292068494294654e-07
			],
			"translation":[
				116.68199920654297,
				14.726283073425293,
				-4.31390380859375
			]
		},
		{
			"mesh":3,
			"name":"Plane.001",
			"scale":[
				200,
				200,
				200
			],
			"translation":[
				0,
				-1.1792347431182861,
				0
			]
		}
	],
	"materials":[
		{
			"doubleSided":true,
			"name":"Material.001",
			"pbrMetallicRoughness":{
				"baseColorTexture":{
					"index":0
				},
				"metallicFactor":0,
				"roughnessFactor":0.5
			}
		},
		{
			"doubleSided":true,
			"name":"Material.007",
			"pbrMetallicRoughness":{
				"baseColorTexture":{
					"index":1
				},
				"metallicFactor":0,
				"roughnessFactor":0.5
			}
		},
		{
			"doubleSided":true,
			"name":"Material.003",
			"pbrMetallicRoughness":{
				"baseColorTexture":{
					"index":2
				},
				"metallicFactor":0,
				"roughnessFactor":0.5
			}
		},
		{
			"doubleSided":true,
			"name":"Material.004",
			"pbrMetallicRoughness":{
				"baseColorTexture":{
					"index":3
				},
				"metallicFactor":0,
				"roughnessFactor":0.5
			}
		},
		{
			"doubleSided":true,
			"name":"Material.009",
			"pbrMetallicRoughness":{
				"baseColorTexture":{
					"index":4
				},
				"metallicFactor":0,
				"roughnessFactor":0.5
			}
		},
		{
			"doubleSided":true,
			"name":"Material.006",
			"pbrMetallicRoughness":{
				"baseColorTexture":{
					"index":5
				},
				"metallicFactor":0,
				"roughnessFactor":0.5
			}
		},
		{
			"doubleSided":true,
			"name":"Material.008",
			"pbrMetallicRoughness":{
				"baseColorTexture":{
					"index":6
				},
				"metallicFactor":0,
				"roughnessFactor":0.5
			}
		},
		{
			"doubleSided":true,
			"name":"Material.019",
			"pbrMetallicRoughness":{
				"baseColorTexture":{
					"index":7
				},
				"metallicFactor":0,
				"roughnessFactor":0.5
			}
		},
		{
			"doubleSided":true,
			"name":"Material.005",
			"pbrMetallicRoughness":{
				"baseColorTexture":{
					"index":8
				},
				"metallicFactor":0,
				"roughnessFactor":0.5
			}
		},
		{
			"doubleSided":true,
			"name":"Material.018",
			"pbrMetallicRoughness":{
				"baseColorTexture":{
					"index":9
				},
				"metallicFactor":0,
				"roughnessFactor":0.5
			}
		},
		{
			"doubleSided":true,
			"name":"Material.020",
			"pbrMetallicRoughness":{
				"baseColorTexture":{
					"index":10
				},
				"metallicFactor":0,
				"roughnessFactor":0.5
			}
		},
		{
			"doubleSided":true,
			"name":"Material.021",
			"pbrMetallicRoughness":{
				"baseColorTexture":{
					"index":11
				},
				"metallicFactor":0,
				"roughnessFactor":0.5
			}
		},
		{
			"doubleSided":true,
			"name":"Material.022",
			"pbrMetallicRoughness":{
				"baseColorTexture":{
					"index":12
				},
				"metallicFactor":0,
				"roughnessFactor":0.5
			}
		},
		{
			"doubleSided":true,
			"name":"Material.023",
			"pbrMetallicRoughness":{
				"baseColorTexture":{
					"index":13
				},
				"metallicFactor":0,
				"roughnessFactor":0.5
			}
		},
		{
			"doubleSided":true,
			"name":"Material",
			"pbrMetallicRoughness":{
				"baseColorTexture":{
					"index":14
				},
				"metallicFactor":0,
				"roughnessFactor":0.5
			}
		}
	],
	"meshes":[
		{
			"name":"Cube",
			"primitives":[
				{
					"attributes":{
						"POSITION":0,
						"NORMAL":1,
						"TEXCOORD_0":2
					},
					"indices":3,
					"material":0
				}
			]
		},
		{
			"name":"Cube.005",
			"primitives":[
				{
					"attributes":{
						"POSITION":4,
						"NORMAL":5,
						"TEXCOORD_0":6
					},
					"indices":7,
					"material":1
				},
				{
					"attributes":{
						"POSITION":8,
						"NORMAL":9,
						"TEXCOORD_0":10
					},
					"indices":11,
					"material":0
				},
				{
					"attributes":{
						"POSITION":12,
						"NORMAL":13,
						"TEXCOORD_0":14
					},
					"indices":15,
					"material":2
				},
				{
					"attributes":{
						"POSITION":16,
						"NORMAL":17,
						"TEXCOORD_0":18
					},
					"indices":19,
					"material":3
				},
				{
					"attributes":{
						"POSITION":20,
						"NORMAL":21,
						"TEXCOORD_0":22
					},
					"indices":23,
					"material":4
				},
				{
					"attributes":{
						"POSITION":24,
						"NORMAL":25,
						"TEXCOORD_0":26
					},
					"indices":7,
					"material":5
				},
				{
					"attributes":{
						"POSITION":27,
						"NORMAL":28,
						"TEXCOORD_0":29
					},
					"indices":7,
					"material":6
				}
			]
		},
		{
			"name":"Cube.018",
			"primitives":[
				{
					"attributes":{
						"POSITION":30,
						"NORMAL":31,
						"TEXCOORD_0":32
					},
					"indices":33,
					"material":7
				},
				{
					"attributes":{
						"POSITION":34,
						"NORMAL":35,
						"TEXCOORD_0":36
					},
					"indices":37,
					"material":8
				},
				{
					"attributes":{
						"POSITION":38,
						"NORMAL":39,
						"TEXCOORD_0":40
					},
					"indices":41,
					"material":9
				},
				{
					"attributes":{
						"POSITION":42,
						"NORMAL":43,
						"TEXCOORD_0":44
					},
					"indices":45,
					"material":10
				},
				{
					"attributes":{
						"POSITION":46,
						"NORMAL":47,
						"TEXCOORD_0":48
					},
					"indices":49,
					"material":11
				},
				{
					"attributes":{
						"POSITION":50,
						"NORMAL":51,
						"TEXCOORD_0":52
					},
					"indices":53,
					"material":12
				},
				{
					"attributes":{
						"POSITION":54,
						"NORMAL":55,
						"TEXCOORD_0":56
					},
					"indices":57,
					"material":13
				}
			]
		},
		{
			"name":"Plane.001",
			"primitives":[
				{
					"attributes":{
						"POSITION":58,
						"NORMAL":59,
						"TEXCOORD_0":60
					},
					"indices":61,
					"material":14
				}
			]
		}
	],
	"textures":[
		{
			"sampler":0,
			"source":0
		},
		{
			"sampler":0,
			"source":0
		},
		{
			"sampler":0,
			"source":0
		},
		{
			"sampler":0,
			"source":0
		},
		{
			"sampler":0,
			"source":0
		},
		{
			"sampler":0,
			"source":0
		},
		{
			"sampler":0,
			"source":0
		},
		{
			"sampler":0,
			"source":1
		},
		{
			"sampler":0,
			"source":1
		},
		{
			"sampler":0,
			"source":1
		},
		{
			"sampler":0,
			"source":1
		},
		{
			"sampler":0,
			"source":1
		},
		{
			"sampler":0,
			"source":1
		},
		{
			"sampler":0,
			"source":1
		},
		{
			"sampler":0,
			"source":2
		}
	],
	"images":[
		{
			"mimeType":"image/jpeg",
			"name":"worn_tile_floor_diff_4k",
			"uri":"worn_tile_floor_diff_4k.jpg"
		},
		{
			"mimeType":"image/png",
			"name":"castle",
			"uri":"castle.png"
		},
		{
			"mimeType":"image/jpeg",
			"name":"rock_wall_13_diff_4k",
			"uri":"rock_wall_13_diff_4k.jpg"
		}
	],
	"accessors":[
		{
			"bufferView":0,
			"componentType":5126,
			"count":72,
			"max":[
				1,
				4.863356590270996,
				1
			],
			"min":[
				-1,
				-3.2783455848693848,
				-1
			],
			"type":"VEC3"
		},
		{
			"bufferView":1,
			"componentType":5126,
			"count":72,
			"type":"VEC3"
		},
		{
			"bufferView":2,
			"componentType":5126,
			"count":72,
			"type":"VEC2"
		},
		{
			"bufferView":3,
			"componentType":5123,
			"count":108,
			"type":"SCALAR"
		},
		{
			"bufferView":4,
			"componentType":5126,
			"count":288,
			"max":[
				2.7999138832092285,
				4.863356590270996,
				60.814456939697266
			],
			"min":[
				-2.7999138832092285,
				-3.2783455848693848,
				-60.814456939697266
			],
			"type":"VEC3"
		},
		{
			"bufferView":5,
			"componentType":5126,
			"count":288,
			"type":"VEC3"
		},
		{
			"bufferView":6,
			"componentType":5126,
			"count":288,
			"type":"VEC2"
		},
		{
			"bufferView":7,
			"componentType":5123,
			"count":432,
			"type":"SCALAR"
		},
		{
			"bufferView":8,
			"componentType":5126,
			"count":34,
			"max":[
				44.75566101074219,
				-2.786278247833252,
				60.824073791503906
			],
			"min":[
				-44.75566101074219,
				-5.11890172958374,
				-60.824073791503906
			],
			"type":"VEC3"
		},
		{
			"bufferView":9,
			"componentType":5126,
			"count":34,
			"type":"VEC3"
		},
		{
			"bufferView":10,
			"componentType":5126,
			"count":34,
			"type":"VEC2"
		},
		{
			"bufferView":11,
			"componentType":5123,
			"count":72,
			"type":"SCALAR"
		},
		{
			"bufferView":12,
			"componentType":5126,
			"count":304,
			"max":[
				43.846092224121094,
				1.9933500289916992,
				60.149864196777344
			],
			"min":[
				-43.846092224121094,
				-2.985193967819214,
				-60.149864196777344
			],
			"type":"VEC3"
		},
		{
			"bufferView":13,
			"componentType":5126,
			"count":304,
			"type":"VEC3"
		},
		{
			"bufferView":14,
			"componentType":5126,
			"count":304,
			"type":"VEC2"
		},
		{
			"bufferView":15,
			"componentType":5123,
			"count":624,
			"type":"SCALAR"
		},
		{
			"bufferView":16,
			"componentType":5126,
			"count":304,
			"max":[
				44.10078430175781,
				1.993349552154541,
				60.048831939697266
			],
			"min":[
				-44.10078430175781,
				-2.985193967819214,
				-60.048831939697266
			],
			"type":"VEC3"
		},
		{
			"bufferView":17,
			"componentType":5126,
			"count":304,
			"type":"VEC3"
		},
		{
			"bufferView":18,
			"componentType":5126,
			"count":304,
			"type":"VEC2"
		},
		{
			"bufferView":19,
			"componentType":5123,
			"count":624,
			"type":"SCALAR"
		},
		{
			"bufferView":20,
			"componentType":5126,
			"count":304,
			"max":[
				44.10078430175781,
				1.993349552154541,
				31.88451385498047
			],
			"min":[
				-44.10078430175781,
				-2.985193967819214,
				-31.88451385498047
			],
			"type":"VEC3"
		},
		{
			"bufferView":21,
			"componentType":5126,
			"count":304,
			"type":"VEC3"
		},
		{
			"bufferView":22,
			"componentType":5126,
			"count":304,
			"type":"VEC2"
		},
		{
			"bufferView":23,
			"componentType":5123,
			"count":624,
			"type":"SCALAR"
		},
		{
			"bufferView":24,
			"componentType":5126,
			"count":288,
			"max":[
				44.73122024536133,
				4.863356590270996,
				3.015197992324829
			],
			"min":[
				-44.73122024536133,
				-3.2783455848693848,
				-3.015197992324829
			],
			"type":"VEC3"
		},
		{
			"bufferView":25,
			"componentType":5126,
			"count":288,
			"type":"VEC3"
		},
		{
			"bufferView":26,
			"componentType":5126,
			"count":288,
			"type":"VEC2"
		},
		{
			"bufferView":27,
			"componentType":5126,
			"count":288,
			"max":[
				44.73122024536133,
				4.863356590270996,
				32.49351501464844
			],
			"min":[
				-44.73122024536133,
				-3.2783455848693848,
				-32.49351501464844
			],
			"type":"VEC3"
		},
		{
			"bufferView":28,
			"componentType":5126,
			"count":288,
			"type":"VEC3"
		},
		{
			"bufferView":29,
			"componentType":5126,
			"count":288,
			"type":"VEC2"
		},
		{
			"bufferView":30,
			"componentType":5126,
			"count":561,
			"max":[
				27.23270034790039,
				26,
				17.197446823120117
			],
			"min":[
				-27.23270034790039,
				-14.991090774536133,
				-85.98723602294922
			],
			"type":"VEC3"
		},
		{
			"bufferView":31,
			"componentType":5126,
			"count":561,
			"type":"VEC3"
		},
		{
			"bufferView":32,
			"componentType":5126,
			"count":561,
			"type":"VEC2"
		},
		{
			"bufferView":33,
			"componentType":5123,
			"count":1026,
			"type":"SCALAR"
		},
		{
			"bufferView":34,
			"componentType":5126,
			"count":748,
			"max":[
				134.9375,
				26,
				78.97216033935547
			],
			"min":[
				-2.64208984375,
				-14.991090774536133,
				24.506717681884766
			],
			"type":"VEC3"
		},
		{
			"bufferView":35,
			"componentType":5126,
			"count":748,
			"type":"VEC3"
		},
		{
			"bufferView":36,
			"componentType":5126,
			"count":748,
			"type":"VEC2"
		},
		{
			"bufferView":37,
			"componentType":5123,
			"count":1368,
			"type":"SCALAR"
		},
		{
			"bufferView":38,
			"componentType":5126,
			"count":748,
			"max":[
				201.1441192626953,
				26,
				100.81745910644531
			],
			"min":[
				146.6786651611328,
				-14.991090774536133,
				-47.08060836791992
			],
			"type":"VEC3"
		},
		{
			"bufferView":39,
			"componentType":5126,
			"count":748,
			"type":"VEC3"
		},
		{
			"bufferView":40,
			"componentType":5126,
			"count":748,
			"type":"VEC2"
		},
		{
			"bufferView":41,
			"componentType":5123,
			"count":1368,
			"type":"SCALAR"
		},
		{
			"bufferView":42,
			"componentType":5126,
			"count":748,
			"max":[
				153.5395965576172,
				26,
				145.51565551757812
			],
			"min":[
				15.960014343261719,
				-14.991090774536133,
				91.05021667480469
			],
			"type":"VEC3"
		},
		{
			"bufferView":43,
			"componentType":5126,
			"count":748,
			"type":"VEC3"
		},
		{
			"bufferView":44,
			"componentType":5126,
			"count":748,
			"type":"VEC2"
		},
		{
			"bufferView":45,
			"componentType":5123,
			"count":1368,
			"type":"SCALAR"
		},
		{
			"bufferView":46,
			"componentType":5126,
			"count":748,
			"max":[
				262.99468994140625,
				26,
				118.28816223144531
			],
			"min":[
				208.5292510986328,
				-14.991090774536133,
				-29.609901428222656
			],
			"type":"VEC3"
		},
		{
			"bufferView":47,
			"componentType":5126,
			"count":748,
			"type":"VEC3"
		},
		{
			"bufferView":48,
			"componentType":5126,
			"count":748,
			"type":"VEC2"
		},
		{
			"bufferView":49,
			"componentType":5123,
			"count":1368,
			"type":"SCALAR"
		},
		{
			"bufferView":50,
			"componentType":5126,
			"count":561,
			"max":[
				201.14414978027344,
				26,
				-47.910491943359375
			],
			"min":[
				146.6787109375,
				-14.991090774536133,
				-151.09518432617188
			],
			"type":"VEC3"
		},
		{
			"bufferView":51,
			"componentType":5126,
			"count":561,
			"type":"VEC3"
		},
		{
			"bufferView":52,
			"componentType":5126,
			"count":561,
			"type":"VEC2"
		},
		{
			"bufferView":53,
			"componentType":5123,
			"count":1026,
			"type":"SCALAR"
		},
		{
			"bufferView":54,
			"componentType":5126,
			"count":561,
			"max":[
				261.8788146972656,
				26,
				-47.91046142578125
			],
			"min":[
				207.41339111328125,
				-14.991090774536133,
				-151.09515380859375
			],
			"type":"VEC3"
		},
		{
			"bufferView":55,
			"componentType":5126,
			"count":561,
			"type":"VEC3"
		},
		{
			"bufferView":56,
			"componentType":5126,
			"count":561,
			"type":"VEC2"
		},
		{
			"bufferView":57,
			"componentType":5123,
			"count":1026,
			"type":"SCALAR"
		},
		{
			"bufferView":58,
			"componentType":5126,
			"count":1089,
			"max":[
				1.0788726806640625,
				0.35538288950920105,
				1.0658327341079712
			],
			"min":[
				-1.0080713033676147,
				0,
				-1.0156373977661133
			],
			"type":"VEC3"
		},
		{
			"bufferView":59,
			"componentType":5126,
			"count":1089,
			"type":"VEC3"
		},
		{
			"bufferView":60,
			"componentType":5126,
			"count":1089,
			"type":"VEC2"
		},
		{
			"bufferView":61,
			"componentType":5123,
			"count":6144,
			"type":"SCALAR"
		}
	],
	"bufferViews":[
		{
			"buffer":0,
			"byteLength":864,
			"byteOffset":0,
			"target":34962
		},
		{
			"buffer":0,
			"byteLength":864,
			"byteOffset":864,
			"target":34962
		},
		{
			"buffer":0,
			"byteLength":576,
			"byteOffset":1728,
			"target":34962
		},
		{
			"buffer":0,
			"byteLength":216,
			"byteOffset":2304,
			"target":34963
		},
		{
			"buffer":0,
			"byteLength":3456,
			"byteOffset":2520,
			"target":34962
		},
		{
			"buffer":0,
			"byteLength":3456,
			"byteOffset":5976,
			"target":34962
		},
		{
			"buffer":0,
			"byteLength":2304,
			"byteOffset":9432,
			"target":34962
		},
		{
			"buffer":0,
			"byteLength":864,
			"byteOffset":11736,
			"target":34963
		},
		{
			"buffer":0,
			"byteLength":408,
			"byteOffset":12600,
			"target":34962
		},
		{
			"buffer":0,
			"byteLength":408,
			"byteOffset":13008,
			"target":34962
		},
		{
			"buffer":0,
			"byteLength":272,
			"byteOffset":13416,
			"target":34962
		},
		{
			"buffer":0,
			"byteLength":144,
			"byteOffset":13688,
			"target":34963
		},
		{
			"buffer":0,
			"byteLength":3648,
			"byteOffset":13832,
			"target":34962
		},
		{
			"buffer":0,
			"byteLength":3648,
			"byteOffset":17480,
			"target":34962
		},
		{
			"buffer":0,
			"byteLength":2432,
			"byteOffset":21128,
			"target":34962
		},
		{
			"buffer":0,
			"byteLength":1248,
			"byteOffset":23560,
			"target":34963
		},
		{
			"buffer":0,
			"byteLength":3648,
			"byteOffset":24808,
			"target":34962
		},
		{
			"buffer":0,
			"byteLength":3648,
			"byteOffset":28456,
			"target":34962
		},
		{
			"buffer":0,
			"byteLength":2432,
			"byteOffset":32104,
			"target":34962
		},
		{
			"buffer":0,
			"byteLength":1248,
			"byteOffset":34536,
			"target":34963
		},
		{
			"buffer":0,
			"byteLength":3648,
			"byteOffset":35784,
			"target":34962
		},
		{
			"buffer":0,
			"byteLength":3648,
			"byteOffset":39432,
			"target":34962
		},
		{
			"buffer":0,
			"byteLength":2432,
			"byteOffset":43080,
			"target":34962
		},
		{
			"buffer":0,
			"byteLength":1248,
			"byteOffset":45512,
			"target":34963
		},
		{
			"buffer":0,
			"byteLength":3456,
			"byteOffset":46760,
			"target":34962
		},
		{
			"buffer":0,
			"byteLength":3456,
			"byteOffset":50216,
			"target":34962
		},
		{
			"buffer":0,
			"byteLength":2304,
			"byteOffset":53672,
			"target":34962
		},
		{
			"buffer":0,
			"byteLength":3456,
			"byteOffset":55976,
			"target":34962
		},
		{
			"buffer":0,
			"byteLength":3456,
			"byteOffset":59432,
			"target":34962
		},
		{
			"buffer":0,
			"byteLength":2304,
			"byteOffset":62888,
			"target":34962
		},
		{
			"buffer":0,
			"byteLength":6732,
			"byteOffset":65192,
			"target":34962
		},
		{
			"buffer":0,
			"byteLength":6732,
			"byteOffset":71924,
			"target":34962
		},
		{
			"buffer":0,
			"byteLength":4488,
			"byteOffset":78656,
			"target":34962
		},
		{
			"buffer":0,
			"byteLength":2052,
			"byteOffset":83144,
			"target":34963
		},
		{
			"buffer":0,
			"byteLength":8976,
			"byteOffset":85196,
			"target":34962
		},
		{
			"buffer":0,
			"byteLength":8976,
			"byteOffset":94172,
			"target":34962
		},
		{
			"buffer":0,
			"byteLength":5984,
			"byteOffset":103148,
			"target":34962
		},
		{
			"buffer":0,
			"byteLength":2736,
			"byteOffset":109132,
			"target":34963
		},
		{
			"buffer":0,
			"byteLength":8976,
			"byteOffset":111868,
			"target":34962
		},
		{
			"buffer":0,
			"byteLength":8976,
			"byteOffset":120844,
			"target":34962
		},
		{
			"buffer":0,
			"byteLength":5984,
			"byteOffset":129820,
			"target":34962
		},
		{
			"buffer":0,
			"byteLength":2736,
			"byteOffset":135804,
			"target":34963
		},
		{
			"buffer":0,
			"byteLength":8976,
			"byteOffset":138540,
			"target":34962
		},
		{
			"buffer":0,
			"byteLength":8976,
			"byteOffset":147516,
			"target":34962
		},
		{
			"buffer":0,
			"byteLength":5984,
			"byteOffset":156492,
			"target":34962
		},
		{
			"buffer":0,
			"byteLength":2736,
			"byteOffset":162476,
			"target":34963
		},
		{
			"buffer":0,
			"byteLength":8976,
			"byteOffset":165212,
			"target":34962
		},
		{
			"buffer":0,
			"byteLength":8976,
			"byteOffset":174188,
			"target":34962
		},
		{
			"buffer":0,
			"byteLength":5984,
			"byteOffset":183164,
			"target":34962
		},
		{
			"buffer":0,
			"byteLength":2736,
			"byteOffset":189148,
			"target":34963
		},
		{
			"buffer":0,
			"byteLength":6732,
			"byteOffset":191884,
			"target":34962
		},
		{
			"buffer":0,
			"byteLength":6732,
			"byteOffset":198616,
			"target":34962
		},
		{
			"buffer":0,
			"byteLength":4488,
			"byteOffset":205348,
			"target":34962
		},
		{
			"buffer":0,
			"byteLength":2052,
			"byteOffset":209836,
			"target":34963
		},
		{
			"buffer":0,
			"byteLength":6732,
			"byteOffset":211888,
			"target":34962
		},
		{
			"buffer":0,
			"byteLength":6732,
			"byteOffset":218620,
			"target":34962
		},
		{
			"buffer":0,
			"byteLength":4488,
			"byteOffset":225352,
			"target":34962
		},
		{
			"buffer":0,
			"byteLength":2052,
			"byteOffset":229840,
			"target":34963
		},
		{
			"buffer":0,
			"byteLength":13068,
			"byteOffset":231892,
			"target":34962
		},
		{
			"buffer":0,
			"byteLength":13068,
			"byteOffset":244960,
			"target":34962
		},
		{
			"buffer":0,
			"byteLength":8712,
			"byteOffset":258028,
			"target":34962
		},
		{
			"buffer":0,
			"byteLength":12288,
			"byteOffset":266740,
			"target":34963
		}
	],
	"samplers":[
		{
			"magFilter":9729,
			"minFilter":9987
		}
	],
	"buffers":[
		{
			"byteLength":279028,
			"uri":"stonemarketWhole.bin"
		}
	]
}
