{
	"asset":{
		"generator":"Khronos glTF Blender I/O v4.4.56",
		"version":"2.0"
	},
	"scene":0,
	"scenes":[
		{
			"name":"Scene",
			"nodes":[
				0
			]
		}
	],
	"nodes":[
		{
			"mesh":0,
			"name":"Cube.005",
			"translation":[
				28.955751419067383,
				4.7855682373046875,
				43.332122802734375
			]
		}
	],
	"materials":[
		{
			"doubleSided":true,
			"name":"Material.007",
			"pbrMetallicRoughness":{
				"baseColorTexture":{
					"index":0
				},
				"metallicFactor":0,
				"roughnessFactor":0.5
			}
		}
	],
	"meshes":[
		{
			"name":"Cube.005",
			"primitives":[
				{
					"attributes":{
						"POSITION":0,
						"NORMAL":1,
						"TEXCOORD_0":2
					},
					"indices":3,
					"material":0
				}
			]
		}
	],
	"textures":[
		{
			"sampler":0,
			"source":0
		}
	],
	"images":[
		{
			"mimeType":"image/jpeg",
			"name":"worn_tile_floor_diff_4k",
			"uri":"worn_tile_floor_diff_4k.jpg"
		}
	],
	"accessors":[
		{
			"bufferView":0,
			"componentType":5126,
			"count":1882,
			"max":[
				44.75566101074219,
				4.863356590270996,
				60.824073791503906
			],
			"min":[
				-44.75566101074219,
				-5.11890172958374,
				-63.322505950927734
			],
			"type":"VEC3"
		},
		{
			"bufferView":1,
			"componentType":5126,
			"count":1882,
			"type":"VEC3"
		},
		{
			"bufferView":2,
			"componentType":5126,
			"count":1882,
			"type":"VEC2"
		},
		{
			"bufferView":3,
			"componentType":5123,
			"count":3348,
			"type":"SCALAR"
		}
	],
	"bufferViews":[
		{
			"buffer":0,
			"byteLength":22584,
			"byteOffset":0,
			"target":34962
		},
		{
			"buffer":0,
			"byteLength":22584,
			"byteOffset":22584,
			"target":34962
		},
		{
			"buffer":0,
			"byteLength":15056,
			"byteOffset":45168,
			"target":34962
		},
		{
			"buffer":0,
			"byteLength":6696,
			"byteOffset":60224,
			"target":34963
		}
	],
	"samplers":[
		{
			"magFilter":9729,
			"minFilter":9987
		}
	],
	"buffers":[
		{
			"byteLength":66920,
			"uri":"stonemarket1.bin"
		}
	]
}
