{
	"asset":{
		"generator":"Khronos glTF Blender I/O v4.5.47",
		"version":"2.0"
	},
	"extensionsUsed":[
		"KHR_materials_transmission",
		"KHR_materials_specular",
		"KHR_materials_ior"
	],
	"scene":0,
	"scenes":[
		{
			"name":"Scene",
			"nodes":[
				0,
				1,
				2,
				3,
				4,
				5,
				6,
				7,
				8
			]
		}
	],
	"nodes":[
		{
			"mesh":0,
			"name":"breakfast_room_Floor",
			"rotation":[
				0.70710688829422,
				0,
				0,
				0.7071066498756409
			]
		},
		{
			"mesh":1,
			"name":"wall_art_breakfast_room_Interior.075",
			"rotation":[
				0.70710688829422,
				0,
				0,
				0.7071066498756409
			]
		},
		{
			"mesh":2,
			"name":"breakfast_room_Ceiling",
			"rotation":[
				0.70710688829422,
				0,
				0,
				0.7071066498756409
			]
		},
		{
			"mesh":3,
			"name":"breakfast_room_Wall_East",
			"rotation":[
				0.70710688829422,
				0,
				0,
				0.7071066498756409
			]
		},
		{
			"mesh":4,
			"name":"breakfast_room_Wall_North",
			"rotation":[
				0.70710688829422,
				0,
				0,
				0.7071066498756409
			]
		},
		{
			"mesh":5,
			"name":"breakfast_room_Wall_South",
			"rotation":[
				0.70710688829422,
				0,
				0,
				0.7071066498756409
			]
		},
		{
			"mesh":6,
			"name":"breakfast_room_Wall_West",
			"rotation":[
				0.70710688829422,
				0,
				0,
				0.7071066498756409
			]
		},
		{
			"mesh":7,
			"name":"Blinds_breakfast_room",
			"rotation":[
				0.70710688829422,
				0,
				0,
				0.7071066498756409
			]
		},
		{
			"mesh":8,
			"name":"Baseboard_breakfast_room_Interior.011",
			"rotation":[
				0.70710688829422,
				0,
				0,
				0.7071066498756409
			]
		}
	],
	"materials":[
		{
			"doubleSided":true,
			"extensions":{
				"KHR_materials_transmission":{
					"transmissionFactor":1
				},
				"KHR_materials_specular":{
					"specularFactor":0.4000000059604645
				},
				"KHR_materials_ior":{
					"ior":1
				}
			},
			"name":"breakfast_room:Floor_Tiles",
			"pbrMetallicRoughness":{
				"baseColorTexture":{
					"index":0
				},
				"metallicRoughnessTexture":{
					"index":1
				}
			}
		},
		{
			"doubleSided":true,
			"extensions":{
				"KHR_materials_transmission":{
					"transmissionFactor":1
				},
				"KHR_materials_specular":{
					"specularFactor":0
				},
				"KHR_materials_ior":{
					"ior":1
				}
			},
			"name":"breakfast_room:Artwork",
			"pbrMetallicRoughness":{
				"baseColorTexture":{
					"index":2
				},
				"metallicRoughnessTexture":{
					"index":3
				}
			}
		},
		{
			"doubleSided":true,
			"extensions":{
				"KHR_materials_transmission":{
					"transmissionFactor":1
				},
				"KHR_materials_specular":{
					"specularFactor":0
				},
				"KHR_materials_ior":{
					"ior":1
				}
			},
			"name":"breakfast_room:Paint___White_Matt",
			"pbrMetallicRoughness":{
				"baseColorTexture":{
					"index":4
				},
				"metallicRoughnessTexture":{
					"index":5
				}
			}
		},
		{
			"doubleSided":true,
			"extensions":{
				"KHR_materials_transmission":{
					"transmissionFactor":1
				},
				"KHR_materials_specular":{
					"specularFactor":0.20000000298023224
				},
				"KHR_materials_ior":{
					"ior":1
				}
			},
			"name":"breakfast_room:Paint___White_Gloss",
			"pbrMetallicRoughness":{
				"baseColorTexture":{
					"index":6
				},
				"metallicRoughnessTexture":{
					"index":7
				}
			}
		}
	],
	"meshes":[
		{
			"name":"breakfast_room_Floor",
			"primitives":[
				{
					"attributes":{
						"POSITION":0,
						"NORMAL":1,
						"TEXCOORD_0":2,
						"COLOR_0":3,
						"COLOR_1":4
					},
					"indices":5,
					"material":0
				}
			]
		},
		{
			"name":"wall_art_breakfast_room_Interior.075",
			"primitives":[
				{
					"attributes":{
						"POSITION":6,
						"NORMAL":7,
						"TEXCOORD_0":8,
						"COLOR_0":9,
						"COLOR_1":10
					},
					"indices":11,
					"material":1
				}
			]
		},
		{
			"name":"breakfast_room_Ceiling",
			"primitives":[
				{
					"attributes":{
						"POSITION":12,
						"NORMAL":13,
						"TEXCOORD_0":14,
						"COLOR_0":15,
						"COLOR_1":16
					},
					"indices":17,
					"material":2
				}
			]
		},
		{
			"name":"breakfast_room_Wall_East",
			"primitives":[
				{
					"attributes":{
						"POSITION":18,
						"NORMAL":19,
						"TEXCOORD_0":20,
						"COLOR_0":21,
						"COLOR_1":22
					},
					"indices":23,
					"material":2
				}
			]
		},
		{
			"name":"breakfast_room_Wall_North",
			"primitives":[
				{
					"attributes":{
						"POSITION":24,
						"NORMAL":25,
						"TEXCOORD_0":26,
						"COLOR_0":27,
						"COLOR_1":28
					},
					"indices":29,
					"material":2
				}
			]
		},
		{
			"name":"breakfast_room_Wall_South",
			"primitives":[
				{
					"attributes":{
						"POSITION":30,
						"NORMAL":31,
						"TEXCOORD_0":32,
						"COLOR_0":33,
						"COLOR_1":34
					},
					"indices":29,
					"material":2
				}
			]
		},
		{
			"name":"breakfast_room_Wall_West",
			"primitives":[
				{
					"attributes":{
						"POSITION":35,
						"NORMAL":36,
						"TEXCOORD_0":37,
						"COLOR_0":38,
						"COLOR_1":39
					},
					"indices":40,
					"material":2
				}
			]
		},
		{
			"name":"Blinds_breakfast_room",
			"primitives":[
				{
					"attributes":{
						"POSITION":41,
						"NORMAL":42,
						"TEXCOORD_0":43,
						"COLOR_0":44,
						"COLOR_1":45
					},
					"indices":46,
					"material":2
				}
			]
		},
		{
			"name":"Baseboard_breakfast_room_Interior.011",
			"primitives":[
				{
					"attributes":{
						"POSITION":47,
						"NORMAL":48,
						"TEXCOORD_0":49,
						"COLOR_0":50,
						"COLOR_1":51
					},
					"indices":52,
					"material":3
				}
			]
		}
	],
	"textures":[
		{
			"sampler":0,
			"source":0
		},
		{
			"sampler":0,
			"source":1
		},
		{
			"sampler":0,
			"source":2
		},
		{
			"sampler":0,
			"source":3
		},
		{
			"sampler":0,
			"source":4
		},
		{
			"sampler":0,
			"source":5
		},
		{
			"sampler":0,
			"source":4
		},
		{
			"sampler":0,
			"source":5
		}
	],
	"images":[
		{
			"mimeType":"image/png",
			"name":"tiles",
			"uri":"tiles.png"
		},
		{
			"mimeType":"image/png",
			"name":"0",
			"uri":"0.png"
		},
		{
			"mimeType":"image/jpeg",
			"name":"picture3",
			"uri":"picture3.jpg"
		},
		{
			"mimeType":"image/png",
			"name":"0",
			"uri":"0-1.png"
		},
		{
			"mimeType":"image/png",
			"name":"white",
			"uri":"white.png"
		},
		{
			"mimeType":"image/png",
			"name":"Untitled",
			"uri":"Untitled.png"
		}
	],
	"accessors":[
		{
			"bufferView":0,
			"componentType":5126,
			"count":24,
			"max":[
				5.133021831512451,
				9.888322830200195,
				1.7392109632492065
			],
			"min":[
				-6.30574893951416,
				-4.539604187011719,
				1.4199570417404175
			],
			"type":"VEC3"
		},
		{
			"bufferView":1,
			"componentType":5126,
			"count":24,
			"type":"VEC3"
		},
		{
			"bufferView":2,
			"componentType":5126,
			"count":24,
			"type":"VEC2"
		},
		{
			"bufferView":3,
			"componentType":5126,
			"count":24,
			"type":"VEC3"
		},
		{
			"bufferView":4,
			"componentType":5123,
			"count":24,
			"normalized":true,
			"type":"VEC4"
		},
		{
			"bufferView":5,
			"componentType":5123,
			"count":36,
			"type":"SCALAR"
		},
		{
			"bufferView":6,
			"componentType":5126,
			"count":382,
			"max":[
				0.4553300142288208,
				-4.308239936828613,
				-2.5024430751800537
			],
			"min":[
				-1.6980830430984497,
				-4.505558013916016,
				-5.5437331199646
			],
			"type":"VEC3"
		},
		{
			"bufferView":7,
			"componentType":5126,
			"count":382,
			"type":"VEC3"
		},
		{
			"bufferView":8,
			"componentType":5126,
			"count":382,
			"type":"VEC2"
		},
		{
			"bufferView":9,
			"componentType":5126,
			"count":382,
			"type":"VEC3"
		},
		{
			"bufferView":10,
			"componentType":5123,
			"count":382,
			"normalized":true,
			"type":"VEC4"
		},
		{
			"bufferView":11,
			"componentType":5123,
			"count":510,
			"type":"SCALAR"
		},
		{
			"bufferView":12,
			"componentType":5126,
			"count":24,
			"max":[
				5.133021831512451,
				9.888323783874512,
				-7.840473175048828
			],
			"min":[
				-6.30574893951416,
				-4.501718044281006,
				-8.112457275390625
			],
			"type":"VEC3"
		},
		{
			"bufferView":13,
			"componentType":5126,
			"count":24,
			"type":"VEC3"
		},
		{
			"bufferView":14,
			"componentType":5126,
			"count":24,
			"type":"VEC2"
		},
		{
			"bufferView":15,
			"componentType":5126,
			"count":24,
			"type":"VEC3"
		},
		{
			"bufferView":16,
			"componentType":5123,
			"count":24,
			"normalized":true,
			"type":"VEC4"
		},
		{
			"bufferView":17,
			"componentType":5123,
			"count":36,
			"type":"SCALAR"
		},
		{
			"bufferView":18,
			"componentType":5126,
			"count":49,
			"max":[
				5.405004024505615,
				10.160306930541992,
				1.7392109632492065
			],
			"min":[
				5.133021831512451,
				-4.773702144622803,
				-8.112457275390625
			],
			"type":"VEC3"
		},
		{
			"bufferView":19,
			"componentType":5126,
			"count":49,
			"type":"VEC3"
		},
		{
			"bufferView":20,
			"componentType":5126,
			"count":49,
			"type":"VEC2"
		},
		{
			"bufferView":21,
			"componentType":5126,
			"count":49,
			"type":"VEC3"
		},
		{
			"bufferView":22,
			"componentType":5123,
			"count":49,
			"normalized":true,
			"type":"VEC4"
		},
		{
			"bufferView":23,
			"componentType":5123,
			"count":96,
			"type":"SCALAR"
		},
		{
			"bufferView":24,
			"componentType":5126,
			"count":24,
			"max":[
				5.133021831512451,
				-4.501718044281006,
				1.7392079830169678
			],
			"min":[
				-6.30574893951416,
				-4.773702144622803,
				-8.112457275390625
			],
			"type":"VEC3"
		},
		{
			"bufferView":25,
			"componentType":5126,
			"count":24,
			"type":"VEC3"
		},
		{
			"bufferView":26,
			"componentType":5126,
			"count":24,
			"type":"VEC2"
		},
		{
			"bufferView":27,
			"componentType":5126,
			"count":24,
			"type":"VEC3"
		},
		{
			"bufferView":28,
			"componentType":5123,
			"count":24,
			"normalized":true,
			"type":"VEC4"
		},
		{
			"bufferView":29,
			"componentType":5123,
			"count":36,
			"type":"SCALAR"
		},
		{
			"bufferView":30,
			"componentType":5126,
			"count":24,
			"max":[
				5.133020877838135,
				10.160305976867676,
				1.7392109632492065
			],
			"min":[
				-6.30574893951416,
				9.888322830200195,
				-8.112454414367676
			],
			"type":"VEC3"
		},
		{
			"bufferView":31,
			"componentType":5126,
			"count":24,
			"type":"VEC3"
		},
		{
			"bufferView":32,
			"componentType":5126,
			"count":24,
			"type":"VEC2"
		},
		{
			"bufferView":33,
			"componentType":5126,
			"count":24,
			"type":"VEC3"
		},
		{
			"bufferView":34,
			"componentType":5123,
			"count":24,
			"normalized":true,
			"type":"VEC4"
		},
		{
			"bufferView":35,
			"componentType":5126,
			"count":24,
			"max":[
				-6.30574893951416,
				10.160305976867676,
				1.7392109632492065
			],
			"min":[
				-6.577731132507324,
				-4.773702144622803,
				-8.112457275390625
			],
			"type":"VEC3"
		},
		{
			"bufferView":36,
			"componentType":5126,
			"count":24,
			"type":"VEC3"
		},
		{
			"bufferView":37,
			"componentType":5126,
			"count":24,
			"type":"VEC2"
		},
		{
			"bufferView":38,
			"componentType":5126,
			"count":24,
			"type":"VEC3"
		},
		{
			"bufferView":39,
			"componentType":5123,
			"count":24,
			"normalized":true,
			"type":"VEC4"
		},
		{
			"bufferView":40,
			"componentType":5123,
			"count":36,
			"type":"SCALAR"
		},
		{
			"bufferView":41,
			"componentType":5126,
			"count":318,
			"max":[
				5.26328706741333,
				2.9136409759521484,
				-1.9600290060043335
			],
			"min":[
				5.030632972717285,
				-4.140110015869141,
				-6.777949810028076
			],
			"type":"VEC3"
		},
		{
			"bufferView":42,
			"componentType":5126,
			"count":318,
			"type":"VEC3"
		},
		{
			"bufferView":43,
			"componentType":5126,
			"count":318,
			"type":"VEC2"
		},
		{
			"bufferView":44,
			"componentType":5126,
			"count":318,
			"type":"VEC3"
		},
		{
			"bufferView":45,
			"componentType":5123,
			"count":318,
			"normalized":true,
			"type":"VEC4"
		},
		{
			"bufferView":46,
			"componentType":5123,
			"count":612,
			"type":"SCALAR"
		},
		{
			"bufferView":47,
			"componentType":5126,
			"count":50,
			"max":[
				5.263339996337891,
				-4.5004401206970215,
				1.418360948562622
			],
			"min":[
				-6.353185176849365,
				-4.53226900100708,
				1.141165018081665
			],
			"type":"VEC3"
		},
		{
			"bufferView":48,
			"componentType":5126,
			"count":50,
			"type":"VEC3"
		},
		{
			"bufferView":49,
			"componentType":5126,
			"count":50,
			"type":"VEC2"
		},
		{
			"bufferView":50,
			"componentType":5126,
			"count":50,
			"type":"VEC3"
		},
		{
			"bufferView":51,
			"componentType":5123,
			"count":50,
			"normalized":true,
			"type":"VEC4"
		},
		{
			"bufferView":52,
			"componentType":5123,
			"count":66,
			"type":"SCALAR"
		}
	],
	"bufferViews":[
		{
			"buffer":0,
			"byteLength":288,
			"byteOffset":0,
			"target":34962
		},
		{
			"buffer":0,
			"byteLength":288,
			"byteOffset":288,
			"target":34962
		},
		{
			"buffer":0,
			"byteLength":192,
			"byteOffset":576,
			"target":34962
		},
		{
			"buffer":0,
			"byteLength":288,
			"byteOffset":768,
			"target":34962
		},
		{
			"buffer":0,
			"byteLength":192,
			"byteOffset":1056,
			"target":34962
		},
		{
			"buffer":0,
			"byteLength":72,
			"byteOffset":1248,
			"target":34963
		},
		{
			"buffer":0,
			"byteLength":4584,
			"byteOffset":1320,
			"target":34962
		},
		{
			"buffer":0,
			"byteLength":4584,
			"byteOffset":5904,
			"target":34962
		},
		{
			"buffer":0,
			"byteLength":3056,
			"byteOffset":10488,
			"target":34962
		},
		{
			"buffer":0,
			"byteLength":4584,
			"byteOffset":13544,
			"target":34962
		},
		{
			"buffer":0,
			"byteLength":3056,
			"byteOffset":18128,
			"target":34962
		},
		{
			"buffer":0,
			"byteLength":1020,
			"byteOffset":21184,
			"target":34963
		},
		{
			"buffer":0,
			"byteLength":288,
			"byteOffset":22204,
			"target":34962
		},
		{
			"buffer":0,
			"byteLength":288,
			"byteOffset":22492,
			"target":34962
		},
		{
			"buffer":0,
			"byteLength":192,
			"byteOffset":22780,
			"target":34962
		},
		{
			"buffer":0,
			"byteLength":288,
			"byteOffset":22972,
			"target":34962
		},
		{
			"buffer":0,
			"byteLength":192,
			"byteOffset":23260,
			"target":34962
		},
		{
			"buffer":0,
			"byteLength":72,
			"byteOffset":23452,
			"target":34963
		},
		{
			"buffer":0,
			"byteLength":588,
			"byteOffset":23524,
			"target":34962
		},
		{
			"buffer":0,
			"byteLength":588,
			"byteOffset":24112,
			"target":34962
		},
		{
			"buffer":0,
			"byteLength":392,
			"byteOffset":24700,
			"target":34962
		},
		{
			"buffer":0,
			"byteLength":588,
			"byteOffset":25092,
			"target":34962
		},
		{
			"buffer":0,
			"byteLength":392,
			"byteOffset":25680,
			"target":34962
		},
		{
			"buffer":0,
			"byteLength":192,
			"byteOffset":26072,
			"target":34963
		},
		{
			"buffer":0,
			"byteLength":288,
			"byteOffset":26264,
			"target":34962
		},
		{
			"buffer":0,
			"byteLength":288,
			"byteOffset":26552,
			"target":34962
		},
		{
			"buffer":0,
			"byteLength":192,
			"byteOffset":26840,
			"target":34962
		},
		{
			"buffer":0,
			"byteLength":288,
			"byteOffset":27032,
			"target":34962
		},
		{
			"buffer":0,
			"byteLength":192,
			"byteOffset":27320,
			"target":34962
		},
		{
			"buffer":0,
			"byteLength":72,
			"byteOffset":27512,
			"target":34963
		},
		{
			"buffer":0,
			"byteLength":288,
			"byteOffset":27584,
			"target":34962
		},
		{
			"buffer":0,
			"byteLength":288,
			"byteOffset":27872,
			"target":34962
		},
		{
			"buffer":0,
			"byteLength":192,
			"byteOffset":28160,
			"target":34962
		},
		{
			"buffer":0,
			"byteLength":288,
			"byteOffset":28352,
			"target":34962
		},
		{
			"buffer":0,
			"byteLength":192,
			"byteOffset":28640,
			"target":34962
		},
		{
			"buffer":0,
			"byteLength":288,
			"byteOffset":28832,
			"target":34962
		},
		{
			"buffer":0,
			"byteLength":288,
			"byteOffset":29120,
			"target":34962
		},
		{
			"buffer":0,
			"byteLength":192,
			"byteOffset":29408,
			"target":34962
		},
		{
			"buffer":0,
			"byteLength":288,
			"byteOffset":29600,
			"target":34962
		},
		{
			"buffer":0,
			"byteLength":192,
			"byteOffset":29888,
			"target":34962
		},
		{
			"buffer":0,
			"byteLength":72,
			"byteOffset":30080,
			"target":34963
		},
		{
			"buffer":0,
			"byteLength":3816,
			"byteOffset":30152,
			"target":34962
		},
		{
			"buffer":0,
			"byteLength":3816,
			"byteOffset":33968,
			"target":34962
		},
		{
			"buffer":0,
			"byteLength":2544,
			"byteOffset":37784,
			"target":34962
		},
		{
			"buffer":0,
			"byteLength":3816,
			"byteOffset":40328,
			"target":34962
		},
		{
			"buffer":0,
			"byteLength":2544,
			"byteOffset":44144,
			"target":34962
		},
		{
			"buffer":0,
			"byteLength":1224,
			"byteOffset":46688,
			"target":34963
		},
		{
			"buffer":0,
			"byteLength":600,
			"byteOffset":47912,
			"target":34962
		},
		{
			"buffer":0,
			"byteLength":600,
			"byteOffset":48512,
			"target":34962
		},
		{
			"buffer":0,
			"byteLength":400,
			"byteOffset":49112,
			"target":34962
		},
		{
			"buffer":0,
			"byteLength":600,
			"byteOffset":49512,
			"target":34962
		},
		{
			"buffer":0,
			"byteLength":400,
			"byteOffset":50112,
			"target":34962
		},
		{
			"buffer":0,
			"byteLength":132,
			"byteOffset":50512,
			"target":34963
		}
	],
	"samplers":[
		{
			"magFilter":9729,
			"minFilter":9987
		}
	],
	"buffers":[
		{
			"byteLength":50644,
			"uri":"room.bin"
		}
	]
}
