{
	"asset":{
		"generator":"Khronos glTF Blender I/O v4.4.56",
		"version":"2.0"
	},
	"scene":0,
	"scenes":[
		{
			"name":"Scene",
			"nodes":[
				0
			]
		}
	],
	"nodes":[
		{
			"mesh":0,
			"name":"leipoldtia_schultzei_Large_LOD0",
			"scale":[
				0.4548720121383667,
				0.454872190952301,
				0.4548720121383667
			]
		}
	],
	"materials":[
		{
			"alphaMode":"BLEND",
			"doubleSided":true,
			"name":"leipoldtia_schultzei",
			"normalTexture":{
				"index":0
			},
			"pbrMetallicRoughness":{
				"baseColorTexture":{
					"index":1
				},
				"metallicFactor":0,
				"metallicRoughnessTexture":{
					"index":2
				}
			}
		}
	],
	"meshes":[
		{
			"name":"Plane.053",
			"primitives":[
				{
					"attributes":{
						"POSITION":0,
						"NORMAL":1,
						"TEXCOORD_0":2
					},
					"indices":3,
					"material":0
				}
			]
		}
	],
	"textures":[
		{
			"sampler":0,
			"source":0
		},
		{
			"sampler":0,
			"source":1
		},
		{
			"sampler":0,
			"source":2
		}
	],
	"images":[
		{
			"mimeType":"image/png",
			"name":"leipoldtia_schultzei_nor_gl",
			"uri":"leipoldtia_schultzei_nor_gl.png"
		},
		{
			"mimeType":"image/png",
			"name":"leipoldtia_schultzei_diff-leipoldtia_schultzei_mask",
			"uri":"leipoldtia_schultzei_diff-leipoldtia_schultzei_mask.png"
		},
		{
			"mimeType":"image/png",
			"name":"leipoldtia_schultzei_rough",
			"uri":"leipoldtia_schultzei_rough.png"
		}
	],
	"accessors":[
		{
			"bufferView":0,
			"componentType":5126,
			"count":149348,
			"max":[
				0.803668737411499,
				0.6369138956069946,
				0.7349052429199219
			],
			"min":[
				-1.2506884336471558,
				-0.03939099609851837,
				-1.0453417301177979
			],
			"type":"VEC3"
		},
		{
			"bufferView":1,
			"componentType":5126,
			"count":149348,
			"type":"VEC3"
		},
		{
			"bufferView":2,
			"componentType":5126,
			"count":149348,
			"type":"VEC2"
		},
		{
			"bufferView":3,
			"componentType":5125,
			"count":686976,
			"type":"SCALAR"
		}
	],
	"bufferViews":[
		{
			"buffer":0,
			"byteLength":1792176,
			"byteOffset":0,
			"target":34962
		},
		{
			"buffer":0,
			"byteLength":1792176,
			"byteOffset":1792176,
			"target":34962
		},
		{
			"buffer":0,
			"byteLength":1194784,
			"byteOffset":3584352,
			"target":34962
		},
		{
			"buffer":0,
			"byteLength":2747904,
			"byteOffset":4779136,
			"target":34963
		}
	],
	"samplers":[
		{
			"magFilter":9729,
			"minFilter":9987
		}
	],
	"buffers":[
		{
			"byteLength":7527040,
			"uri":"flower.bin"
		}
	]
}
