{
	"asset":{
		"generator":"Khronos glTF Blender I/O v4.4.56",
		"version":"2.0"
	},
	"scene":0,
	"scenes":[
		{
			"name":"Scene",
			"nodes":[
				0
			]
		}
	],
	"nodes":[
		{
			"mesh":0,
			"name":"_8f3e_VarE_LOD0",
			"rotation":[
				0.7071068286895752,
				0,
				0,
				0.7071068286895752
			],
			"scale":[
				0.009999999776482582,
				0.009999999776482582,
				0.009999999776482582
			]
		}
	],
	"materials":[
		{
			"doubleSided":true,
			"name":"Atlas.020",
			"pbrMetallicRoughness":{
				"baseColorFactor":[
					0.7568627595901489,
					0.7568627595901489,
					0.7568627595901489,
					1
				],
				"metallicFactor":0,
				"roughnessFactor":0.5527864098548889
			}
		}
	],
	"meshes":[
		{
			"name":"_8f3e_VarE_LOD0.001",
			"primitives":[
				{
					"attributes":{
						"POSITION":0,
						"NORMAL":1,
						"TEXCOORD_0":2,
						"COLOR_0":3,
						"COLOR_1":4
					},
					"indices":5,
					"material":0
				}
			]
		}
	],
	"accessors":[
		{
			"bufferView":0,
			"componentType":5126,
			"count":2066,
			"max":[
				17.908971786499023,
				16.36235809326172,
				4.063581466674805
			],
			"min":[
				-16.39042854309082,
				-12.429150581359863,
				-24.829511642456055
			],
			"type":"VEC3"
		},
		{
			"bufferView":1,
			"componentType":5126,
			"count":2066,
			"type":"VEC3"
		},
		{
			"bufferView":2,
			"componentType":5126,
			"count":2066,
			"type":"VEC2"
		},
		{
			"bufferView":3,
			"componentType":5121,
			"count":2066,
			"normalized":true,
			"type":"VEC4"
		},
		{
			"bufferView":4,
			"componentType":5123,
			"count":2066,
			"normalized":true,
			"type":"VEC4"
		},
		{
			"bufferView":5,
			"componentType":5123,
			"count":6636,
			"type":"SCALAR"
		}
	],
	"bufferViews":[
		{
			"buffer":0,
			"byteLength":24792,
			"byteOffset":0,
			"target":34962
		},
		{
			"buffer":0,
			"byteLength":24792,
			"byteOffset":24792,
			"target":34962
		},
		{
			"buffer":0,
			"byteLength":16528,
			"byteOffset":49584,
			"target":34962
		},
		{
			"buffer":0,
			"byteLength":8264,
			"byteOffset":66112,
			"target":34962
		},
		{
			"buffer":0,
			"byteLength":16528,
			"byteOffset":74376,
			"target":34962
		},
		{
			"buffer":0,
			"byteLength":13272,
			"byteOffset":90904,
			"target":34963
		}
	],
	"buffers":[
		{
			"byteLength":104176,
			"uri":"grass.bin"
		}
	]
}
