{
	"asset":{
		"generator":"Khronos glTF Blender I/O v4.4.56",
		"version":"2.0"
	},
	"scene":0,
	"scenes":[
		{
			"name":"Scene",
			"nodes":[
				0
			]
		}
	],
	"nodes":[
		{
			"mesh":0,
			"name":"Plane",
			"scale":[
				10,
				10,
				10
			]
		}
	],
	"materials":[
		{
			"doubleSided":true,
			"name":"Material.001",
			"normalTexture":{
				"index":0
			},
			"pbrMetallicRoughness":{
				"baseColorTexture":{
					"index":1
				},
				"metallicFactor":0,
				"metallicRoughnessTexture":{
					"index":2
				}
			}
		}
	],
	"meshes":[
		{
			"name":"Plane",
			"primitives":[
				{
					"attributes":{
						"POSITION":0,
						"NORMAL":1,
						"TEXCOORD_0":2
					},
					"indices":3,
					"material":0
				}
			]
		}
	],
	"textures":[
		{
			"sampler":0,
			"source":0
		},
		{
			"sampler":0,
			"source":1
		},
		{
			"sampler":0,
			"source":2
		}
	],
	"images":[
		{
			"mimeType":"image/jpeg",
			"name":"forest_leaves_02_nor_gl_4k",
			"uri":"forest_leaves_02_nor_gl_4k.jpg"
		},
		{
			"mimeType":"image/jpeg",
			"name":"forest_leaves_02_diffuse_4k",
			"uri":"forest_leaves_02_diffuse_4k.jpg"
		},
		{
			"mimeType":"image/png",
			"name":"forest_leaves_02_rough_4k",
			"uri":"forest_leaves_02_rough_4k.png"
		}
	],
	"accessors":[
		{
			"bufferView":0,
			"componentType":5126,
			"count":6202,
			"max":[
				1.1037042140960693,
				0.33505257964134216,
				1.072774887084961
			],
			"min":[
				-1.055792212486267,
				-0.2991587817668915,
				-1.0198262929916382
			],
			"type":"VEC3"
		},
		{
			"bufferView":1,
			"componentType":5126,
			"count":6202,
			"type":"VEC3"
		},
		{
			"bufferView":2,
			"componentType":5126,
			"count":6202,
			"type":"VEC2"
		},
		{
			"bufferView":3,
			"componentType":5123,
			"count":30738,
			"type":"SCALAR"
		}
	],
	"bufferViews":[
		{
			"buffer":0,
			"byteLength":74424,
			"byteOffset":0,
			"target":34962
		},
		{
			"buffer":0,
			"byteLength":74424,
			"byteOffset":74424,
			"target":34962
		},
		{
			"buffer":0,
			"byteLength":49616,
			"byteOffset":148848,
			"target":34962
		},
		{
			"buffer":0,
			"byteLength":61476,
			"byteOffset":198464,
			"target":34963
		}
	],
	"samplers":[
		{
			"magFilter":9729,
			"minFilter":9987
		}
	],
	"buffers":[
		{
			"byteLength":259940,
			"uri":"grassplane.bin"
		}
	]
}
