{
	"asset":{
		"generator":"Khronos glTF Blender I/O v4.5.47",
		"version":"2.0"
	},
	"extensionsUsed":[
		"KHR_materials_specular",
		"KHR_materials_ior"
	],
	"scene":0,
	"scenes":[
		{
			"name":"Scene",
			"nodes":[
				0
			]
		}
	],
	"nodes":[
		{
			"mesh":0,
			"name":"Plane",
			"scale":[
				500,
				500,
				500
			]
		}
	],
	"materials":[
		{
			"doubleSided":true,
			"extensions":{
				"KHR_materials_specular":{
					"specularTexture":{
						"index":0
					}
				},
				"KHR_materials_ior":{
					"ior":1.4500000476837158
				}
			},
			"name":"rocky_terrain_02",
			"normalTexture":{
				"index":1
			},
			"pbrMetallicRoughness":{
				"baseColorTexture":{
					"index":2
				},
				"metallicFactor":0,
				"metallicRoughnessTexture":{
					"index":3
				}
			}
		}
	],
	"meshes":[
		{
			"name":"Plane",
			"primitives":[
				{
					"attributes":{
						"POSITION":0,
						"NORMAL":1,
						"TEXCOORD_0":2
					},
					"indices":3,
					"material":0
				}
			]
		}
	],
	"textures":[
		{
			"sampler":0,
			"source":0
		},
		{
			"sampler":0,
			"source":1
		},
		{
			"sampler":0,
			"source":2
		},
		{
			"sampler":0,
			"source":3
		}
	],
	"images":[
		{
			"mimeType":"image/png",
			"name":"rocky_terrain_02_spec_4k",
			"uri":"rocky_terrain_02_spec_4k.png"
		},
		{
			"mimeType":"image/png",
			"name":"rocky_terrain_02_nor_gl",
			"uri":"rocky_terrain_02_nor_gl.png"
		},
		{
			"mimeType":"image/jpeg",
			"name":"rocky_terrain_02_diff_4k",
			"uri":"rocky_terrain_02_diff_4k.jpg"
		},
		{
			"mimeType":"image/png",
			"name":"rocky_terrain_02_rough",
			"uri":"rocky_terrain_02_rough.png"
		}
	],
	"accessors":[
		{
			"bufferView":0,
			"componentType":5126,
			"count":1050625,
			"max":[
				1.0000014305114746,
				0.273234486579895,
				1.0000014305114746
			],
			"min":[
				-1.0000014305114746,
				0.15607702732086182,
				-1.0000016689300537
			],
			"type":"VEC3"
		},
		{
			"bufferView":1,
			"componentType":5126,
			"count":1050625,
			"type":"VEC3"
		},
		{
			"bufferView":2,
			"componentType":5126,
			"count":1050625,
			"type":"VEC2"
		},
		{
			"bufferView":3,
			"componentType":5125,
			"count":6291456,
			"type":"SCALAR"
		}
	],
	"bufferViews":[
		{
			"buffer":0,
			"byteLength":12607500,
			"byteOffset":0,
			"target":34962
		},
		{
			"buffer":0,
			"byteLength":12607500,
			"byteOffset":12607500,
			"target":34962
		},
		{
			"buffer":0,
			"byteLength":8405000,
			"byteOffset":25215000,
			"target":34962
		},
		{
			"buffer":0,
			"byteLength":25165824,
			"byteOffset":33620000,
			"target":34963
		}
	],
	"samplers":[
		{
			"magFilter":9729,
			"minFilter":9987
		}
	],
	"buffers":[
		{
			"byteLength":58785824,
			"uri":"grassbit.bin"
		}
	]
}
