{
	"asset":{
		"generator":"Khronos glTF Blender I/O v4.4.56",
		"version":"2.0"
	},
	"scene":0,
	"scenes":[
		{
			"name":"Scene",
			"nodes":[
				0
			]
		}
	],
	"nodes":[
		{
			"mesh":0,
			"name":"Circle"
		}
	],
	"materials":[
		{
			"doubleSided":true,
			"name":"Material.001",
			"normalTexture":{
				"index":0
			},
			"pbrMetallicRoughness":{
				"baseColorTexture":{
					"index":1
				},
				"metallicFactor":0,
				"metallicRoughnessTexture":{
					"index":2
				}
			}
		}
	],
	"meshes":[
		{
			"name":"Circle",
			"primitives":[
				{
					"attributes":{
						"POSITION":0,
						"NORMAL":1,
						"TEXCOORD_0":2
					},
					"indices":3,
					"material":0
				}
			]
		}
	],
	"textures":[
		{
			"sampler":0,
			"source":0
		},
		{
			"sampler":0,
			"source":1
		},
		{
			"sampler":0,
			"source":2
		}
	],
	"images":[
		{
			"mimeType":"image/jpeg",
			"name":"japanese_sycamore_nor_gl_4k",
			"uri":"japanese_sycamore_nor_gl_4k.jpg"
		},
		{
			"mimeType":"image/jpeg",
			"name":"japanese_sycamore_diff_4k",
			"uri":"japanese_sycamore_diff_4k.jpg"
		},
		{
			"mimeType":"image/png",
			"name":"japanese_sycamore_rough_4k",
			"uri":"japanese_sycamore_rough_4k.png"
		}
	],
	"accessors":[
		{
			"bufferView":0,
			"componentType":5126,
			"count":9925,
			"max":[
				1.1505272388458252,
				13.143985748291016,
				2.6976828575134277
			],
			"min":[
				-3.7880313396453857,
				-0.3360040485858917,
				-4.249843120574951
			],
			"type":"VEC3"
		},
		{
			"bufferView":1,
			"componentType":5126,
			"count":9925,
			"type":"VEC3"
		},
		{
			"bufferView":2,
			"componentType":5126,
			"count":9925,
			"type":"VEC2"
		},
		{
			"bufferView":3,
			"componentType":5123,
			"count":44916,
			"type":"SCALAR"
		}
	],
	"bufferViews":[
		{
			"buffer":0,
			"byteLength":119100,
			"byteOffset":0,
			"target":34962
		},
		{
			"buffer":0,
			"byteLength":119100,
			"byteOffset":119100,
			"target":34962
		},
		{
			"buffer":0,
			"byteLength":79400,
			"byteOffset":238200,
			"target":34962
		},
		{
			"buffer":0,
			"byteLength":89832,
			"byteOffset":317600,
			"target":34963
		}
	],
	"samplers":[
		{
			"magFilter":9729,
			"minFilter":9987
		}
	],
	"buffers":[
		{
			"byteLength":407432,
			"uri":"gumtree.bin"
		}
	]
}
