{
	"asset":{
		"generator":"Khronos glTF Blender I/O v4.4.56",
		"version":"2.0"
	},
	"scene":0,
	"scenes":[
		{
			"name":"Scene",
			"nodes":[
				0
			]
		}
	],
	"nodes":[
		{
			"mesh":0,
			"name":"Circle.001",
			"scale":[
				1.0699456930160522,
				1.0699456930160522,
				1.0699456930160522
			],
			"translation":[
				0,
				0.365701824426651,
				-0.8521379232406616
			]
		}
	],
	"materials":[
		{
			"doubleSided":true,
			"name":"Material",
			"pbrMetallicRoughness":{
				"baseColorTexture":{
					"index":0
				},
				"roughnessFactor":0.5025906562805176
			}
		}
	],
	"meshes":[
		{
			"name":"Circle.012",
			"primitives":[
				{
					"attributes":{
						"POSITION":0,
						"NORMAL":1,
						"TEXCOORD_0":2
					},
					"indices":3,
					"material":0
				}
			]
		}
	],
	"textures":[
		{
			"sampler":0,
			"source":0
		}
	],
	"images":[
		{
			"mimeType":"image/png",
			"name":"col",
			"uri":"col.png"
		}
	],
	"accessors":[
		{
			"bufferView":0,
			"componentType":5126,
			"count":1676,
			"max":[
				0.8156034350395203,
				-0.023660659790039062,
				1.0091708898544312
			],
			"min":[
				-0.9048448801040649,
				-0.8280396461486816,
				0.6115381717681885
			],
			"type":"VEC3"
		},
		{
			"bufferView":1,
			"componentType":5126,
			"count":1676,
			"type":"VEC3"
		},
		{
			"bufferView":2,
			"componentType":5126,
			"count":1676,
			"type":"VEC2"
		},
		{
			"bufferView":3,
			"componentType":5123,
			"count":3273,
			"type":"SCALAR"
		}
	],
	"bufferViews":[
		{
			"buffer":0,
			"byteLength":20112,
			"byteOffset":0,
			"target":34962
		},
		{
			"buffer":0,
			"byteLength":20112,
			"byteOffset":20112,
			"target":34962
		},
		{
			"buffer":0,
			"byteLength":13408,
			"byteOffset":40224,
			"target":34962
		},
		{
			"buffer":0,
			"byteLength":6546,
			"byteOffset":53632,
			"target":34963
		}
	],
	"samplers":[
		{
			"magFilter":9729,
			"minFilter":9987
		}
	],
	"buffers":[
		{
			"byteLength":60180,
			"uri":"MiniGun.bin"
		}
	]
}
