{
	"asset":{
		"generator":"Khronos glTF Blender I/O v4.4.56",
		"version":"2.0"
	},
	"scene":0,
	"scenes":[
		{
			"name":"Scene",
			"nodes":[
				0,
				1,
				2,
				3,
				4,
				5,
				6,
				7,
				8,
				9
			]
		}
	],
	"nodes":[
		{
			"name":"Empty",
			"rotation":[
				0.5,
				0.5,
				-0.5,
				0.5
			]
		},
		{
			"mesh":0,
			"name":"stock",
			"translation":[
				0,
				-0.17000000178813934,
				-1.2499998807907104
			]
		},
		{
			"mesh":1,
			"name":"base",
			"translation":[
				0,
				-0.17000000178813934,
				0.3500000238418579
			]
		},
		{
			"mesh":2,
			"name":"trigger",
			"scale":[
				0.10000002384185791,
				0.10000002384185791,
				0.10000002384185791
			],
			"translation":[
				0,
				-0.17000000178813934,
				-0.3020428419113159
			]
		},
		{
			"mesh":3,
			"name":"mag",
			"scale":[
				0.19999998807907104,
				0.19999998807907104,
				0.19999998807907104
			],
			"translation":[
				0,
				-0.350501149892807,
				0.05000000447034836
			]
		},
		{
			"mesh":4,
			"name":"point",
			"scale":[
				0.040000006556510925,
				0.040000006556510925,
				0.040000006556510925
			],
			"translation":[
				0,
				0.03999999165534973,
				1.8899999856948853
			]
		},
		{
			"mesh":5,
			"name":"barrel",
			"rotation":[
				-0.5,
				0.5,
				-0.5,
				0.5000000596046448
			],
			"scale":[
				0.10000002384185791,
				0.10000002384185791,
				0.10000002384185791
			],
			"translation":[
				0,
				0.10000000894069672,
				0.27000004053115845
			]
		},
		{
			"mesh":6,
			"name":"round nob",
			"rotation":[
				0.5,
				0.5,
				-0.5,
				0.5
			],
			"scale":[
				0.020000003278255463,
				0.020000003278255463,
				0.020000003278255463
			],
			"translation":[
				0,
				0.3911052644252777,
				-0.4643017053604126
			]
		},
		{
			"mesh":7,
			"name":"round scope base thingy",
			"scale":[
				0.07999999076128006,
				0.3999999761581421,
				0.3999999761581421
			],
			"translation":[
				0,
				0.1300000101327896,
				-0.14999999105930328
			]
		},
		{
			"mesh":8,
			"name":"scope base2",
			"scale":[
				0.023100007325410843,
				0.023100007325410843,
				0.023100007325410843
			],
			"translation":[
				-0.0060977935791015625,
				0.2536139190196991,
				-0.4643017649650574
			]
		}
	],
	"materials":[
		{
			"doubleSided":true,
			"name":"Material.001",
			"pbrMetallicRoughness":{
				"baseColorTexture":{
					"index":0
				},
				"metallicFactor":0,
				"roughnessFactor":0.5
			}
		}
	],
	"meshes":[
		{
			"name":"Cube.002",
			"primitives":[
				{
					"attributes":{
						"POSITION":0,
						"NORMAL":1,
						"TEXCOORD_0":2
					},
					"indices":3,
					"material":0
				}
			]
		},
		{
			"name":"Cube.001",
			"primitives":[
				{
					"attributes":{
						"POSITION":4,
						"NORMAL":5,
						"TEXCOORD_0":6
					},
					"indices":7,
					"material":0
				}
			]
		},
		{
			"name":"Cube.003",
			"primitives":[
				{
					"attributes":{
						"POSITION":8,
						"NORMAL":9,
						"TEXCOORD_0":10
					},
					"indices":11,
					"material":0
				}
			]
		},
		{
			"name":"Cube.004",
			"primitives":[
				{
					"attributes":{
						"POSITION":12,
						"NORMAL":13,
						"TEXCOORD_0":14
					},
					"indices":15,
					"material":0
				}
			]
		},
		{
			"name":"Cube.005",
			"primitives":[
				{
					"attributes":{
						"POSITION":16,
						"NORMAL":17,
						"TEXCOORD_0":18
					},
					"indices":19,
					"material":0
				}
			]
		},
		{
			"name":"Circle",
			"primitives":[
				{
					"attributes":{
						"POSITION":20,
						"NORMAL":21,
						"TEXCOORD_0":22
					},
					"indices":23,
					"material":0
				}
			]
		},
		{
			"name":"Circle.004",
			"primitives":[
				{
					"attributes":{
						"POSITION":24,
						"NORMAL":25,
						"TEXCOORD_0":26
					},
					"indices":27,
					"material":0
				}
			]
		},
		{
			"name":"Cube.007",
			"primitives":[
				{
					"attributes":{
						"POSITION":28,
						"NORMAL":29,
						"TEXCOORD_0":30
					},
					"indices":31,
					"material":0
				}
			]
		},
		{
			"name":"Circle.003",
			"primitives":[
				{
					"attributes":{
						"POSITION":32,
						"NORMAL":33,
						"TEXCOORD_0":34
					},
					"indices":35,
					"material":0
				}
			]
		}
	],
	"textures":[
		{
			"sampler":0,
			"source":0
		}
	],
	"images":[
		{
			"mimeType":"image/png",
			"name":"checker",
			"uri":"checker.png"
		}
	],
	"accessors":[
		{
			"bufferView":0,
			"componentType":5126,
			"count":80,
			"max":[
				0.04900000989437103,
				0.3505542576313019,
				0.6000000238418579
			],
			"min":[
				-0.04900000989437103,
				-0.2523641884326935,
				-0.6977955102920532
			],
			"type":"VEC3"
		},
		{
			"bufferView":1,
			"componentType":5126,
			"count":80,
			"type":"VEC3"
		},
		{
			"bufferView":2,
			"componentType":5126,
			"count":80,
			"type":"VEC2"
		},
		{
			"bufferView":3,
			"componentType":5123,
			"count":228,
			"type":"SCALAR"
		},
		{
			"bufferView":4,
			"componentType":5126,
			"count":844,
			"max":[
				0.10001858323812485,
				0.3608934283256531,
				-0.10000002384185791
			],
			"min":[
				-0.10001858323812485,
				-0.4131316542625427,
				-1.136561393737793
			],
			"type":"VEC3"
		},
		{
			"bufferView":5,
			"componentType":5126,
			"count":844,
			"type":"VEC3"
		},
		{
			"bufferView":6,
			"componentType":5126,
			"count":844,
			"type":"VEC2"
		},
		{
			"bufferView":7,
			"componentType":5123,
			"count":3012,
			"type":"SCALAR"
		},
		{
			"bufferView":8,
			"componentType":5126,
			"count":92,
			"max":[
				0.10000002384185791,
				0.5000001192092896,
				0.48351699113845825
			],
			"min":[
				-0.10000002384185791,
				-0.9000000357627869,
				-0.1999998390674591
			],
			"type":"VEC3"
		},
		{
			"bufferView":9,
			"componentType":5126,
			"count":92,
			"type":"VEC3"
		},
		{
			"bufferView":10,
			"componentType":5126,
			"count":92,
			"type":"VEC2"
		},
		{
			"bufferView":11,
			"componentType":5123,
			"count":276,
			"type":"SCALAR"
		},
		{
			"bufferView":12,
			"componentType":5126,
			"count":98,
			"max":[
				0.20000004768371582,
				0.9197269082069397,
				0.9499999284744263
			],
			"min":[
				-0.20000004768371582,
				-2,
				-0.8253215551376343
			],
			"type":"VEC3"
		},
		{
			"bufferView":13,
			"componentType":5126,
			"count":98,
			"type":"VEC3"
		},
		{
			"bufferView":14,
			"componentType":5126,
			"count":98,
			"type":"VEC2"
		},
		{
			"bufferView":15,
			"componentType":5123,
			"count":252,
			"type":"SCALAR"
		},
		{
			"bufferView":16,
			"componentType":5126,
			"count":820,
			"max":[
				1.0000001192092896,
				9.875000953674316,
				1.2500039339065552
			],
			"min":[
				-1.0000001192092896,
				-0.7500001192092896,
				-5.195955753326416
			],
			"type":"VEC3"
		},
		{
			"bufferView":17,
			"componentType":5126,
			"count":820,
			"type":"VEC3"
		},
		{
			"bufferView":18,
			"componentType":5126,
			"count":820,
			"type":"VEC2"
		},
		{
			"bufferView":19,
			"componentType":5123,
			"count":3084,
			"type":"SCALAR"
		},
		{
			"bufferView":20,
			"componentType":5126,
			"count":1169,
			"max":[
				1.3999998569488525,
				0.20000016689300537,
				1.4000000953674316
			],
			"min":[
				-1.4000003337860107,
				-23.49999237060547,
				-1.399999976158142
			],
			"type":"VEC3"
		},
		{
			"bufferView":21,
			"componentType":5126,
			"count":1169,
			"type":"VEC3"
		},
		{
			"bufferView":22,
			"componentType":5126,
			"count":1169,
			"type":"VEC2"
		},
		{
			"bufferView":23,
			"componentType":5123,
			"count":3738,
			"type":"SCALAR"
		},
		{
			"bufferView":24,
			"componentType":5126,
			"count":386,
			"max":[
				1,
				1.5000001192092896,
				1
			],
			"min":[
				-0.9999999403953552,
				-1.5000001192092896,
				-0.9999999403953552
			],
			"type":"VEC3"
		},
		{
			"bufferView":25,
			"componentType":5126,
			"count":386,
			"type":"VEC3"
		},
		{
			"bufferView":26,
			"componentType":5126,
			"count":386,
			"type":"VEC2"
		},
		{
			"bufferView":27,
			"componentType":5123,
			"count":1380,
			"type":"SCALAR"
		},
		{
			"bufferView":28,
			"componentType":5126,
			"count":206,
			"max":[
				0.2999999225139618,
				0.7499996423721313,
				0.9749997854232788
			],
			"min":[
				-0.2999999225139618,
				0.1522335410118103,
				-1.2225168943405151
			],
			"type":"VEC3"
		},
		{
			"bufferView":29,
			"componentType":5126,
			"count":206,
			"type":"VEC3"
		},
		{
			"bufferView":30,
			"componentType":5126,
			"count":206,
			"type":"VEC2"
		},
		{
			"bufferView":31,
			"componentType":5123,
			"count":552,
			"type":"SCALAR"
		},
		{
			"bufferView":32,
			"componentType":5126,
			"count":186,
			"max":[
				1,
				7.878788948059082,
				2.6876912117004395
			],
			"min":[
				-0.47205260396003723,
				0.49745845794677734,
				-2.676257371902466
			],
			"type":"VEC3"
		},
		{
			"bufferView":33,
			"componentType":5126,
			"count":186,
			"type":"VEC3"
		},
		{
			"bufferView":34,
			"componentType":5126,
			"count":186,
			"type":"VEC2"
		},
		{
			"bufferView":35,
			"componentType":5123,
			"count":528,
			"type":"SCALAR"
		}
	],
	"bufferViews":[
		{
			"buffer":0,
			"byteLength":960,
			"byteOffset":0,
			"target":34962
		},
		{
			"buffer":0,
			"byteLength":960,
			"byteOffset":960,
			"target":34962
		},
		{
			"buffer":0,
			"byteLength":640,
			"byteOffset":1920,
			"target":34962
		},
		{
			"buffer":0,
			"byteLength":456,
			"byteOffset":2560,
			"target":34963
		},
		{
			"buffer":0,
			"byteLength":10128,
			"byteOffset":3016,
			"target":34962
		},
		{
			"buffer":0,
			"byteLength":10128,
			"byteOffset":13144,
			"target":34962
		},
		{
			"buffer":0,
			"byteLength":6752,
			"byteOffset":23272,
			"target":34962
		},
		{
			"buffer":0,
			"byteLength":6024,
			"byteOffset":30024,
			"target":34963
		},
		{
			"buffer":0,
			"byteLength":1104,
			"byteOffset":36048,
			"target":34962
		},
		{
			"buffer":0,
			"byteLength":1104,
			"byteOffset":37152,
			"target":34962
		},
		{
			"buffer":0,
			"byteLength":736,
			"byteOffset":38256,
			"target":34962
		},
		{
			"buffer":0,
			"byteLength":552,
			"byteOffset":38992,
			"target":34963
		},
		{
			"buffer":0,
			"byteLength":1176,
			"byteOffset":39544,
			"target":34962
		},
		{
			"buffer":0,
			"byteLength":1176,
			"byteOffset":40720,
			"target":34962
		},
		{
			"buffer":0,
			"byteLength":784,
			"byteOffset":41896,
			"target":34962
		},
		{
			"buffer":0,
			"byteLength":504,
			"byteOffset":42680,
			"target":34963
		},
		{
			"buffer":0,
			"byteLength":9840,
			"byteOffset":43184,
			"target":34962
		},
		{
			"buffer":0,
			"byteLength":9840,
			"byteOffset":53024,
			"target":34962
		},
		{
			"buffer":0,
			"byteLength":6560,
			"byteOffset":62864,
			"target":34962
		},
		{
			"buffer":0,
			"byteLength":6168,
			"byteOffset":69424,
			"target":34963
		},
		{
			"buffer":0,
			"byteLength":14028,
			"byteOffset":75592,
			"target":34962
		},
		{
			"buffer":0,
			"byteLength":14028,
			"byteOffset":89620,
			"target":34962
		},
		{
			"buffer":0,
			"byteLength":9352,
			"byteOffset":103648,
			"target":34962
		},
		{
			"buffer":0,
			"byteLength":7476,
			"byteOffset":113000,
			"target":34963
		},
		{
			"buffer":0,
			"byteLength":4632,
			"byteOffset":120476,
			"target":34962
		},
		{
			"buffer":0,
			"byteLength":4632,
			"byteOffset":125108,
			"target":34962
		},
		{
			"buffer":0,
			"byteLength":3088,
			"byteOffset":129740,
			"target":34962
		},
		{
			"buffer":0,
			"byteLength":2760,
			"byteOffset":132828,
			"target":34963
		},
		{
			"buffer":0,
			"byteLength":2472,
			"byteOffset":135588,
			"target":34962
		},
		{
			"buffer":0,
			"byteLength":2472,
			"byteOffset":138060,
			"target":34962
		},
		{
			"buffer":0,
			"byteLength":1648,
			"byteOffset":140532,
			"target":34962
		},
		{
			"buffer":0,
			"byteLength":1104,
			"byteOffset":142180,
			"target":34963
		},
		{
			"buffer":0,
			"byteLength":2232,
			"byteOffset":143284,
			"target":34962
		},
		{
			"buffer":0,
			"byteLength":2232,
			"byteOffset":145516,
			"target":34962
		},
		{
			"buffer":0,
			"byteLength":1488,
			"byteOffset":147748,
			"target":34962
		},
		{
			"buffer":0,
			"byteLength":1056,
			"byteOffset":149236,
			"target":34963
		}
	],
	"samplers":[
		{
			"magFilter":9728,
			"minFilter":9984
		}
	],
	"buffers":[
		{
			"byteLength":150292,
			"uri":"ar.bin"
		}
	]
}
