{
	"asset":{
		"generator":"Khronos glTF Blender I/O v4.4.56",
		"version":"2.0"
	},
	"scene":0,
	"scenes":[
		{
			"name":"Scene",
			"nodes":[
				0,
				1,
				2
			]
		}
	],
	"nodes":[
		{
			"mesh":0,
			"name":"base",
			"translation":[
				0,
				-0.17000000178813934,
				0.3500000238418579
			]
		},
		{
			"mesh":1,
			"name":"mag",
			"scale":[
				0.19999998807907104,
				0.19999998807907104,
				0.19999998807907104
			],
			"translation":[
				0,
				-0.350501149892807,
				0.05000000447034836
			]
		},
		{
			"mesh":2,
			"name":"trigger",
			"scale":[
				0.10000002384185791,
				0.10000002384185791,
				0.10000002384185791
			],
			"translation":[
				0,
				-0.17000000178813934,
				-0.3020428419113159
			]
		}
	],
	"materials":[
		{
			"doubleSided":true,
			"name":"Material.006",
			"normalTexture":{
				"index":0
			},
			"pbrMetallicRoughness":{
				"baseColorTexture":{
					"index":1
				},
				"metallicFactor":0,
				"metallicRoughnessTexture":{
					"index":2
				}
			}
		}
	],
	"meshes":[
		{
			"name":"Cube.001",
			"primitives":[
				{
					"attributes":{
						"POSITION":0,
						"NORMAL":1,
						"TEXCOORD_0":2
					},
					"indices":3,
					"material":0
				}
			]
		},
		{
			"name":"Cube.004",
			"primitives":[
				{
					"attributes":{
						"POSITION":4,
						"NORMAL":5,
						"TEXCOORD_0":6
					},
					"indices":7,
					"material":0
				}
			]
		},
		{
			"name":"Cube.003",
			"primitives":[
				{
					"attributes":{
						"POSITION":8,
						"NORMAL":9,
						"TEXCOORD_0":10
					},
					"indices":11,
					"material":0
				}
			]
		}
	],
	"textures":[
		{
			"sampler":0,
			"source":0
		},
		{
			"sampler":0,
			"source":1
		},
		{
			"sampler":0,
			"source":2
		}
	],
	"images":[
		{
			"mimeType":"image/png",
			"name":"baked",
			"uri":"baked.png"
		},
		{
			"mimeType":"image/png",
			"name":"bakedDIFGun",
			"uri":"bakedDIFGun.png"
		},
		{
			"mimeType":"image/png",
			"name":"bakedSPECGun",
			"uri":"bakedSPECGun.png"
		}
	],
	"accessors":[
		{
			"bufferView":0,
			"componentType":5126,
			"count":4039,
			"max":[
				0.14000006020069122,
				0.6056140065193176,
				2.2699999809265137
			],
			"min":[
				-0.14000004529953003,
				-0.4131316542625427,
				-2.297795295715332
			],
			"type":"VEC3"
		},
		{
			"bufferView":1,
			"componentType":5126,
			"count":4039,
			"type":"VEC3"
		},
		{
			"bufferView":2,
			"componentType":5126,
			"count":4039,
			"type":"VEC2"
		},
		{
			"bufferView":3,
			"componentType":5123,
			"count":12318,
			"type":"SCALAR"
		},
		{
			"bufferView":4,
			"componentType":5126,
			"count":98,
			"max":[
				0.20000004768371582,
				0.9197269082069397,
				0.9499999284744263
			],
			"min":[
				-0.20000004768371582,
				-2,
				-0.8253215551376343
			],
			"type":"VEC3"
		},
		{
			"bufferView":5,
			"componentType":5126,
			"count":98,
			"type":"VEC3"
		},
		{
			"bufferView":6,
			"componentType":5126,
			"count":98,
			"type":"VEC2"
		},
		{
			"bufferView":7,
			"componentType":5123,
			"count":252,
			"type":"SCALAR"
		},
		{
			"bufferView":8,
			"componentType":5126,
			"count":92,
			"max":[
				0.10000002384185791,
				0.5000001192092896,
				0.48351699113845825
			],
			"min":[
				-0.10000002384185791,
				-0.9000000357627869,
				-0.1999998390674591
			],
			"type":"VEC3"
		},
		{
			"bufferView":9,
			"componentType":5126,
			"count":92,
			"type":"VEC3"
		},
		{
			"bufferView":10,
			"componentType":5126,
			"count":92,
			"type":"VEC2"
		},
		{
			"bufferView":11,
			"componentType":5123,
			"count":276,
			"type":"SCALAR"
		}
	],
	"bufferViews":[
		{
			"buffer":0,
			"byteLength":48468,
			"byteOffset":0,
			"target":34962
		},
		{
			"buffer":0,
			"byteLength":48468,
			"byteOffset":48468,
			"target":34962
		},
		{
			"buffer":0,
			"byteLength":32312,
			"byteOffset":96936,
			"target":34962
		},
		{
			"buffer":0,
			"byteLength":24636,
			"byteOffset":129248,
			"target":34963
		},
		{
			"buffer":0,
			"byteLength":1176,
			"byteOffset":153884,
			"target":34962
		},
		{
			"buffer":0,
			"byteLength":1176,
			"byteOffset":155060,
			"target":34962
		},
		{
			"buffer":0,
			"byteLength":784,
			"byteOffset":156236,
			"target":34962
		},
		{
			"buffer":0,
			"byteLength":504,
			"byteOffset":157020,
			"target":34963
		},
		{
			"buffer":0,
			"byteLength":1104,
			"byteOffset":157524,
			"target":34962
		},
		{
			"buffer":0,
			"byteLength":1104,
			"byteOffset":158628,
			"target":34962
		},
		{
			"buffer":0,
			"byteLength":736,
			"byteOffset":159732,
			"target":34962
		},
		{
			"buffer":0,
			"byteLength":552,
			"byteOffset":160468,
			"target":34963
		}
	],
	"samplers":[
		{
			"magFilter":9729,
			"minFilter":9987
		}
	],
	"buffers":[
		{
			"byteLength":161020,
			"uri":"m16baked.bin"
		}
	]
}
