{
  "accessors": [
    {
      "bufferView": 2,
      "componentType": 5126,
      "count": 6696,
      "max": [
        0.5675470232963562,
        0.5807629823684692,
        7.624180793762207
      ],
      "min": [
        -0.6539750099182129,
        -0.5811139941215515,
        7.531374931335449
      ],
      "type": "VEC3"
    },
    {
      "bufferView": 2,
      "byteOffset": 80352,
      "componentType": 5126,
      "count": 6696,
      "max": [
        0.9999955892562866,
        0.9999994039535522,
        1.0
      ],
      "min": [
        -1.0,
        -0.9999339580535889,
        -1.0
      ],
      "type": "VEC3"
    },
    {
      "bufferView": 1,
      "componentType": 5126,
      "count": 6696,
      "max": [
        0.8749939799308777,
        1.0
      ],
      "min": [
        0.125,
        0.0
      ],
      "type": "VEC2"
    },
    {
      "bufferView": 0,
      "componentType": 5125,
      "count": 35904,
      "type": "SCALAR"
    },
    {
      "bufferView": 2,
      "byteOffset": 160704,
      "componentType": 5126,
      "count": 330,
      "max": [
        2.0277600288391113,
        2.156402111053467,
        7.503110885620117
      ],
      "min": [
        -2.194920063018799,
        -2.066277027130127,
        0.44314301013946533
      ],
      "type": "VEC3"
    },
    {
      "bufferView": 2,
      "byteOffset": 164664,
      "componentType": 5126,
      "count": 330,
      "max": [
        0.9961203336715698,
        0.9961203336715698,
        0.4178151488304138
      ],
      "min": [
        -0.9961203336715698,
        -0.9961203336715698,
        -0.4346100091934204
      ],
      "type": "VEC3"
    },
    {
      "bufferView": 1,
      "byteOffset": 53568,
      "componentType": 5126,
      "count": 330,
      "max": [
        1.4460639953613281,
        0.9866470098495483
      ],
      "min": [
        0.4482469856739044,
        0.005927999969571829
      ],
      "type": "VEC2"
    },
    {
      "bufferView": 0,
      "byteOffset": 143616,
      "componentType": 5125,
      "count": 1728,
      "type": "SCALAR"
    },
    {
      "bufferView": 2,
      "byteOffset": 168624,
      "componentType": 5126,
      "count": 6165,
      "max": [
        2.0277600288391113,
        2.156402111053467,
        7.662373065948486
      ],
      "min": [
        -2.194920063018799,
        -2.066277027130127,
        0.001680999994277954
      ],
      "type": "VEC3"
    },
    {
      "bufferView": 2,
      "byteOffset": 242604,
      "componentType": 5126,
      "count": 6165,
      "max": [
        0.9998883008956909,
        0.9999097585678101,
        1.0
      ],
      "min": [
        -0.9998883008956909,
        -0.9999097585678101,
        -0.999983549118042
      ],
      "type": "VEC3"
    },
    {
      "bufferView": 1,
      "byteOffset": 56208,
      "componentType": 5126,
      "count": 6165,
      "max": [
        1.0,
        1.0
      ],
      "min": [
        0.0,
        0.0
      ],
      "type": "VEC2"
    },
    {
      "bufferView": 0,
      "byteOffset": 150528,
      "componentType": 5125,
      "count": 21978,
      "type": "SCALAR"
    }
  ],
  "asset": {
    "extras": {
      "author": "nhugabriel (https://sketchfab.com/nhugabriel)",
      "license": "CC-BY-4.0 (http://creativecommons.org/licenses/by/4.0/)",
      "source": "https://sketchfab.com/3d-models/pepsi-can-d8565343f2ce4d45a0cb228ad0add7e2",
      "title": "pepsi can"
    },
    "generator": "Sketchfab-16.59.0",
    "version": "2.0"
  },
  "bufferViews": [
    {
      "buffer": 0,
      "byteLength": 238440,
      "name": "floatBufferViews",
      "target": 34963
    },
    {
      "buffer": 0,
      "byteLength": 105528,
      "byteOffset": 238440,
      "byteStride": 8,
      "name": "floatBufferViews",
      "target": 34962
    },
    {
      "buffer": 0,
      "byteLength": 316584,
      "byteOffset": 343968,
      "byteStride": 12,
      "name": "floatBufferViews",
      "target": 34962
    }
  ],
  "buffers": [
    {
      "byteLength": 660552,
      "uri": "scene.bin"
    }
  ],
  "extensionsUsed": [
    "KHR_materials_specular"
  ],
  "images": [
    {
      "uri": "textures/Rotulo_baseColor.png"
    }
  ],
  "materials": [
    {
      "doubleSided": true,
      "extensions": {
        "KHR_materials_specular": {
          "specularColorFactor": [
            1.0,
            1.0,
            1.0
          ],
          "specularFactor": 0.253623
        }
      },
      "name": "Cromo",
      "pbrMetallicRoughness": {
        "roughnessFactor": 0.254
      }
    },
    {
      "doubleSided": true,
      "extensions": {
        "KHR_materials_specular": {
          "specularColorFactor": [
            1.0,
            1.0,
            1.0
          ],
          "specularFactor": 0.181159
        }
      },
      "name": "Lacre",
      "pbrMetallicRoughness": {
        "baseColorFactor": [
          0.02415763244850478,
          0.11697066775851106,
          0.7991027380144086,
          1.0
        ],
        "metallicFactor": 0.869565,
        "roughnessFactor": 0.26666747936755614
      }
    },
    {
      "doubleSided": true,
      "extensions": {
        "KHR_materials_specular": {
          "specularColorFactor": [
            1.0,
            1.0,
            1.0
          ],
          "specularFactor": 0.130435
        }
      },
      "name": "Rotulo",
      "pbrMetallicRoughness": {
        "baseColorTexture": {
          "index": 0
        },
        "metallicFactor": 0.898551,
        "roughnessFactor": 0.130435
      }
    }
  ],
  "meshes": [
    {
      "name": "Object_0",
      "primitives": [
        {
          "attributes": {
            "NORMAL": 1,
            "POSITION": 0,
            "TEXCOORD_0": 2
          },
          "indices": 3,
          "material": 1,
          "mode": 4
        }
      ]
    },
    {
      "name": "Object_1",
      "primitives": [
        {
          "attributes": {
            "NORMAL": 5,
            "POSITION": 4,
            "TEXCOORD_0": 6
          },
          "indices": 7,
          "material": 2,
          "mode": 4
        }
      ]
    },
    {
      "name": "Object_2",
      "primitives": [
        {
          "attributes": {
            "NORMAL": 9,
            "POSITION": 8,
            "TEXCOORD_0": 10
          },
          "indices": 11,
          "material": 0,
          "mode": 4
        }
      ]
    }
  ],
  "nodes": [
    {
      "children": [
        1
      ],
      "matrix": [
        0.017594918608665466,
        0.0,
        0.0,
        0.0,
        0.0,
        3.906856751149205e-18,
        -0.017594918608665466,
        0.0,
        0.0,
        0.017594918608665466,
        3.906856751149205e-18,
        0.0,
        0.0,
        0.0,
        0.0,
        1.0
      ],
      "name": "Sketchfab_model"
    },
    {
      "children": [
        2,
        3,
        4
      ],
      "name": "Latinha de Pepsi.obj.cleaner.materialmerger.gles"
    },
    {
      "mesh": 0,
      "name": "Object_2"
    },
    {
      "mesh": 1,
      "name": "Object_3"
    },
    {
      "mesh": 2,
      "name": "Object_4"
    }
  ],
  "samplers": [
    {
      "magFilter": 9729,
      "minFilter": 9987,
      "wrapS": 10497,
      "wrapT": 10497
    }
  ],
  "scene": 0,
  "scenes": [
    {
      "name": "Sketchfab_Scene",
      "nodes": [
        0
      ]
    }
  ],
  "textures": [
    {
      "sampler": 0,
      "source": 0
    }
  ]
}
