{
	"asset":{
		"generator":"Khronos glTF Blender I/O v4.3.47",
		"version":"2.0"
	},
	"scene":0,
	"scenes":[
		{
			"name":"Scene",
			"nodes":[
				0
			]
		}
	],
	"nodes":[
		{
			"mesh":0,
			"name":"Plane"
		}
	],
	"materials":[
		{
			"doubleSided":true,
			"name":"Material.001",
			"pbrMetallicRoughness":{
				"baseColorTexture":{
					"index":0
				},
				"metallicFactor":0,
				"roughnessFactor":0.5
			}
		}
	],
	"meshes":[
		{
			"name":"Plane",
			"primitives":[
				{
					"attributes":{
						"POSITION":0,
						"NORMAL":1,
						"TEXCOORD_0":2
					},
					"indices":3,
					"material":0
				}
			]
		}
	],
	"textures":[
		{
			"sampler":0,
			"source":0
		}
	],
	"images":[
		{
			"mimeType":"image/png",
			"name":"66723b4ee84e6147014181",
			"uri":"textures/66723b4ee84e6147014181.png"
		}
	],
	"accessors":[
		{
			"bufferView":0,
			"componentType":5126,
			"count":717,
			"max":[
				1.392706274986267,
				3.656062364578247,
				1.39195716381073
			],
			"min":[
				-1.3912080526351929,
				-1.3224878311157227,
				-1.39195716381073
			],
			"type":"VEC3"
		},
		{
			"bufferView":1,
			"componentType":5126,
			"count":717,
			"type":"VEC3"
		},
		{
			"bufferView":2,
			"componentType":5126,
			"count":717,
			"type":"VEC2"
		},
		{
			"bufferView":3,
			"componentType":5123,
			"count":2586,
			"type":"SCALAR"
		}
	],
	"bufferViews":[
		{
			"buffer":0,
			"byteLength":8604,
			"byteOffset":0,
			"target":34962
		},
		{
			"buffer":0,
			"byteLength":8604,
			"byteOffset":8604,
			"target":34962
		},
		{
			"buffer":0,
			"byteLength":5736,
			"byteOffset":17208,
			"target":34962
		},
		{
			"buffer":0,
			"byteLength":5172,
			"byteOffset":22944,
			"target":34963
		}
	],
	"samplers":[
		{
			"magFilter":9729,
			"minFilter":9987
		}
	],
	"buffers":[
		{
			"byteLength":28116,
			"uri":"scene.bin"
		}
	]
}
