{
	"asset":{
		"generator":"Khronos glTF Blender I/O v4.5.47",
		"version":"2.0"
	},
	"scene":0,
	"scenes":[
		{
			"name":"Scene",
			"nodes":[
				0
			]
		}
	],
	"nodes":[
		{
			"mesh":0,
			"name":"Cube",
			"scale":[
				5,
				5,
				5
			],
			"translation":[
				0,
				5,
				0
			]
		}
	],
	"materials":[
		{
			"doubleSided":true,
			"name":"Material.001",
			"pbrMetallicRoughness":{
				"baseColorTexture":{
					"index":0
				},
				"metallicFactor":0,
				"roughnessFactor":0.5
			}
		}
	],
	"meshes":[
		{
			"name":"Cube.001",
			"primitives":[
				{
					"attributes":{
						"POSITION":0,
						"NORMAL":1,
						"TEXCOORD_0":2
					},
					"indices":3,
					"material":0
				}
			]
		}
	],
	"textures":[
		{
			"sampler":0,
			"source":0
		}
	],
	"images":[
		{
			"mimeType":"image/jpeg",
			"name":"16x16",
			"uri":"16x16.jpg"
		}
	],
	"accessors":[
		{
			"bufferView":0,
			"componentType":5126,
			"count":1953,
			"max":[
				1.440000057220459,
				9.399996757507324,
				1.440000057220459
			],
			"min":[
				-1.440000057220459,
				-1.600000023841858,
				-1.440000057220459
			],
			"type":"VEC3"
		},
		{
			"bufferView":1,
			"componentType":5126,
			"count":1953,
			"type":"VEC3"
		},
		{
			"bufferView":2,
			"componentType":5126,
			"count":1953,
			"type":"VEC2"
		},
		{
			"bufferView":3,
			"componentType":5123,
			"count":6012,
			"type":"SCALAR"
		}
	],
	"bufferViews":[
		{
			"buffer":0,
			"byteLength":23436,
			"byteOffset":0,
			"target":34962
		},
		{
			"buffer":0,
			"byteLength":23436,
			"byteOffset":23436,
			"target":34962
		},
		{
			"buffer":0,
			"byteLength":15624,
			"byteOffset":46872,
			"target":34962
		},
		{
			"buffer":0,
			"byteLength":12024,
			"byteOffset":62496,
			"target":34963
		}
	],
	"samplers":[
		{
			"magFilter":9728,
			"minFilter":9984
		}
	],
	"buffers":[
		{
			"byteLength":74520,
			"uri":"tower.bin"
		}
	]
}
