{
	"asset":{
		"generator":"Khronos glTF Blender I/O v4.4.56",
		"version":"2.0"
	},
	"scene":0,
	"scenes":[
		{
			"name":"Scene",
			"nodes":[
				0,
				1,
				2,
				3,
				4,
				5,
				6
			]
		}
	],
	"nodes":[
		{
			"mesh":0,
			"name":"Plane"
		},
		{
			"mesh":1,
			"name":"Plane.001"
		},
		{
			"mesh":2,
			"name":"Plane.002",
			"translation":[
				0,
				0.15945547819137573,
				-0.01181151531636715
			]
		},
		{
			"mesh":3,
			"name":"Plane.003"
		},
		{
			"name":"Empty",
			"rotation":[
				0.5,
				0.5,
				-0.5,
				0.4999999701976776
			],
			"translation":[
				0,
				0,
				-4.8112568855285645
			]
		},
		{
			"mesh":4,
			"name":"Plane.004",
			"scale":[
				0.20000000298023224,
				0.20000000298023224,
				0.20000000298023224
			],
			"translation":[
				0,
				0,
				-3
			]
		},
		{
			"mesh":5,
			"name":"Plane.005"
		}
	],
	"materials":[
		{
			"doubleSided":true,
			"name":"Material.002",
			"pbrMetallicRoughness":{
				"baseColorTexture":{
					"index":0
				},
				"metallicFactor":0.5077720284461975,
				"roughnessFactor":0.2979274392127991
			}
		}
	],
	"meshes":[
		{
			"name":"Plane.001",
			"primitives":[
				{
					"attributes":{
						"POSITION":0,
						"NORMAL":1,
						"TEXCOORD_0":2
					},
					"indices":3,
					"material":0
				}
			]
		},
		{
			"name":"Plane.002",
			"primitives":[
				{
					"attributes":{
						"POSITION":4,
						"NORMAL":5,
						"TEXCOORD_0":6
					},
					"indices":7,
					"material":0
				}
			]
		},
		{
			"name":"Plane.003",
			"primitives":[
				{
					"attributes":{
						"POSITION":8,
						"NORMAL":9,
						"TEXCOORD_0":10
					},
					"indices":11,
					"material":0
				}
			]
		},
		{
			"name":"Plane.004",
			"primitives":[
				{
					"attributes":{
						"POSITION":12,
						"NORMAL":13,
						"TEXCOORD_0":14
					},
					"indices":15,
					"material":0
				}
			]
		},
		{
			"name":"Plane.005",
			"primitives":[
				{
					"attributes":{
						"POSITION":16,
						"NORMAL":17,
						"TEXCOORD_0":18
					},
					"indices":19,
					"material":0
				}
			]
		},
		{
			"name":"Plane.007",
			"primitives":[
				{
					"attributes":{
						"POSITION":20,
						"NORMAL":21,
						"TEXCOORD_0":22
					},
					"indices":23,
					"material":0
				}
			]
		}
	],
	"textures":[
		{
			"sampler":0,
			"source":0
		}
	],
	"images":[
		{
			"mimeType":"image/png",
			"name":"comp",
			"uri":"comp.png"
		}
	],
	"accessors":[
		{
			"bufferView":0,
			"componentType":5126,
			"count":418,
			"max":[
				0.20178622007369995,
				0.8906884789466858,
				2.167664051055908
			],
			"min":[
				-0.20209825038909912,
				-1.3468481302261353,
				-2.1237144470214844
			],
			"type":"VEC3"
		},
		{
			"bufferView":1,
			"componentType":5126,
			"count":418,
			"type":"VEC3"
		},
		{
			"bufferView":2,
			"componentType":5126,
			"count":418,
			"type":"VEC2"
		},
		{
			"bufferView":3,
			"componentType":5123,
			"count":1080,
			"type":"SCALAR"
		},
		{
			"bufferView":4,
			"componentType":5126,
			"count":166,
			"max":[
				0.20178008079528809,
				1.49478018283844,
				1.8661772012710571
			],
			"min":[
				-0.20177972316741943,
				0.8809415698051453,
				-2.1251282691955566
			],
			"type":"VEC3"
		},
		{
			"bufferView":5,
			"componentType":5126,
			"count":166,
			"type":"VEC3"
		},
		{
			"bufferView":6,
			"componentType":5126,
			"count":166,
			"type":"VEC2"
		},
		{
			"bufferView":7,
			"componentType":5123,
			"count":357,
			"type":"SCALAR"
		},
		{
			"bufferView":8,
			"componentType":5126,
			"count":48,
			"max":[
				0.1250024139881134,
				-0.2819971442222595,
				2.02964186668396
			],
			"min":[
				-0.13831913471221924,
				-1.6191948652267456,
				0.6377886533737183
			],
			"type":"VEC3"
		},
		{
			"bufferView":9,
			"componentType":5126,
			"count":48,
			"type":"VEC3"
		},
		{
			"bufferView":10,
			"componentType":5126,
			"count":48,
			"type":"VEC2"
		},
		{
			"bufferView":11,
			"componentType":5123,
			"count":84,
			"type":"SCALAR"
		},
		{
			"bufferView":12,
			"componentType":5126,
			"count":30,
			"max":[
				0.10089623928070068,
				0.48070016503334045,
				0.21639230847358704
			],
			"min":[
				-0.10112708806991577,
				-0.029286056756973267,
				-0.2722724974155426
			],
			"type":"VEC3"
		},
		{
			"bufferView":13,
			"componentType":5126,
			"count":30,
			"type":"VEC3"
		},
		{
			"bufferView":14,
			"componentType":5126,
			"count":30,
			"type":"VEC2"
		},
		{
			"bufferView":15,
			"componentType":5123,
			"count":48,
			"type":"SCALAR"
		},
		{
			"bufferView":16,
			"componentType":5126,
			"count":297,
			"max":[
				0.455870658159256,
				1.0554025173187256,
				0.45587068796157837
			],
			"min":[
				-0.45587068796157837,
				-0.8385423421859741,
				-0.45587068796157837
			],
			"type":"VEC3"
		},
		{
			"bufferView":17,
			"componentType":5126,
			"count":297,
			"type":"VEC3"
		},
		{
			"bufferView":18,
			"componentType":5126,
			"count":297,
			"type":"VEC2"
		},
		{
			"bufferView":19,
			"componentType":5123,
			"count":954,
			"type":"SCALAR"
		},
		{
			"bufferView":20,
			"componentType":5126,
			"count":99,
			"max":[
				0.1622862070798874,
				1.312772274017334,
				0
			],
			"min":[
				-0.1727013736963272,
				0.9726167321205139,
				-2.17400860786438
			],
			"type":"VEC3"
		},
		{
			"bufferView":21,
			"componentType":5126,
			"count":99,
			"type":"VEC3"
		},
		{
			"bufferView":22,
			"componentType":5126,
			"count":99,
			"type":"VEC2"
		},
		{
			"bufferView":23,
			"componentType":5123,
			"count":183,
			"type":"SCALAR"
		}
	],
	"bufferViews":[
		{
			"buffer":0,
			"byteLength":5016,
			"byteOffset":0,
			"target":34962
		},
		{
			"buffer":0,
			"byteLength":5016,
			"byteOffset":5016,
			"target":34962
		},
		{
			"buffer":0,
			"byteLength":3344,
			"byteOffset":10032,
			"target":34962
		},
		{
			"buffer":0,
			"byteLength":2160,
			"byteOffset":13376,
			"target":34963
		},
		{
			"buffer":0,
			"byteLength":1992,
			"byteOffset":15536,
			"target":34962
		},
		{
			"buffer":0,
			"byteLength":1992,
			"byteOffset":17528,
			"target":34962
		},
		{
			"buffer":0,
			"byteLength":1328,
			"byteOffset":19520,
			"target":34962
		},
		{
			"buffer":0,
			"byteLength":714,
			"byteOffset":20848,
			"target":34963
		},
		{
			"buffer":0,
			"byteLength":576,
			"byteOffset":21564,
			"target":34962
		},
		{
			"buffer":0,
			"byteLength":576,
			"byteOffset":22140,
			"target":34962
		},
		{
			"buffer":0,
			"byteLength":384,
			"byteOffset":22716,
			"target":34962
		},
		{
			"buffer":0,
			"byteLength":168,
			"byteOffset":23100,
			"target":34963
		},
		{
			"buffer":0,
			"byteLength":360,
			"byteOffset":23268,
			"target":34962
		},
		{
			"buffer":0,
			"byteLength":360,
			"byteOffset":23628,
			"target":34962
		},
		{
			"buffer":0,
			"byteLength":240,
			"byteOffset":23988,
			"target":34962
		},
		{
			"buffer":0,
			"byteLength":96,
			"byteOffset":24228,
			"target":34963
		},
		{
			"buffer":0,
			"byteLength":3564,
			"byteOffset":24324,
			"target":34962
		},
		{
			"buffer":0,
			"byteLength":3564,
			"byteOffset":27888,
			"target":34962
		},
		{
			"buffer":0,
			"byteLength":2376,
			"byteOffset":31452,
			"target":34962
		},
		{
			"buffer":0,
			"byteLength":1908,
			"byteOffset":33828,
			"target":34963
		},
		{
			"buffer":0,
			"byteLength":1188,
			"byteOffset":35736,
			"target":34962
		},
		{
			"buffer":0,
			"byteLength":1188,
			"byteOffset":36924,
			"target":34962
		},
		{
			"buffer":0,
			"byteLength":792,
			"byteOffset":38112,
			"target":34962
		},
		{
			"buffer":0,
			"byteLength":366,
			"byteOffset":38904,
			"target":34963
		}
	],
	"samplers":[
		{
			"magFilter":9729,
			"minFilter":9987
		}
	],
	"buffers":[
		{
			"byteLength":39272,
			"uri":"pistol.bin"
		}
	]
}
