{
	"asset":{
		"generator":"Khronos glTF Blender I/O v4.4.56",
		"version":"2.0"
	},
	"scene":0,
	"scenes":[
		{
			"name":"Scene",
			"nodes":[
				0
			]
		}
	],
	"nodes":[
		{
			"mesh":0,
			"name":"Circle.001"
		}
	],
	"materials":[
		{
			"alphaMode":"BLEND",
			"doubleSided":true,
			"name":"Material.002",
			"pbrMetallicRoughness":{
				"baseColorTexture":{
					"index":0
				},
				"metallicFactor":0,
				"roughnessFactor":0.5
			}
		}
	],
	"meshes":[
		{
			"name":"Circle.001",
			"primitives":[
				{
					"attributes":{
						"POSITION":0,
						"NORMAL":1,
						"TEXCOORD_0":2,
						"TEXCOORD_1":3
					},
					"indices":4,
					"material":0
				}
			]
		}
	],
	"textures":[
		{
			"sampler":0,
			"source":0
		}
	],
	"images":[
		{
			"mimeType":"image/png",
			"name":"bake2",
			"uri":"bake2.png"
		}
	],
	"accessors":[
		{
			"bufferView":0,
			"componentType":5126,
			"count":7194,
			"max":[
				0.992508053779602,
				2.102391242980957,
				1.0435848236083984
			],
			"min":[
				-0.992508053779602,
				-0.8849430084228516,
				-1.0435848236083984
			],
			"type":"VEC3"
		},
		{
			"bufferView":1,
			"componentType":5126,
			"count":7194,
			"type":"VEC3"
		},
		{
			"bufferView":2,
			"componentType":5126,
			"count":7194,
			"type":"VEC2"
		},
		{
			"bufferView":3,
			"componentType":5126,
			"count":7194,
			"type":"VEC2"
		},
		{
			"bufferView":4,
			"componentType":5123,
			"count":25584,
			"type":"SCALAR"
		}
	],
	"bufferViews":[
		{
			"buffer":0,
			"byteLength":86328,
			"byteOffset":0,
			"target":34962
		},
		{
			"buffer":0,
			"byteLength":86328,
			"byteOffset":86328,
			"target":34962
		},
		{
			"buffer":0,
			"byteLength":57552,
			"byteOffset":172656,
			"target":34962
		},
		{
			"buffer":0,
			"byteLength":57552,
			"byteOffset":230208,
			"target":34962
		},
		{
			"buffer":0,
			"byteLength":51168,
			"byteOffset":287760,
			"target":34963
		}
	],
	"samplers":[
		{
			"magFilter":9729,
			"minFilter":9987
		}
	],
	"buffers":[
		{
			"byteLength":338928,
			"uri":"light.bin"
		}
	]
}
