{
	"asset":{
		"generator":"Khronos glTF Blender I/O v4.3.47",
		"version":"2.0"
	},
	"scene":0,
	"scenes":[
		{
			"name":"Scene",
			"nodes":[
				0
			]
		}
	],
	"nodes":[
		{
			"mesh":0,
			"name":"Plane"
		}
	],
	"materials":[
		{
			"doubleSided":true,
			"name":"Material.003",
			"pbrMetallicRoughness":{
				"baseColorTexture":{
					"index":0
				},
				"metallicFactor":0,
				"metallicRoughnessTexture":{
					"index":1
				}
			}
		}
	],
	"meshes":[
		{
			"name":"Plane.001",
			"primitives":[
				{
					"attributes":{
						"POSITION":0,
						"NORMAL":1,
						"TEXCOORD_0":2,
						"TEXCOORD_1":3
					},
					"indices":4,
					"material":0
				}
			]
		}
	],
	"textures":[
		{
			"sampler":0,
			"source":0
		},
		{
			"sampler":0,
			"source":1
		}
	],
	"images":[
		{
			"mimeType":"image/png",
			"name":"pp2",
			"uri":"pp2.png"
		},
		{
			"mimeType":"image/png",
			"name":"pp",
			"uri":"pp.png"
		}
	],
	"accessors":[
		{
			"bufferView":0,
			"componentType":5126,
			"count":549177,
			"max":[
				4.02521276473999,
				1.2351924180984497,
				4.0308098793029785
			],
			"min":[
				-4.024723529815674,
				-0.3187423050403595,
				-4.03079080581665
			],
			"type":"VEC3"
		},
		{
			"bufferView":1,
			"componentType":5126,
			"count":549177,
			"type":"VEC3"
		},
		{
			"bufferView":2,
			"componentType":5126,
			"count":549177,
			"type":"VEC2"
		},
		{
			"bufferView":3,
			"componentType":5126,
			"count":549177,
			"type":"VEC2"
		},
		{
			"bufferView":4,
			"componentType":5125,
			"count":1367328,
			"type":"SCALAR"
		}
	],
	"bufferViews":[
		{
			"buffer":0,
			"byteLength":6590124,
			"byteOffset":0,
			"target":34962
		},
		{
			"buffer":0,
			"byteLength":6590124,
			"byteOffset":6590124,
			"target":34962
		},
		{
			"buffer":0,
			"byteLength":4393416,
			"byteOffset":13180248,
			"target":34962
		},
		{
			"buffer":0,
			"byteLength":4393416,
			"byteOffset":17573664,
			"target":34962
		},
		{
			"buffer":0,
			"byteLength":5469312,
			"byteOffset":21967080,
			"target":34963
		}
	],
	"samplers":[
		{
			"magFilter":9729,
			"minFilter":9987
		}
	],
	"buffers":[
		{
			"byteLength":27436392,
			"uri":"terrain5.bin"
		}
	]
}
