{
	"asset":{
		"generator":"Khronos glTF Blender I/O v4.3.47",
		"version":"2.0"
	},
	"scene":0,
	"scenes":[
		{
			"name":"Scene",
			"nodes":[
				0
			]
		}
	],
	"nodes":[
		{
			"mesh":0,
			"name":"Plane",
			"translation":[
				-100,
				0,
				100
			]
		}
	],
	"materials":[
		{
			"alphaMode":"BLEND",
			"doubleSided":true,
			"name":"Material.002",
			"pbrMetallicRoughness":{
				"baseColorTexture":{
					"index":0
				},
				"metallicFactor":0,
				"metallicRoughnessTexture":{
					"index":1
				}
			}
		}
	],
	"meshes":[
		{
			"name":"Plane.001",
			"primitives":[
				{
					"attributes":{
						"POSITION":0,
						"NORMAL":1,
						"TEXCOORD_0":2
					},
					"indices":3,
					"material":0
				}
			]
		}
	],
	"textures":[
		{
			"sampler":0,
			"source":0
		},
		{
			"sampler":0,
			"source":1
		}
	],
	"images":[
		{
			"mimeType":"image/png",
			"name":"diffuse",
			"uri":"texture/diffuse.png"
		},
		{
			"mimeType":"image/png",
			"name":"specular",
			"uri":"texture/specular.png"
		}
	],
	"accessors":[
		{
			"bufferView":0,
			"componentType":5126,
			"count":241968,
			"max":[
				200.11138916015625,
				1,
				0.7071067690849304
			],
			"min":[
				-0.7071067690849304,
				-1,
				-200.11138916015625
			],
			"type":"VEC3"
		},
		{
			"bufferView":1,
			"componentType":5126,
			"count":241968,
			"type":"VEC3"
		},
		{
			"bufferView":2,
			"componentType":5126,
			"count":241968,
			"type":"VEC2"
		},
		{
			"bufferView":3,
			"componentType":5125,
			"count":483936,
			"type":"SCALAR"
		}
	],
	"bufferViews":[
		{
			"buffer":0,
			"byteLength":2903616,
			"byteOffset":0,
			"target":34962
		},
		{
			"buffer":0,
			"byteLength":2903616,
			"byteOffset":2903616,
			"target":34962
		},
		{
			"buffer":0,
			"byteLength":1935744,
			"byteOffset":5807232,
			"target":34962
		},
		{
			"buffer":0,
			"byteLength":1935744,
			"byteOffset":7742976,
			"target":34963
		}
	],
	"samplers":[
		{
			"magFilter":9729,
			"minFilter":9987
		}
	],
	"buffers":[
		{
			"byteLength":9678720,
			"uri":"grass.bin"
		}
	]
}
