{
	"asset":{
		"generator":"Khronos glTF Blender I/O v4.4.56",
		"version":"2.0"
	},
	"extensionsUsed":[
		"KHR_materials_specular",
		"KHR_materials_ior",
		"KHR_texture_transform"
	],
	"extensionsRequired":[
		"KHR_texture_transform"
	],
	"scene":0,
	"scenes":[
		{
			"name":"Scene",
			"nodes":[
				0,
				1
			]
		}
	],
	"nodes":[
		{
			"mesh":0,
			"name":"fir_sapling_medium_a_LOD0.001"
		},
		{
			"mesh":1,
			"name":"fir_sapling_medium_a_LOD0.002"
		}
	],
	"materials":[
		{
			"doubleSided":true,
			"extensions":{
				"KHR_materials_specular":{
					"specularFactor":0.04676615074276924
				},
				"KHR_materials_ior":{
					"ior":1.4500000476837158
				}
			},
			"name":"fir_sapling_medium_branches.001",
			"normalTexture":{
				"extensions":{
					"KHR_texture_transform":{
						"offset":[
							0,
							0.9000000655651093
						],
						"scale":[
							1.2000000476837158,
							0.09999993443489075
						]
					}
				},
				"index":0
			},
			"pbrMetallicRoughness":{
				"baseColorTexture":{
					"extensions":{
						"KHR_texture_transform":{
							"offset":[
								0,
								0.9000000655651093
							],
							"scale":[
								1.2000000476837158,
								0.09999993443489075
							]
						}
					},
					"index":1
				},
				"metallicFactor":0,
				"metallicRoughnessTexture":{
					"extensions":{
						"KHR_texture_transform":{
							"offset":[
								0,
								0.9000000655651093
							],
							"scale":[
								1.2000000476837158,
								0.09999993443489075
							]
						}
					},
					"index":2
				}
			}
		},
		{
			"alphaMode":"BLEND",
			"doubleSided":true,
			"extensions":{
				"KHR_materials_specular":{
					"specularFactor":0.04477611929178238
				},
				"KHR_materials_ior":{
					"ior":1.4500000476837158
				}
			},
			"name":"fir_sapling_medium_twigs.001",
			"normalTexture":{
				"index":3
			},
			"pbrMetallicRoughness":{
				"baseColorTexture":{
					"index":4
				},
				"metallicFactor":0,
				"metallicRoughnessTexture":{
					"index":5
				}
			}
		}
	],
	"meshes":[
		{
			"name":"NurbsPath.001",
			"primitives":[
				{
					"attributes":{
						"POSITION":0,
						"NORMAL":1,
						"TEXCOORD_0":2
					},
					"indices":3,
					"material":0
				}
			]
		},
		{
			"name":"NurbsPath.003",
			"primitives":[
				{
					"attributes":{
						"POSITION":4,
						"NORMAL":5,
						"TEXCOORD_0":6
					},
					"indices":7,
					"material":1
				}
			]
		}
	],
	"textures":[
		{
			"sampler":0,
			"source":0
		},
		{
			"sampler":0,
			"source":1
		},
		{
			"sampler":0,
			"source":2
		},
		{
			"sampler":0,
			"source":3
		},
		{
			"sampler":0,
			"source":4
		},
		{
			"sampler":0,
			"source":5
		}
	],
	"images":[
		{
			"mimeType":"image/png",
			"name":"fir_sapling_medium_branches_nor_gl",
			"uri":"tex/fir_sapling_medium_branches_nor_gl.png"
		},
		{
			"mimeType":"image/png",
			"name":"fir_sapling_medium_branches_diff",
			"uri":"tex/fir_sapling_medium_branches_diff.png"
		},
		{
			"mimeType":"image/png",
			"name":"fir_sapling_medium_branches_rough",
			"uri":"tex/fir_sapling_medium_branches_rough.png"
		},
		{
			"mimeType":"image/png",
			"name":"fir_sapling_medium_twigs_nor_gl",
			"uri":"tex/fir_sapling_medium_twigs_nor_gl.png"
		},
		{
			"mimeType":"image/png",
			"name":"fir_sapling_medium_twigs_diff-fir_sapling_medium_twigs_alpha",
			"uri":"tex/fir_sapling_medium_twigs_diff-fir_sapling_medium_twigs_alpha.png"
		},
		{
			"mimeType":"image/png",
			"name":"fir_sapling_medium_twigs_rough",
			"uri":"tex/fir_sapling_medium_twigs_rough.png"
		}
	],
	"accessors":[
		{
			"bufferView":0,
			"componentType":5126,
			"count":4697,
			"max":[
				1.951086163520813,
				8.263978004455566,
				1.897464632987976
			],
			"min":[
				-1.7359403371810913,
				0.0035879886709153652,
				-1.9593214988708496
			],
			"type":"VEC3"
		},
		{
			"bufferView":1,
			"componentType":5126,
			"count":4697,
			"type":"VEC3"
		},
		{
			"bufferView":2,
			"componentType":5126,
			"count":4697,
			"type":"VEC2"
		},
		{
			"bufferView":3,
			"componentType":5123,
			"count":25470,
			"type":"SCALAR"
		},
		{
			"bufferView":4,
			"componentType":5126,
			"count":773792,
			"max":[
				2.4356377124786377,
				8.738079071044922,
				2.720205783843994
			],
			"min":[
				-2.5522518157958984,
				0.4705786108970642,
				-2.5556671619415283
			],
			"type":"VEC3"
		},
		{
			"bufferView":5,
			"componentType":5126,
			"count":773792,
			"type":"VEC3"
		},
		{
			"bufferView":6,
			"componentType":5126,
			"count":773792,
			"type":"VEC2"
		},
		{
			"bufferView":7,
			"componentType":5125,
			"count":2024238,
			"type":"SCALAR"
		}
	],
	"bufferViews":[
		{
			"buffer":0,
			"byteLength":56364,
			"byteOffset":0,
			"target":34962
		},
		{
			"buffer":0,
			"byteLength":56364,
			"byteOffset":56364,
			"target":34962
		},
		{
			"buffer":0,
			"byteLength":37576,
			"byteOffset":112728,
			"target":34962
		},
		{
			"buffer":0,
			"byteLength":50940,
			"byteOffset":150304,
			"target":34963
		},
		{
			"buffer":0,
			"byteLength":9285504,
			"byteOffset":201244,
			"target":34962
		},
		{
			"buffer":0,
			"byteLength":9285504,
			"byteOffset":9486748,
			"target":34962
		},
		{
			"buffer":0,
			"byteLength":6190336,
			"byteOffset":18772252,
			"target":34962
		},
		{
			"buffer":0,
			"byteLength":8096952,
			"byteOffset":24962588,
			"target":34963
		}
	],
	"samplers":[
		{
			"magFilter":9729,
			"minFilter":9987
		}
	],
	"buffers":[
		{
			"byteLength":33059540,
			"uri":"tree1.bin"
		}
	]
}
