{
	"asset":{
		"generator":"Khronos glTF Blender I/O v4.5.47",
		"version":"2.0"
	},
	"extensionsUsed":[
		"KHR_materials_specular"
	],
	"scene":0,
	"scenes":[
		{
			"name":"Scene",
			"nodes":[
				0,
				1,
				2,
				3
			]
		}
	],
	"nodes":[
		{
			"mesh":0,
			"name":"Trims",
			"rotation":[
				0.7071068286895752,
				0,
				0,
				0.7071068286895752
			]
		},
		{
			"mesh":1,
			"name":"Wall",
			"rotation":[
				0.7071068286895752,
				0,
				0,
				0.7071068286895752
			]
		},
		{
			"mesh":2,
			"name":"Wood",
			"rotation":[
				0.7071068286895752,
				0,
				0,
				0.7071068286895752
			]
		},
		{
			"mesh":3,
			"name":"WoodFloor (2)",
			"rotation":[
				0.7071068286895752,
				0,
				0,
				0.7071068286895752
			]
		}
	],
	"materials":[
		{
			"doubleSided":true,
			"extensions":{
				"KHR_materials_specular":{
					"specularFactor":0.4000000059604645
				}
			},
			"name":"Trims",
			"pbrMetallicRoughness":{
				"baseColorTexture":{
					"index":0
				},
				"metallicFactor":0,
				"metallicRoughnessTexture":{
					"index":1
				}
			}
		},
		{
			"doubleSided":true,
			"extensions":{
				"KHR_materials_specular":{
					"specularFactor":0
				}
			},
			"name":"Wall",
			"pbrMetallicRoughness":{
				"baseColorTexture":{
					"index":2
				},
				"metallicFactor":0,
				"metallicRoughnessTexture":{
					"index":3
				}
			}
		},
		{
			"doubleSided":true,
			"extensions":{
				"KHR_materials_specular":{
					"specularFactor":0.07999999821186066
				}
			},
			"name":"Wood",
			"pbrMetallicRoughness":{
				"baseColorTexture":{
					"index":4
				},
				"metallicFactor":0,
				"metallicRoughnessTexture":{
					"index":5
				}
			}
		},
		{
			"doubleSided":true,
			"extensions":{
				"KHR_materials_specular":{
					"specularFactor":0.07999999821186066
				}
			},
			"name":"WoodFloor",
			"pbrMetallicRoughness":{
				"baseColorTexture":{
					"index":6
				},
				"metallicFactor":0,
				"metallicRoughnessTexture":{
					"index":7
				}
			}
		}
	],
	"meshes":[
		{
			"name":"Trims",
			"primitives":[
				{
					"attributes":{
						"POSITION":0,
						"NORMAL":1,
						"TEXCOORD_0":2
					},
					"indices":3,
					"material":0
				}
			]
		},
		{
			"name":"Wall",
			"primitives":[
				{
					"attributes":{
						"POSITION":4,
						"NORMAL":5,
						"TEXCOORD_0":6
					},
					"indices":7,
					"material":1
				}
			]
		},
		{
			"name":"Wood",
			"primitives":[
				{
					"attributes":{
						"POSITION":8,
						"NORMAL":9,
						"TEXCOORD_0":10
					},
					"indices":11,
					"material":2
				}
			]
		},
		{
			"name":"WoodFloor (2)",
			"primitives":[
				{
					"attributes":{
						"POSITION":12,
						"NORMAL":13,
						"TEXCOORD_0":14
					},
					"indices":15,
					"material":3
				}
			]
		}
	],
	"textures":[
		{
			"sampler":0,
			"source":0
		},
		{
			"sampler":0,
			"source":1
		},
		{
			"sampler":0,
			"source":0
		},
		{
			"sampler":0,
			"source":1
		},
		{
			"sampler":0,
			"source":2
		},
		{
			"sampler":0,
			"source":1
		},
		{
			"sampler":0,
			"source":3
		},
		{
			"sampler":0,
			"source":1
		}
	],
	"images":[
		{
			"mimeType":"image/png",
			"name":"white",
			"uri":"white.png"
		},
		{
			"mimeType":"image/png",
			"name":"0",
			"uri":"0.png"
		},
		{
			"mimeType":"image/jpeg",
			"name":"Wood_BaseColor",
			"uri":"Wood_BaseColor.jpg"
		},
		{
			"mimeType":"image/jpeg",
			"name":"WoodFloor_BaseColor",
			"uri":"WoodFloor_BaseColor.jpg"
		}
	],
	"accessors":[
		{
			"bufferView":0,
			"componentType":5126,
			"count":20,
			"max":[
				16.89940071105957,
				22.48590087890625,
				-0.10987900197505951
			],
			"min":[
				4.55417013168335,
				-21.321500778198242,
				-0.9249529838562012
			],
			"type":"VEC3"
		},
		{
			"bufferView":1,
			"componentType":5126,
			"count":20,
			"type":"VEC3"
		},
		{
			"bufferView":2,
			"componentType":5126,
			"count":20,
			"type":"VEC2"
		},
		{
			"bufferView":3,
			"componentType":5123,
			"count":30,
			"type":"SCALAR"
		},
		{
			"bufferView":4,
			"componentType":5126,
			"count":1092,
			"max":[
				16.89940071105957,
				22.48590087890625,
				-0.10987900197505951
			],
			"min":[
				-17.02790069580078,
				-22.946800231933594,
				-33.60179901123047
			],
			"type":"VEC3"
		},
		{
			"bufferView":5,
			"componentType":5126,
			"count":1092,
			"type":"VEC3"
		},
		{
			"bufferView":6,
			"componentType":5126,
			"count":1092,
			"type":"VEC2"
		},
		{
			"bufferView":7,
			"componentType":5123,
			"count":2601,
			"type":"SCALAR"
		},
		{
			"bufferView":8,
			"componentType":5126,
			"count":195,
			"max":[
				16.236799240112305,
				22.279199600219727,
				-0.08482799679040909
			],
			"min":[
				-16.91990089416504,
				-3.277859926223755,
				-8.670929908752441
			],
			"type":"VEC3"
		},
		{
			"bufferView":9,
			"componentType":5126,
			"count":195,
			"type":"VEC3"
		},
		{
			"bufferView":10,
			"componentType":5126,
			"count":195,
			"type":"VEC2"
		},
		{
			"bufferView":11,
			"componentType":5123,
			"count":324,
			"type":"SCALAR"
		},
		{
			"bufferView":12,
			"componentType":5126,
			"count":12,
			"max":[
				16.89940071105957,
				22.48590087890625,
				-0.10987900197505951
			],
			"min":[
				-17.027700424194336,
				-21.321500778198242,
				-0.10987900197505951
			],
			"type":"VEC3"
		},
		{
			"bufferView":13,
			"componentType":5126,
			"count":12,
			"type":"VEC3"
		},
		{
			"bufferView":14,
			"componentType":5126,
			"count":12,
			"type":"VEC2"
		},
		{
			"bufferView":15,
			"componentType":5123,
			"count":30,
			"type":"SCALAR"
		}
	],
	"bufferViews":[
		{
			"buffer":0,
			"byteLength":240,
			"byteOffset":0,
			"target":34962
		},
		{
			"buffer":0,
			"byteLength":240,
			"byteOffset":240,
			"target":34962
		},
		{
			"buffer":0,
			"byteLength":160,
			"byteOffset":480,
			"target":34962
		},
		{
			"buffer":0,
			"byteLength":60,
			"byteOffset":640,
			"target":34963
		},
		{
			"buffer":0,
			"byteLength":13104,
			"byteOffset":700,
			"target":34962
		},
		{
			"buffer":0,
			"byteLength":13104,
			"byteOffset":13804,
			"target":34962
		},
		{
			"buffer":0,
			"byteLength":8736,
			"byteOffset":26908,
			"target":34962
		},
		{
			"buffer":0,
			"byteLength":5202,
			"byteOffset":35644,
			"target":34963
		},
		{
			"buffer":0,
			"byteLength":2340,
			"byteOffset":40848,
			"target":34962
		},
		{
			"buffer":0,
			"byteLength":2340,
			"byteOffset":43188,
			"target":34962
		},
		{
			"buffer":0,
			"byteLength":1560,
			"byteOffset":45528,
			"target":34962
		},
		{
			"buffer":0,
			"byteLength":648,
			"byteOffset":47088,
			"target":34963
		},
		{
			"buffer":0,
			"byteLength":144,
			"byteOffset":47736,
			"target":34962
		},
		{
			"buffer":0,
			"byteLength":144,
			"byteOffset":47880,
			"target":34962
		},
		{
			"buffer":0,
			"byteLength":96,
			"byteOffset":48024,
			"target":34962
		},
		{
			"buffer":0,
			"byteLength":60,
			"byteOffset":48120,
			"target":34963
		}
	],
	"samplers":[
		{
			"magFilter":9729,
			"minFilter":9987
		}
	],
	"buffers":[
		{
			"byteLength":48180,
			"uri":"bathroom.bin"
		}
	]
}
