{
	"asset":{
		"generator":"Khronos glTF Blender I/O v4.5.47",
		"version":"2.0"
	},
	"scene":0,
	"scenes":[
		{
			"name":"Scene",
			"nodes":[
				0,
				1,
				2,
				3
			]
		}
	],
	"nodes":[
		{
			"mesh":0,
			"name":"Plane.010",
			"scale":[
				5,
				5,
				5
			],
			"translation":[
				10,
				-2,
				-10
			]
		},
		{
			"mesh":1,
			"name":"Plane.013",
			"scale":[
				5,
				5,
				5
			],
			"translation":[
				10,
				-2,
				10
			]
		},
		{
			"mesh":2,
			"name":"Sphere",
			"translation":[
				-6,
				0,
				0
			]
		},
		{
			"mesh":3,
			"name":"Cube",
			"scale":[
				4.200000286102295,
				4.200000286102295,
				4.200000286102295
			],
			"translation":[
				9,
				2,
				9
			]
		}
	],
	"materials":[
		{
			"doubleSided":true,
			"name":"Material.004",
			"pbrMetallicRoughness":{
				"baseColorTexture":{
					"index":0
				},
				"metallicFactor":0,
				"roughnessFactor":0.5
			}
		},
		{
			"doubleSided":true,
			"name":"Material.003",
			"pbrMetallicRoughness":{
				"baseColorTexture":{
					"index":1
				},
				"metallicFactor":0,
				"roughnessFactor":0.5
			}
		}
	],
	"meshes":[
		{
			"name":"Plane.015",
			"primitives":[
				{
					"attributes":{
						"POSITION":0,
						"NORMAL":1,
						"TEXCOORD_0":2,
						"COLOR_0":3,
						"COLOR_1":4
					},
					"indices":5,
					"material":0
				}
			]
		},
		{
			"name":"Plane.018",
			"primitives":[
				{
					"attributes":{
						"POSITION":6,
						"NORMAL":7,
						"TEXCOORD_0":8,
						"COLOR_0":9,
						"COLOR_1":10
					},
					"indices":11,
					"material":1
				}
			]
		},
		{
			"name":"Sphere.004",
			"primitives":[
				{
					"attributes":{
						"POSITION":12,
						"NORMAL":13,
						"TEXCOORD_0":14,
						"COLOR_0":15,
						"COLOR_1":16
					},
					"indices":17,
					"material":0
				}
			]
		},
		{
			"name":"Cube.001",
			"primitives":[
				{
					"attributes":{
						"POSITION":18,
						"NORMAL":19,
						"TEXCOORD_0":20,
						"COLOR_0":21,
						"COLOR_1":22
					},
					"indices":23,
					"material":0
				}
			]
		}
	],
	"textures":[
		{
			"sampler":0,
			"source":0
		},
		{
			"sampler":0,
			"source":1
		}
	],
	"images":[
		{
			"mimeType":"image/png",
			"name":"whi",
			"uri":"whi.png"
		},
		{
			"mimeType":"image/png",
			"name":"Untitled",
			"uri":"Untitled.png"
		}
	],
	"accessors":[
		{
			"bufferView":0,
			"componentType":5126,
			"count":711,
			"max":[
				1,
				0,
				5
			],
			"min":[
				-5,
				0,
				-1
			],
			"type":"VEC3"
		},
		{
			"bufferView":1,
			"componentType":5126,
			"count":711,
			"type":"VEC3"
		},
		{
			"bufferView":2,
			"componentType":5126,
			"count":711,
			"type":"VEC2"
		},
		{
			"bufferView":3,
			"componentType":5121,
			"count":711,
			"normalized":true,
			"type":"VEC4"
		},
		{
			"bufferView":4,
			"componentType":5123,
			"count":711,
			"normalized":true,
			"type":"VEC4"
		},
		{
			"bufferView":5,
			"componentType":5123,
			"count":1728,
			"type":"SCALAR"
		},
		{
			"bufferView":6,
			"componentType":5126,
			"count":927,
			"max":[
				1,
				0,
				1
			],
			"min":[
				-5,
				0,
				-5
			],
			"type":"VEC3"
		},
		{
			"bufferView":7,
			"componentType":5126,
			"count":927,
			"type":"VEC3"
		},
		{
			"bufferView":8,
			"componentType":5126,
			"count":927,
			"type":"VEC2"
		},
		{
			"bufferView":9,
			"componentType":5121,
			"count":927,
			"normalized":true,
			"type":"VEC4"
		},
		{
			"bufferView":10,
			"componentType":5123,
			"count":927,
			"normalized":true,
			"type":"VEC4"
		},
		{
			"bufferView":11,
			"componentType":5123,
			"count":1728,
			"type":"SCALAR"
		},
		{
			"bufferView":12,
			"componentType":5126,
			"count":559,
			"max":[
				0.9999997019767761,
				1,
				0.9999993443489075
			],
			"min":[
				-0.9999990463256836,
				-1,
				-1
			],
			"type":"VEC3"
		},
		{
			"bufferView":13,
			"componentType":5126,
			"count":559,
			"type":"VEC3"
		},
		{
			"bufferView":14,
			"componentType":5126,
			"count":559,
			"type":"VEC2"
		},
		{
			"bufferView":15,
			"componentType":5121,
			"count":559,
			"normalized":true,
			"type":"VEC4"
		},
		{
			"bufferView":16,
			"componentType":5123,
			"count":559,
			"normalized":true,
			"type":"VEC4"
		},
		{
			"bufferView":17,
			"componentType":5123,
			"count":2880,
			"type":"SCALAR"
		},
		{
			"bufferView":18,
			"componentType":5126,
			"count":24,
			"max":[
				1,
				1,
				1
			],
			"min":[
				-1,
				-1,
				-1
			],
			"type":"VEC3"
		},
		{
			"bufferView":19,
			"componentType":5126,
			"count":24,
			"type":"VEC3"
		},
		{
			"bufferView":20,
			"componentType":5126,
			"count":24,
			"type":"VEC2"
		},
		{
			"bufferView":21,
			"componentType":5121,
			"count":24,
			"normalized":true,
			"type":"VEC4"
		},
		{
			"bufferView":22,
			"componentType":5123,
			"count":24,
			"normalized":true,
			"type":"VEC4"
		},
		{
			"bufferView":23,
			"componentType":5123,
			"count":36,
			"type":"SCALAR"
		}
	],
	"bufferViews":[
		{
			"buffer":0,
			"byteLength":8532,
			"byteOffset":0,
			"target":34962
		},
		{
			"buffer":0,
			"byteLength":8532,
			"byteOffset":8532,
			"target":34962
		},
		{
			"buffer":0,
			"byteLength":5688,
			"byteOffset":17064,
			"target":34962
		},
		{
			"buffer":0,
			"byteLength":2844,
			"byteOffset":22752,
			"target":34962
		},
		{
			"buffer":0,
			"byteLength":5688,
			"byteOffset":25596,
			"target":34962
		},
		{
			"buffer":0,
			"byteLength":3456,
			"byteOffset":31284,
			"target":34963
		},
		{
			"buffer":0,
			"byteLength":11124,
			"byteOffset":34740,
			"target":34962
		},
		{
			"buffer":0,
			"byteLength":11124,
			"byteOffset":45864,
			"target":34962
		},
		{
			"buffer":0,
			"byteLength":7416,
			"byteOffset":56988,
			"target":34962
		},
		{
			"buffer":0,
			"byteLength":3708,
			"byteOffset":64404,
			"target":34962
		},
		{
			"buffer":0,
			"byteLength":7416,
			"byteOffset":68112,
			"target":34962
		},
		{
			"buffer":0,
			"byteLength":3456,
			"byteOffset":75528,
			"target":34963
		},
		{
			"buffer":0,
			"byteLength":6708,
			"byteOffset":78984,
			"target":34962
		},
		{
			"buffer":0,
			"byteLength":6708,
			"byteOffset":85692,
			"target":34962
		},
		{
			"buffer":0,
			"byteLength":4472,
			"byteOffset":92400,
			"target":34962
		},
		{
			"buffer":0,
			"byteLength":2236,
			"byteOffset":96872,
			"target":34962
		},
		{
			"buffer":0,
			"byteLength":4472,
			"byteOffset":99108,
			"target":34962
		},
		{
			"buffer":0,
			"byteLength":5760,
			"byteOffset":103580,
			"target":34963
		},
		{
			"buffer":0,
			"byteLength":288,
			"byteOffset":109340,
			"target":34962
		},
		{
			"buffer":0,
			"byteLength":288,
			"byteOffset":109628,
			"target":34962
		},
		{
			"buffer":0,
			"byteLength":192,
			"byteOffset":109916,
			"target":34962
		},
		{
			"buffer":0,
			"byteLength":96,
			"byteOffset":110108,
			"target":34962
		},
		{
			"buffer":0,
			"byteLength":192,
			"byteOffset":110204,
			"target":34962
		},
		{
			"buffer":0,
			"byteLength":72,
			"byteOffset":110396,
			"target":34963
		}
	],
	"samplers":[
		{
			"magFilter":9729,
			"minFilter":9987
		}
	],
	"buffers":[
		{
			"byteLength":110468,
			"uri":"blackball.bin"
		}
	]
}
