{
	"asset":{
		"generator":"Khronos glTF Blender I/O v4.5.47",
		"version":"2.0"
	},
	"scene":0,
	"scenes":[
		{
			"name":"Scene",
			"nodes":[
				0,
				1,
				2,
				3,
				4,
				5,
				6,
				7,
				8,
				9,
				10,
				11,
				12
			]
		}
	],
	"nodes":[
		{
			"mesh":0,
			"name":"Cube",
			"scale":[
				16,
				12.150001525878906,
				25
			],
			"translation":[
				0,
				12,
				0
			]
		},
		{
			"mesh":1,
			"name":"Cube.001",
			"translation":[
				-8,
				1,
				11
			]
		},
		{
			"mesh":2,
			"name":"Cube.002",
			"translation":[
				-8,
				1,
				15
			]
		},
		{
			"mesh":3,
			"name":"Cube.003",
			"translation":[
				-8,
				1,
				19
			]
		},
		{
			"mesh":4,
			"name":"Icosphere",
			"translation":[
				-8,
				1,
				-11
			]
		},
		{
			"mesh":5,
			"name":"Icosphere.001",
			"translation":[
				-8,
				1,
				-19
			]
		},
		{
			"mesh":6,
			"name":"Icosphere.002",
			"translation":[
				-8,
				1,
				-15
			]
		},
		{
			"mesh":7,
			"name":"Cube.004",
			"scale":[
				8.112000465393066,
				4,
				1
			],
			"translation":[
				-8,
				4,
				0
			]
		},
		{
			"mesh":8,
			"name":"Cube.005",
			"scale":[
				16,
				12.150001525878906,
				25
			],
			"translation":[
				0,
				12,
				0
			]
		},
		{
			"mesh":9,
			"name":"Cube.006",
			"scale":[
				16,
				12.150001525878906,
				25
			],
			"translation":[
				0,
				12,
				0
			]
		},
		{
			"mesh":10,
			"name":"Cube.007",
			"scale":[
				16,
				12.150001525878906,
				25
			],
			"translation":[
				0,
				12,
				0
			]
		},
		{
			"mesh":11,
			"name":"Cube.008",
			"scale":[
				16,
				12.150001525878906,
				25
			],
			"translation":[
				0,
				12,
				0
			]
		},
		{
			"mesh":12,
			"name":"Cube.009",
			"scale":[
				16,
				12.150001525878906,
				25
			],
			"translation":[
				0,
				12,
				0
			]
		}
	],
	"materials":[
		{
			"doubleSided":true,
			"name":"Material.004",
			"normalTexture":{
				"index":0
			},
			"pbrMetallicRoughness":{
				"baseColorTexture":{
					"index":1
				},
				"metallicFactor":0,
				"roughnessFactor":0.5
			}
		},
		{
			"doubleSided":true,
			"name":"Material.003",
			"pbrMetallicRoughness":{
				"baseColorTexture":{
					"index":2
				},
				"metallicFactor":0,
				"roughnessFactor":0.5
			}
		},
		{
			"doubleSided":true,
			"name":"Material.002",
			"pbrMetallicRoughness":{
				"baseColorTexture":{
					"index":3
				},
				"metallicFactor":0,
				"roughnessFactor":0.5
			}
		},
		{
			"doubleSided":true,
			"name":"Material.001",
			"pbrMetallicRoughness":{
				"baseColorTexture":{
					"index":4
				},
				"metallicFactor":0,
				"roughnessFactor":0.5
			}
		}
	],
	"meshes":[
		{
			"name":"Cube.002",
			"primitives":[
				{
					"attributes":{
						"POSITION":0,
						"NORMAL":1,
						"TEXCOORD_0":2
					},
					"indices":3,
					"material":0
				}
			]
		},
		{
			"name":"Cube.004",
			"primitives":[
				{
					"attributes":{
						"POSITION":4,
						"NORMAL":5,
						"TEXCOORD_0":6,
						"COLOR_0":7,
						"COLOR_1":8
					},
					"indices":9,
					"material":1
				}
			]
		},
		{
			"name":"Cube.005",
			"primitives":[
				{
					"attributes":{
						"POSITION":10,
						"NORMAL":11,
						"TEXCOORD_0":12,
						"COLOR_0":13,
						"COLOR_1":14
					},
					"indices":9,
					"material":2
				}
			]
		},
		{
			"name":"Cube.006",
			"primitives":[
				{
					"attributes":{
						"POSITION":15,
						"NORMAL":16,
						"TEXCOORD_0":17,
						"COLOR_0":18,
						"COLOR_1":19
					},
					"indices":9,
					"material":3
				}
			]
		},
		{
			"name":"Icosphere",
			"primitives":[
				{
					"attributes":{
						"POSITION":20,
						"NORMAL":21,
						"TEXCOORD_0":22,
						"COLOR_0":23,
						"COLOR_1":24
					},
					"indices":25,
					"material":3
				}
			]
		},
		{
			"name":"Icosphere.001",
			"primitives":[
				{
					"attributes":{
						"POSITION":26,
						"NORMAL":27,
						"TEXCOORD_0":28,
						"COLOR_0":29,
						"COLOR_1":30
					},
					"indices":25,
					"material":1
				}
			]
		},
		{
			"name":"Icosphere.002",
			"primitives":[
				{
					"attributes":{
						"POSITION":31,
						"NORMAL":32,
						"TEXCOORD_0":33,
						"COLOR_0":34,
						"COLOR_1":35
					},
					"indices":25,
					"material":2
				}
			]
		},
		{
			"name":"Cube.009",
			"primitives":[
				{
					"attributes":{
						"POSITION":36,
						"NORMAL":37,
						"TEXCOORD_0":38
					},
					"indices":9,
					"material":0
				}
			]
		},
		{
			"name":"Cube.010",
			"primitives":[
				{
					"attributes":{
						"POSITION":39,
						"NORMAL":40,
						"TEXCOORD_0":41
					},
					"indices":42,
					"material":0
				}
			]
		},
		{
			"name":"Cube.011",
			"primitives":[
				{
					"attributes":{
						"POSITION":43,
						"NORMAL":44,
						"TEXCOORD_0":45
					},
					"indices":46,
					"material":0
				}
			]
		},
		{
			"name":"Cube.012",
			"primitives":[
				{
					"attributes":{
						"POSITION":47,
						"NORMAL":48,
						"TEXCOORD_0":49
					},
					"indices":50,
					"material":0
				}
			]
		},
		{
			"name":"Cube.013",
			"primitives":[
				{
					"attributes":{
						"POSITION":51,
						"NORMAL":52,
						"TEXCOORD_0":53
					},
					"indices":54,
					"material":0
				}
			]
		},
		{
			"name":"Cube.014",
			"primitives":[
				{
					"attributes":{
						"POSITION":55,
						"NORMAL":56,
						"TEXCOORD_0":57
					},
					"indices":58,
					"material":0
				}
			]
		}
	],
	"textures":[
		{
			"sampler":0,
			"source":0
		},
		{
			"sampler":0,
			"source":1
		},
		{
			"sampler":0,
			"source":2
		},
		{
			"sampler":0,
			"source":3
		},
		{
			"sampler":0,
			"source":4
		}
	],
	"images":[
		{
			"mimeType":"image/png",
			"name":"tilenormal1024",
			"uri":"tilenormal1024.png"
		},
		{
			"mimeType":"image/png",
			"name":"wtile1024",
			"uri":"wtile1024.png"
		},
		{
			"mimeType":"image/png",
			"name":"blue",
			"uri":"blue.png"
		},
		{
			"mimeType":"image/png",
			"name":"green",
			"uri":"green.png"
		},
		{
			"mimeType":"image/png",
			"name":"red",
			"uri":"red.png"
		}
	],
	"accessors":[
		{
			"bufferView":0,
			"componentType":5126,
			"count":90,
			"max":[
				1,
				1.0823044776916504,
				1
			],
			"min":[
				-1,
				1,
				-1
			],
			"type":"VEC3"
		},
		{
			"bufferView":1,
			"componentType":5126,
			"count":90,
			"type":"VEC3"
		},
		{
			"bufferView":2,
			"componentType":5126,
			"count":90,
			"type":"VEC2"
		},
		{
			"bufferView":3,
			"componentType":5123,
			"count":168,
			"type":"SCALAR"
		},
		{
			"bufferView":4,
			"componentType":5126,
			"count":24,
			"max":[
				1,
				1,
				1
			],
			"min":[
				-1,
				-1,
				-1
			],
			"type":"VEC3"
		},
		{
			"bufferView":5,
			"componentType":5126,
			"count":24,
			"type":"VEC3"
		},
		{
			"bufferView":6,
			"componentType":5126,
			"count":24,
			"type":"VEC2"
		},
		{
			"bufferView":7,
			"componentType":5121,
			"count":24,
			"normalized":true,
			"type":"VEC4"
		},
		{
			"bufferView":8,
			"componentType":5123,
			"count":24,
			"normalized":true,
			"type":"VEC4"
		},
		{
			"bufferView":9,
			"componentType":5123,
			"count":36,
			"type":"SCALAR"
		},
		{
			"bufferView":10,
			"componentType":5126,
			"count":24,
			"max":[
				1,
				1,
				1
			],
			"min":[
				-1,
				-1,
				-1
			],
			"type":"VEC3"
		},
		{
			"bufferView":11,
			"componentType":5126,
			"count":24,
			"type":"VEC3"
		},
		{
			"bufferView":12,
			"componentType":5126,
			"count":24,
			"type":"VEC2"
		},
		{
			"bufferView":13,
			"componentType":5121,
			"count":24,
			"normalized":true,
			"type":"VEC4"
		},
		{
			"bufferView":14,
			"componentType":5123,
			"count":24,
			"normalized":true,
			"type":"VEC4"
		},
		{
			"bufferView":15,
			"componentType":5126,
			"count":24,
			"max":[
				1,
				1,
				1
			],
			"min":[
				-1,
				-1,
				-1
			],
			"type":"VEC3"
		},
		{
			"bufferView":16,
			"componentType":5126,
			"count":24,
			"type":"VEC3"
		},
		{
			"bufferView":17,
			"componentType":5126,
			"count":24,
			"type":"VEC2"
		},
		{
			"bufferView":18,
			"componentType":5121,
			"count":24,
			"normalized":true,
			"type":"VEC4"
		},
		{
			"bufferView":19,
			"componentType":5123,
			"count":24,
			"normalized":true,
			"type":"VEC4"
		},
		{
			"bufferView":20,
			"componentType":5126,
			"count":63,
			"max":[
				0.9510578513145447,
				1,
				0.9999999403953552
			],
			"min":[
				-0.9510578513145447,
				-1,
				-0.9999999403953552
			],
			"type":"VEC3"
		},
		{
			"bufferView":21,
			"componentType":5126,
			"count":63,
			"type":"VEC3"
		},
		{
			"bufferView":22,
			"componentType":5126,
			"count":63,
			"type":"VEC2"
		},
		{
			"bufferView":23,
			"componentType":5121,
			"count":63,
			"normalized":true,
			"type":"VEC4"
		},
		{
			"bufferView":24,
			"componentType":5123,
			"count":63,
			"normalized":true,
			"type":"VEC4"
		},
		{
			"bufferView":25,
			"componentType":5123,
			"count":240,
			"type":"SCALAR"
		},
		{
			"bufferView":26,
			"componentType":5126,
			"count":63,
			"max":[
				0.9510578513145447,
				1,
				0.9999999403953552
			],
			"min":[
				-0.9510578513145447,
				-1,
				-0.9999999403953552
			],
			"type":"VEC3"
		},
		{
			"bufferView":27,
			"componentType":5126,
			"count":63,
			"type":"VEC3"
		},
		{
			"bufferView":28,
			"componentType":5126,
			"count":63,
			"type":"VEC2"
		},
		{
			"bufferView":29,
			"componentType":5121,
			"count":63,
			"normalized":true,
			"type":"VEC4"
		},
		{
			"bufferView":30,
			"componentType":5123,
			"count":63,
			"normalized":true,
			"type":"VEC4"
		},
		{
			"bufferView":31,
			"componentType":5126,
			"count":63,
			"max":[
				0.9510578513145447,
				1,
				0.9999999403953552
			],
			"min":[
				-0.9510578513145447,
				-1,
				-0.9999999403953552
			],
			"type":"VEC3"
		},
		{
			"bufferView":32,
			"componentType":5126,
			"count":63,
			"type":"VEC3"
		},
		{
			"bufferView":33,
			"componentType":5126,
			"count":63,
			"type":"VEC2"
		},
		{
			"bufferView":34,
			"componentType":5121,
			"count":63,
			"normalized":true,
			"type":"VEC4"
		},
		{
			"bufferView":35,
			"componentType":5123,
			"count":63,
			"normalized":true,
			"type":"VEC4"
		},
		{
			"bufferView":36,
			"componentType":5126,
			"count":24,
			"max":[
				1,
				1,
				1
			],
			"min":[
				-1,
				-1,
				-1
			],
			"type":"VEC3"
		},
		{
			"bufferView":37,
			"componentType":5126,
			"count":24,
			"type":"VEC3"
		},
		{
			"bufferView":38,
			"componentType":5126,
			"count":24,
			"type":"VEC2"
		},
		{
			"bufferView":39,
			"componentType":5126,
			"count":24,
			"max":[
				-1,
				1,
				1
			],
			"min":[
				-1.0625,
				-1,
				-1
			],
			"type":"VEC3"
		},
		{
			"bufferView":40,
			"componentType":5126,
			"count":24,
			"type":"VEC3"
		},
		{
			"bufferView":41,
			"componentType":5126,
			"count":24,
			"type":"VEC2"
		},
		{
			"bufferView":42,
			"componentType":5123,
			"count":36,
			"type":"SCALAR"
		},
		{
			"bufferView":43,
			"componentType":5126,
			"count":24,
			"max":[
				1,
				1,
				-1
			],
			"min":[
				-1,
				-1,
				-1.0399999618530273
			],
			"type":"VEC3"
		},
		{
			"bufferView":44,
			"componentType":5126,
			"count":24,
			"type":"VEC3"
		},
		{
			"bufferView":45,
			"componentType":5126,
			"count":24,
			"type":"VEC2"
		},
		{
			"bufferView":46,
			"componentType":5123,
			"count":36,
			"type":"SCALAR"
		},
		{
			"bufferView":47,
			"componentType":5126,
			"count":24,
			"max":[
				1,
				-1,
				1
			],
			"min":[
				-1,
				-1.0823044776916504,
				-1
			],
			"type":"VEC3"
		},
		{
			"bufferView":48,
			"componentType":5126,
			"count":24,
			"type":"VEC3"
		},
		{
			"bufferView":49,
			"componentType":5126,
			"count":24,
			"type":"VEC2"
		},
		{
			"bufferView":50,
			"componentType":5123,
			"count":36,
			"type":"SCALAR"
		},
		{
			"bufferView":51,
			"componentType":5126,
			"count":28,
			"max":[
				1,
				1,
				1.0399999618530273
			],
			"min":[
				-1,
				-1,
				1
			],
			"type":"VEC3"
		},
		{
			"bufferView":52,
			"componentType":5126,
			"count":28,
			"type":"VEC3"
		},
		{
			"bufferView":53,
			"componentType":5126,
			"count":28,
			"type":"VEC2"
		},
		{
			"bufferView":54,
			"componentType":5123,
			"count":48,
			"type":"SCALAR"
		},
		{
			"bufferView":55,
			"componentType":5126,
			"count":24,
			"max":[
				1.0625,
				1,
				1
			],
			"min":[
				1,
				-1,
				-1
			],
			"type":"VEC3"
		},
		{
			"bufferView":56,
			"componentType":5126,
			"count":24,
			"type":"VEC3"
		},
		{
			"bufferView":57,
			"componentType":5126,
			"count":24,
			"type":"VEC2"
		},
		{
			"bufferView":58,
			"componentType":5123,
			"count":36,
			"type":"SCALAR"
		}
	],
	"bufferViews":[
		{
			"buffer":0,
			"byteLength":1080,
			"byteOffset":0,
			"target":34962
		},
		{
			"buffer":0,
			"byteLength":1080,
			"byteOffset":1080,
			"target":34962
		},
		{
			"buffer":0,
			"byteLength":720,
			"byteOffset":2160,
			"target":34962
		},
		{
			"buffer":0,
			"byteLength":336,
			"byteOffset":2880,
			"target":34963
		},
		{
			"buffer":0,
			"byteLength":288,
			"byteOffset":3216,
			"target":34962
		},
		{
			"buffer":0,
			"byteLength":288,
			"byteOffset":3504,
			"target":34962
		},
		{
			"buffer":0,
			"byteLength":192,
			"byteOffset":3792,
			"target":34962
		},
		{
			"buffer":0,
			"byteLength":96,
			"byteOffset":3984,
			"target":34962
		},
		{
			"buffer":0,
			"byteLength":192,
			"byteOffset":4080,
			"target":34962
		},
		{
			"buffer":0,
			"byteLength":72,
			"byteOffset":4272,
			"target":34963
		},
		{
			"buffer":0,
			"byteLength":288,
			"byteOffset":4344,
			"target":34962
		},
		{
			"buffer":0,
			"byteLength":288,
			"byteOffset":4632,
			"target":34962
		},
		{
			"buffer":0,
			"byteLength":192,
			"byteOffset":4920,
			"target":34962
		},
		{
			"buffer":0,
			"byteLength":96,
			"byteOffset":5112,
			"target":34962
		},
		{
			"buffer":0,
			"byteLength":192,
			"byteOffset":5208,
			"target":34962
		},
		{
			"buffer":0,
			"byteLength":288,
			"byteOffset":5400,
			"target":34962
		},
		{
			"buffer":0,
			"byteLength":288,
			"byteOffset":5688,
			"target":34962
		},
		{
			"buffer":0,
			"byteLength":192,
			"byteOffset":5976,
			"target":34962
		},
		{
			"buffer":0,
			"byteLength":96,
			"byteOffset":6168,
			"target":34962
		},
		{
			"buffer":0,
			"byteLength":192,
			"byteOffset":6264,
			"target":34962
		},
		{
			"buffer":0,
			"byteLength":756,
			"byteOffset":6456,
			"target":34962
		},
		{
			"buffer":0,
			"byteLength":756,
			"byteOffset":7212,
			"target":34962
		},
		{
			"buffer":0,
			"byteLength":504,
			"byteOffset":7968,
			"target":34962
		},
		{
			"buffer":0,
			"byteLength":252,
			"byteOffset":8472,
			"target":34962
		},
		{
			"buffer":0,
			"byteLength":504,
			"byteOffset":8724,
			"target":34962
		},
		{
			"buffer":0,
			"byteLength":480,
			"byteOffset":9228,
			"target":34963
		},
		{
			"buffer":0,
			"byteLength":756,
			"byteOffset":9708,
			"target":34962
		},
		{
			"buffer":0,
			"byteLength":756,
			"byteOffset":10464,
			"target":34962
		},
		{
			"buffer":0,
			"byteLength":504,
			"byteOffset":11220,
			"target":34962
		},
		{
			"buffer":0,
			"byteLength":252,
			"byteOffset":11724,
			"target":34962
		},
		{
			"buffer":0,
			"byteLength":504,
			"byteOffset":11976,
			"target":34962
		},
		{
			"buffer":0,
			"byteLength":756,
			"byteOffset":12480,
			"target":34962
		},
		{
			"buffer":0,
			"byteLength":756,
			"byteOffset":13236,
			"target":34962
		},
		{
			"buffer":0,
			"byteLength":504,
			"byteOffset":13992,
			"target":34962
		},
		{
			"buffer":0,
			"byteLength":252,
			"byteOffset":14496,
			"target":34962
		},
		{
			"buffer":0,
			"byteLength":504,
			"byteOffset":14748,
			"target":34962
		},
		{
			"buffer":0,
			"byteLength":288,
			"byteOffset":15252,
			"target":34962
		},
		{
			"buffer":0,
			"byteLength":288,
			"byteOffset":15540,
			"target":34962
		},
		{
			"buffer":0,
			"byteLength":192,
			"byteOffset":15828,
			"target":34962
		},
		{
			"buffer":0,
			"byteLength":288,
			"byteOffset":16020,
			"target":34962
		},
		{
			"buffer":0,
			"byteLength":288,
			"byteOffset":16308,
			"target":34962
		},
		{
			"buffer":0,
			"byteLength":192,
			"byteOffset":16596,
			"target":34962
		},
		{
			"buffer":0,
			"byteLength":72,
			"byteOffset":16788,
			"target":34963
		},
		{
			"buffer":0,
			"byteLength":288,
			"byteOffset":16860,
			"target":34962
		},
		{
			"buffer":0,
			"byteLength":288,
			"byteOffset":17148,
			"target":34962
		},
		{
			"buffer":0,
			"byteLength":192,
			"byteOffset":17436,
			"target":34962
		},
		{
			"buffer":0,
			"byteLength":72,
			"byteOffset":17628,
			"target":34963
		},
		{
			"buffer":0,
			"byteLength":288,
			"byteOffset":17700,
			"target":34962
		},
		{
			"buffer":0,
			"byteLength":288,
			"byteOffset":17988,
			"target":34962
		},
		{
			"buffer":0,
			"byteLength":192,
			"byteOffset":18276,
			"target":34962
		},
		{
			"buffer":0,
			"byteLength":72,
			"byteOffset":18468,
			"target":34963
		},
		{
			"buffer":0,
			"byteLength":336,
			"byteOffset":18540,
			"target":34962
		},
		{
			"buffer":0,
			"byteLength":336,
			"byteOffset":18876,
			"target":34962
		},
		{
			"buffer":0,
			"byteLength":224,
			"byteOffset":19212,
			"target":34962
		},
		{
			"buffer":0,
			"byteLength":96,
			"byteOffset":19436,
			"target":34963
		},
		{
			"buffer":0,
			"byteLength":288,
			"byteOffset":19532,
			"target":34962
		},
		{
			"buffer":0,
			"byteLength":288,
			"byteOffset":19820,
			"target":34962
		},
		{
			"buffer":0,
			"byteLength":192,
			"byteOffset":20108,
			"target":34962
		},
		{
			"buffer":0,
			"byteLength":72,
			"byteOffset":20300,
			"target":34963
		}
	],
	"samplers":[
		{
			"magFilter":9729,
			"minFilter":9987
		}
	],
	"buffers":[
		{
			"byteLength":20372,
			"uri":"GItest.bin"
		}
	]
}
