{
	"asset":{
		"generator":"Khronos glTF Blender I/O v4.3.47",
		"version":"2.0"
	},
	"scene":0,
	"scenes":[
		{
			"name":"Scene",
			"nodes":[
				0,
				1,
				2
			]
		}
	],
	"nodes":[
		{
			"mesh":0,
			"name":"Plane.001",
			"translation":[
				1.9404802322387695,
				1.3842308521270752,
				0.22388218343257904
			]
		},
		{
			"mesh":1,
			"name":"Plane.002",
			"translation":[
				0.9404802322387695,
				4.3118743896484375,
				0.22388218343257904
			]
		},
		{
			"mesh":2,
			"name":"Plane.005",
			"translation":[
				0,
				1.3842308521270752,
				0.22388218343257904
			]
		}
	],
	"materials":[
		{
			"doubleSided":true,
			"name":"Material.002",
			"pbrMetallicRoughness":{
				"baseColorTexture":{
					"index":0
				},
				"metallicFactor":0,
				"roughnessFactor":0.5
			}
		},
		{
			"doubleSided":true,
			"name":"Material.003",
			"pbrMetallicRoughness":{
				"baseColorTexture":{
					"index":1
				},
				"metallicFactor":0,
				"roughnessFactor":0.5
			}
		},
		{
			"doubleSided":true,
			"name":"Material.006",
			"pbrMetallicRoughness":{
				"baseColorTexture":{
					"index":2
				},
				"metallicFactor":0,
				"roughnessFactor":0.5
			}
		}
	],
	"meshes":[
		{
			"name":"Plane.001",
			"primitives":[
				{
					"attributes":{
						"POSITION":0,
						"NORMAL":1,
						"TEXCOORD_0":2
					},
					"indices":3,
					"material":0
				}
			]
		},
		{
			"name":"Plane.002",
			"primitives":[
				{
					"attributes":{
						"POSITION":4,
						"NORMAL":5,
						"TEXCOORD_0":6
					},
					"indices":3,
					"material":1
				}
			]
		},
		{
			"name":"Plane.005",
			"primitives":[
				{
					"attributes":{
						"POSITION":7,
						"NORMAL":8,
						"TEXCOORD_0":9
					},
					"indices":3,
					"material":2
				}
			]
		}
	],
	"textures":[
		{
			"sampler":0,
			"source":0
		},
		{
			"sampler":0,
			"source":0
		},
		{
			"sampler":0,
			"source":0
		}
	],
	"images":[
		{
			"mimeType":"image/jpeg",
			"name":"rock_diffuse",
			"uri":"texture/rock_diffuse.jpg"
		}
	],
	"accessors":[
		{
			"bufferView":0,
			"componentType":5126,
			"count":1717,
			"max":[
				0.6717886924743652,
				0.7023804783821106,
				0.6717888712882996
			],
			"min":[
				-0.6717885136604309,
				-1.3807238340377808,
				-0.6717882752418518
			],
			"type":"VEC3"
		},
		{
			"bufferView":1,
			"componentType":5126,
			"count":1717,
			"type":"VEC3"
		},
		{
			"bufferView":2,
			"componentType":5126,
			"count":1717,
			"type":"VEC2"
		},
		{
			"bufferView":3,
			"componentType":5123,
			"count":7350,
			"type":"SCALAR"
		},
		{
			"bufferView":4,
			"componentType":5126,
			"count":1717,
			"max":[
				0.6717886924743652,
				0.7023804783821106,
				0.6717888712882996
			],
			"min":[
				-0.6717885136604309,
				-1.3807238340377808,
				-0.6717882752418518
			],
			"type":"VEC3"
		},
		{
			"bufferView":5,
			"componentType":5126,
			"count":1717,
			"type":"VEC3"
		},
		{
			"bufferView":6,
			"componentType":5126,
			"count":1717,
			"type":"VEC2"
		},
		{
			"bufferView":7,
			"componentType":5126,
			"count":1717,
			"max":[
				0.6717886924743652,
				0.7023804783821106,
				0.6717888712882996
			],
			"min":[
				-0.6717885136604309,
				-1.3807238340377808,
				-0.6717882752418518
			],
			"type":"VEC3"
		},
		{
			"bufferView":8,
			"componentType":5126,
			"count":1717,
			"type":"VEC3"
		},
		{
			"bufferView":9,
			"componentType":5126,
			"count":1717,
			"type":"VEC2"
		}
	],
	"bufferViews":[
		{
			"buffer":0,
			"byteLength":20604,
			"byteOffset":0,
			"target":34962
		},
		{
			"buffer":0,
			"byteLength":20604,
			"byteOffset":20604,
			"target":34962
		},
		{
			"buffer":0,
			"byteLength":13736,
			"byteOffset":41208,
			"target":34962
		},
		{
			"buffer":0,
			"byteLength":14700,
			"byteOffset":54944,
			"target":34963
		},
		{
			"buffer":0,
			"byteLength":20604,
			"byteOffset":69644,
			"target":34962
		},
		{
			"buffer":0,
			"byteLength":20604,
			"byteOffset":90248,
			"target":34962
		},
		{
			"buffer":0,
			"byteLength":13736,
			"byteOffset":110852,
			"target":34962
		},
		{
			"buffer":0,
			"byteLength":20604,
			"byteOffset":124588,
			"target":34962
		},
		{
			"buffer":0,
			"byteLength":20604,
			"byteOffset":145192,
			"target":34962
		},
		{
			"buffer":0,
			"byteLength":13736,
			"byteOffset":165796,
			"target":34962
		}
	],
	"samplers":[
		{
			"magFilter":9729,
			"minFilter":9987
		}
	],
	"buffers":[
		{
			"byteLength":179532,
			"uri":"vase2.bin"
		}
	]
}
