{
	"asset":{
		"generator":"Khronos glTF Blender I/O v4.3.47",
		"version":"2.0"
	},
	"scene":0,
	"scenes":[
		{
			"name":"Scene",
			"nodes":[
				0
			]
		}
	],
	"nodes":[
		{
			"mesh":0,
			"name":"Plane",
			"scale":[
				9.873137474060059,
				9.873137474060059,
				9.873137474060059
			]
		}
	],
	"materials":[
		{
			"doubleSided":true,
			"name":"Material.001",
			"pbrMetallicRoughness":{
				"baseColorTexture":{
					"index":0
				},
				"metallicFactor":0,
				"metallicRoughnessTexture":{
					"index":1
				}
			}
		}
	],
	"meshes":[
		{
			"name":"Plane",
			"primitives":[
				{
					"attributes":{
						"POSITION":0,
						"NORMAL":1,
						"TEXCOORD_0":2
					},
					"indices":3,
					"material":0
				}
			]
		}
	],
	"textures":[
		{
			"sampler":0,
			"source":0
		},
		{
			"sampler":0,
			"source":1
		}
	],
	"images":[
		{
			"mimeType":"image/jpeg",
			"name":"forrest_diffuse",
			"uri":"texture/forrest_diffuse.jpg"
		},
		{
			"mimeType":"image/jpeg",
			"name":"forrest_specular",
			"uri":"texture/forrest_specular.jpg"
		}
	],
	"accessors":[
		{
			"bufferView":0,
			"componentType":5126,
			"count":66049,
			"max":[
				141.9638214111328,
				1.7346382141113281,
				141.96385192871094
			],
			"min":[
				-141.9638214111328,
				-0.13057708740234375,
				-141.96389770507812
			],
			"type":"VEC3"
		},
		{
			"bufferView":1,
			"componentType":5126,
			"count":66049,
			"type":"VEC3"
		},
		{
			"bufferView":2,
			"componentType":5126,
			"count":66049,
			"type":"VEC2"
		},
		{
			"bufferView":3,
			"componentType":5125,
			"count":393216,
			"type":"SCALAR"
		}
	],
	"bufferViews":[
		{
			"buffer":0,
			"byteLength":792588,
			"byteOffset":0,
			"target":34962
		},
		{
			"buffer":0,
			"byteLength":792588,
			"byteOffset":792588,
			"target":34962
		},
		{
			"buffer":0,
			"byteLength":528392,
			"byteOffset":1585176,
			"target":34962
		},
		{
			"buffer":0,
			"byteLength":1572864,
			"byteOffset":2113568,
			"target":34963
		}
	],
	"samplers":[
		{
			"magFilter":9729,
			"minFilter":9987
		}
	],
	"buffers":[
		{
			"byteLength":3686432,
			"uri":"scene.bin"
		}
	]
}
