{
	"asset":{
		"generator":"Khronos glTF Blender I/O v4.4.56",
		"version":"2.0"
	},
	"scene":0,
	"scenes":[
		{
			"name":"Scene",
			"nodes":[
				0
			]
		}
	],
	"nodes":[
		{
			"mesh":0,
			"name":"Cube.003",
			"rotation":[
				0,
				0.7071068286895752,
				0,
				0.7071068286895752
			],
			"translation":[
				0.022555405274033546,
				-0.11549168825149536,
				1.9776768684387207
			]
		}
	],
	"materials":[
		{
			"doubleSided":true,
			"name":"Material.003",
			"pbrMetallicRoughness":{
				"baseColorTexture":{
					"index":0
				},
				"metallicFactor":0,
				"metallicRoughnessTexture":{
					"index":1
				}
			}
		}
	],
	"meshes":[
		{
			"name":"Cube.007",
			"primitives":[
				{
					"attributes":{
						"POSITION":0,
						"NORMAL":1,
						"TEXCOORD_0":2
					},
					"indices":3,
					"material":0
				}
			]
		}
	],
	"textures":[
		{
			"sampler":0,
			"source":0
		},
		{
			"sampler":0,
			"source":1
		}
	],
	"images":[
		{
			"mimeType":"image/png",
			"name":"tTBake2d",
			"uri":"tTBake2d.png"
		},
		{
			"mimeType":"image/png",
			"name":"SpecStand",
			"uri":"SpecStand.png"
		}
	],
	"accessors":[
		{
			"bufferView":0,
			"componentType":5126,
			"count":1690,
			"max":[
				3.192445993423462,
				3.0962376594543457,
				3.5818588733673096
			],
			"min":[
				-3.1918957233428955,
				-2.634141206741333,
				-3.572175979614258
			],
			"type":"VEC3"
		},
		{
			"bufferView":1,
			"componentType":5126,
			"count":1690,
			"type":"VEC3"
		},
		{
			"bufferView":2,
			"componentType":5126,
			"count":1690,
			"type":"VEC2"
		},
		{
			"bufferView":3,
			"componentType":5123,
			"count":4860,
			"type":"SCALAR"
		}
	],
	"bufferViews":[
		{
			"buffer":0,
			"byteLength":20280,
			"byteOffset":0,
			"target":34962
		},
		{
			"buffer":0,
			"byteLength":20280,
			"byteOffset":20280,
			"target":34962
		},
		{
			"buffer":0,
			"byteLength":13520,
			"byteOffset":40560,
			"target":34962
		},
		{
			"buffer":0,
			"byteLength":9720,
			"byteOffset":54080,
			"target":34963
		}
	],
	"samplers":[
		{
			"magFilter":9729,
			"minFilter":9987
		}
	],
	"buffers":[
		{
			"byteLength":63800,
			"uri":"stand.bin"
		}
	]
}
