{
	"asset":{
		"generator":"Khronos glTF Blender I/O v4.3.47",
		"version":"2.0"
	},
	"scene":0,
	"scenes":[
		{
			"name":"Scene",
			"nodes":[
				0
			]
		}
	],
	"nodes":[
		{
			"mesh":0,
			"name":"Plane",
			"translation":[
				0,
				0,
				0.22388218343257904
			]
		}
	],
	"materials":[
		{
			"doubleSided":true,
			"name":"Material.001",
			"pbrMetallicRoughness":{
				"baseColorTexture":{
					"index":0
				},
				"metallicFactor":0,
				"roughnessFactor":0.5
			}
		}
	],
	"meshes":[
		{
			"name":"Plane",
			"primitives":[
				{
					"attributes":{
						"POSITION":0,
						"NORMAL":1,
						"TEXCOORD_0":2
					},
					"indices":3,
					"material":0
				}
			]
		}
	],
	"textures":[
		{
			"sampler":0,
			"source":0
		}
	],
	"images":[
		{
			"mimeType":"image/jpeg",
			"name":"rock_diffuse",
			"uri":"texture/rock_diffuse.jpg"
		}
	],
	"accessors":[
		{
			"bufferView":0,
			"componentType":5126,
			"count":1717,
			"max":[
				0.6717886924743652,
				0.7023804783821106,
				0.6717888712882996
			],
			"min":[
				-0.6717885136604309,
				-1.3807238340377808,
				-0.6717882752418518
			],
			"type":"VEC3"
		},
		{
			"bufferView":1,
			"componentType":5126,
			"count":1717,
			"type":"VEC3"
		},
		{
			"bufferView":2,
			"componentType":5126,
			"count":1717,
			"type":"VEC2"
		},
		{
			"bufferView":3,
			"componentType":5123,
			"count":7350,
			"type":"SCALAR"
		}
	],
	"bufferViews":[
		{
			"buffer":0,
			"byteLength":20604,
			"byteOffset":0,
			"target":34962
		},
		{
			"buffer":0,
			"byteLength":20604,
			"byteOffset":20604,
			"target":34962
		},
		{
			"buffer":0,
			"byteLength":13736,
			"byteOffset":41208,
			"target":34962
		},
		{
			"buffer":0,
			"byteLength":14700,
			"byteOffset":54944,
			"target":34963
		}
	],
	"samplers":[
		{
			"magFilter":9729,
			"minFilter":9987
		}
	],
	"buffers":[
		{
			"byteLength":69644,
			"uri":"vase.bin"
		}
	]
}
