{
	"asset":{
		"generator":"Khronos glTF Blender I/O v4.5.47",
		"version":"2.0"
	},
	"extensionsUsed":[
		"KHR_materials_transmission",
		"KHR_materials_specular",
		"KHR_materials_ior"
	],
	"scene":0,
	"scenes":[
		{
			"name":"Scene",
			"nodes":[
				0
			]
		}
	],
	"nodes":[
		{
			"mesh":0,
			"name":"sibenik",
			"rotation":[
				0.7071068286895752,
				0,
				0,
				0.7071068286895752
			]
		}
	],
	"materials":[
		{
			"doubleSided":true,
			"extensions":{
				"KHR_materials_transmission":{
					"transmissionFactor":1
				},
				"KHR_materials_specular":{
					"specularFactor":0
				},
				"KHR_materials_ior":{
					"ior":1
				}
			},
			"name":"sprljci",
			"pbrMetallicRoughness":{
				"baseColorFactor":[
					0.784313976764679,
					0.784313976764679,
					0.784313976764679,
					1
				],
				"metallicFactor":0,
				"roughnessFactor":0.9105572700500488
			}
		},
		{
			"doubleSided":true,
			"extensions":{
				"KHR_materials_transmission":{
					"transmissionFactor":0.5
				},
				"KHR_materials_specular":{
					"specularFactor":0.20000000298023224
				},
				"KHR_materials_ior":{
					"ior":1
				}
			},
			"name":"staklo",
			"pbrMetallicRoughness":{
				"baseColorFactor":[
					0,
					0,
					0,
					1
				],
				"metallicFactor":0,
				"roughnessFactor":0.494035542011261
			}
		},
		{
			"doubleSided":true,
			"extensions":{
				"KHR_materials_transmission":{
					"transmissionFactor":1
				},
				"KHR_materials_specular":{
					"specularFactor":0
				},
				"KHR_materials_ior":{
					"ior":1
				}
			},
			"name":"kamen_zid",
			"normalTexture":{
				"index":0,
				"scale":0
			},
			"pbrMetallicRoughness":{
				"baseColorTexture":{
					"index":1
				},
				"metallicFactor":0,
				"roughnessFactor":0.9105572700500488
			}
		},
		{
			"doubleSided":true,
			"extensions":{
				"KHR_materials_transmission":{
					"transmissionFactor":1
				},
				"KHR_materials_specular":{
					"specularFactor":0
				},
				"KHR_materials_ior":{
					"ior":1
				}
			},
			"name":"stupovi",
			"pbrMetallicRoughness":{
				"baseColorTexture":{
					"index":2
				},
				"metallicFactor":0,
				"roughnessFactor":0.9105572700500488
			}
		},
		{
			"doubleSided":true,
			"extensions":{
				"KHR_materials_transmission":{
					"transmissionFactor":1
				},
				"KHR_materials_specular":{
					"specularFactor":0
				},
				"KHR_materials_ior":{
					"ior":1
				}
			},
			"name":"pod",
			"normalTexture":{
				"index":3,
				"scale":0
			},
			"pbrMetallicRoughness":{
				"baseColorTexture":{
					"index":4
				},
				"metallicFactor":0,
				"roughnessFactor":0.9105572700500488
			}
		},
		{
			"doubleSided":true,
			"extensions":{
				"KHR_materials_transmission":{
					"transmissionFactor":1
				},
				"KHR_materials_specular":{
					"specularFactor":0
				},
				"KHR_materials_ior":{
					"ior":1
				}
			},
			"name":"pod_tepih",
			"pbrMetallicRoughness":{
				"baseColorFactor":[
					1,
					0.11999999731779099,
					0.10000000149011612,
					1
				],
				"metallicFactor":0,
				"roughnessFactor":0.9105572700500488
			}
		},
		{
			"doubleSided":true,
			"extensions":{
				"KHR_materials_transmission":{
					"transmissionFactor":1
				},
				"KHR_materials_specular":{
					"specularFactor":0
				},
				"KHR_materials_ior":{
					"ior":1
				}
			},
			"name":"pod_rub",
			"normalTexture":{
				"index":5,
				"scale":0
			},
			"pbrMetallicRoughness":{
				"baseColorTexture":{
					"index":6
				},
				"metallicFactor":0,
				"roughnessFactor":0.9105572700500488
			}
		},
		{
			"doubleSided":true,
			"extensions":{
				"KHR_materials_transmission":{
					"transmissionFactor":1
				},
				"KHR_materials_specular":{
					"specularFactor":0
				},
				"KHR_materials_ior":{
					"ior":1
				}
			},
			"name":"kamen_zid_prozor",
			"normalTexture":{
				"index":7,
				"scale":0
			},
			"pbrMetallicRoughness":{
				"baseColorTexture":{
					"index":8
				},
				"metallicFactor":0,
				"roughnessFactor":0.9105572700500488
			}
		},
		{
			"doubleSided":true,
			"extensions":{
				"KHR_materials_transmission":{
					"transmissionFactor":1
				},
				"KHR_materials_specular":{
					"specularFactor":0
				},
				"KHR_materials_ior":{
					"ior":1
				}
			},
			"name":"zid_vani",
			"normalTexture":{
				"index":9,
				"scale":0
			},
			"pbrMetallicRoughness":{
				"baseColorTexture":{
					"index":10
				},
				"metallicFactor":0,
				"roughnessFactor":0.9105572700500488
			}
		},
		{
			"doubleSided":true,
			"extensions":{
				"KHR_materials_transmission":{
					"transmissionFactor":1
				},
				"KHR_materials_specular":{
					"specularFactor":0
				},
				"KHR_materials_ior":{
					"ior":1
				}
			},
			"name":"kamen_zid_parapet",
			"pbrMetallicRoughness":{
				"baseColorTexture":{
					"index":11
				},
				"metallicFactor":0,
				"roughnessFactor":0.9105572700500488
			}
		},
		{
			"alphaMode":"BLEND",
			"doubleSided":true,
			"extensions":{
				"KHR_materials_transmission":{
					"transmissionFactor":0.800000011920929
				},
				"KHR_materials_specular":{
					"specularFactor":0.7921566963195801
				},
				"KHR_materials_ior":{
					"ior":1
				}
			},
			"name":"staklo_crveno",
			"pbrMetallicRoughness":{
				"baseColorFactor":[
					0.44117599725723267,
					0.10392200201749802,
					0.04901999980211258,
					0.800000011920929
				],
				"metallicFactor":0,
				"roughnessFactor":0.494035542011261
			}
		},
		{
			"doubleSided":true,
			"extensions":{
				"KHR_materials_transmission":{
					"transmissionFactor":1
				},
				"KHR_materials_specular":{
					"specularFactor":0
				},
				"KHR_materials_ior":{
					"ior":1
				}
			},
			"name":"rozeta",
			"pbrMetallicRoughness":{
				"baseColorTexture":{
					"index":12
				},
				"metallicFactor":0,
				"roughnessFactor":0.9105572700500488
			}
		},
		{
			"doubleSided":true,
			"extensions":{
				"KHR_materials_transmission":{
					"transmissionFactor":0.25751665234565735
				},
				"KHR_materials_specular":{
					"specularFactor":0.20000000298023224
				},
				"KHR_materials_ior":{
					"ior":1
				}
			},
			"name":"staklo_zeleno",
			"pbrMetallicRoughness":{
				"baseColorFactor":[
					0,
					0,
					0,
					1
				],
				"metallicFactor":0,
				"roughnessFactor":0.494035542011261
			}
		},
		{
			"doubleSided":true,
			"extensions":{
				"KHR_materials_transmission":{
					"transmissionFactor":0.33725500106811523
				},
				"KHR_materials_specular":{
					"specularFactor":0.20000000298023224
				},
				"KHR_materials_ior":{
					"ior":1
				}
			},
			"name":"staklo_plavo",
			"pbrMetallicRoughness":{
				"baseColorFactor":[
					0,
					0,
					0,
					1
				],
				"metallicFactor":0,
				"roughnessFactor":0.494035542011261
			}
		},
		{
			"doubleSided":true,
			"extensions":{
				"KHR_materials_transmission":{
					"transmissionFactor":0.6326797008514404
				},
				"KHR_materials_specular":{
					"specularFactor":0.20000000298023224
				},
				"KHR_materials_ior":{
					"ior":1
				}
			},
			"name":"staklo_zuto",
			"pbrMetallicRoughness":{
				"baseColorFactor":[
					0,
					0,
					0,
					1
				],
				"metallicFactor":0,
				"roughnessFactor":0.494035542011261
			}
		}
	],
	"meshes":[
		{
			"name":"sibenik",
			"primitives":[
				{
					"attributes":{
						"POSITION":0,
						"NORMAL":1,
						"TEXCOORD_0":2
					},
					"indices":3,
					"material":0
				},
				{
					"attributes":{
						"POSITION":4,
						"NORMAL":5,
						"TEXCOORD_0":6
					},
					"indices":7,
					"material":1
				},
				{
					"attributes":{
						"POSITION":8,
						"NORMAL":9,
						"TEXCOORD_0":10
					},
					"indices":11,
					"material":2
				},
				{
					"attributes":{
						"POSITION":12,
						"NORMAL":13,
						"TEXCOORD_0":14
					},
					"indices":15,
					"material":3
				},
				{
					"attributes":{
						"POSITION":16,
						"NORMAL":17,
						"TEXCOORD_0":18
					},
					"indices":19,
					"material":4
				},
				{
					"attributes":{
						"POSITION":20,
						"NORMAL":21,
						"TEXCOORD_0":22
					},
					"indices":23,
					"material":5
				},
				{
					"attributes":{
						"POSITION":24,
						"NORMAL":25,
						"TEXCOORD_0":26
					},
					"indices":27,
					"material":6
				},
				{
					"attributes":{
						"POSITION":28,
						"NORMAL":29,
						"TEXCOORD_0":30
					},
					"indices":31,
					"material":7
				},
				{
					"attributes":{
						"POSITION":32,
						"NORMAL":33,
						"TEXCOORD_0":34
					},
					"indices":35,
					"material":8
				},
				{
					"attributes":{
						"POSITION":36,
						"NORMAL":37,
						"TEXCOORD_0":38
					},
					"indices":39,
					"material":9
				},
				{
					"attributes":{
						"POSITION":40,
						"NORMAL":41,
						"TEXCOORD_0":42
					},
					"indices":43,
					"material":10
				},
				{
					"attributes":{
						"POSITION":44,
						"NORMAL":45,
						"TEXCOORD_0":46
					},
					"indices":47,
					"material":11
				},
				{
					"attributes":{
						"POSITION":48,
						"NORMAL":49,
						"TEXCOORD_0":50
					},
					"indices":51,
					"material":12
				},
				{
					"attributes":{
						"POSITION":52,
						"NORMAL":53,
						"TEXCOORD_0":54
					},
					"indices":55,
					"material":13
				},
				{
					"attributes":{
						"POSITION":56,
						"NORMAL":57,
						"TEXCOORD_0":58
					},
					"indices":59,
					"material":14
				}
			]
		}
	],
	"textures":[
		{
			"sampler":0,
			"source":0
		},
		{
			"sampler":0,
			"source":1
		},
		{
			"sampler":0,
			"source":2
		},
		{
			"sampler":0,
			"source":3
		},
		{
			"sampler":0,
			"source":4
		},
		{
			"sampler":0,
			"source":0
		},
		{
			"sampler":0,
			"source":1
		},
		{
			"sampler":0,
			"source":0
		},
		{
			"sampler":0,
			"source":1
		},
		{
			"sampler":0,
			"source":0
		},
		{
			"sampler":0,
			"source":1
		},
		{
			"sampler":0,
			"source":2
		},
		{
			"sampler":0,
			"source":2
		}
	],
	"images":[
		{
			"mimeType":"image/png",
			"name":"kamen-bump",
			"uri":"kamen-bump.png"
		},
		{
			"mimeType":"image/png",
			"name":"kamen",
			"uri":"kamen.png"
		},
		{
			"mimeType":"image/png",
			"name":"KAMEN-stup",
			"uri":"KAMEN-stup.png"
		},
		{
			"mimeType":"image/png",
			"name":"mramor6x6-bump",
			"uri":"mramor6x6-bump.png"
		},
		{
			"mimeType":"image/png",
			"name":"mramor6x6",
			"uri":"mramor6x6.png"
		}
	],
	"accessors":[
		{
			"bufferView":0,
			"componentType":5126,
			"count":14169,
			"max":[
				19.123699188232422,
				6.1031999588012695,
				15.300000190734863
			],
			"min":[
				-19.831100463867188,
				-6.1031999588012695,
				-8.79601001739502
			],
			"type":"VEC3"
		},
		{
			"bufferView":1,
			"componentType":5126,
			"count":14169,
			"type":"VEC3"
		},
		{
			"bufferView":2,
			"componentType":5126,
			"count":14169,
			"type":"VEC2"
		},
		{
			"bufferView":3,
			"componentType":5123,
			"count":26352,
			"type":"SCALAR"
		},
		{
			"bufferView":4,
			"componentType":5126,
			"count":2351,
			"max":[
				19.145299911499023,
				7.829999923706055,
				13.3100004196167
			],
			"min":[
				-19.831100463867188,
				-7.829999923706055,
				-8.829999923706055
			],
			"type":"VEC3"
		},
		{
			"bufferView":5,
			"componentType":5126,
			"count":2351,
			"type":"VEC3"
		},
		{
			"bufferView":6,
			"componentType":5126,
			"count":2351,
			"type":"VEC2"
		},
		{
			"bufferView":7,
			"componentType":5123,
			"count":5157,
			"type":"SCALAR"
		},
		{
			"bufferView":8,
			"componentType":5126,
			"count":62739,
			"max":[
				19.16349983215332,
				8.100000381469727,
				15.300000190734863
			],
			"min":[
				-19.861099243164062,
				-8.100000381469727,
				-15.300000190734863
			],
			"type":"VEC3"
		},
		{
			"bufferView":9,
			"componentType":5126,
			"count":62739,
			"type":"VEC3"
		},
		{
			"bufferView":10,
			"componentType":5126,
			"count":62739,
			"type":"VEC2"
		},
		{
			"bufferView":11,
			"componentType":5123,
			"count":100242,
			"type":"SCALAR"
		},
		{
			"bufferView":12,
			"componentType":5126,
			"count":35087,
			"max":[
				16.619300842285156,
				5.75,
				15.300000190734863
			],
			"min":[
				-19.51110076904297,
				-5.75,
				-0.32999899983406067
			],
			"type":"VEC3"
		},
		{
			"bufferView":13,
			"componentType":5126,
			"count":35087,
			"type":"VEC3"
		},
		{
			"bufferView":14,
			"componentType":5126,
			"count":35087,
			"type":"VEC2"
		},
		{
			"bufferView":15,
			"componentType":5123,
			"count":44889,
			"type":"SCALAR"
		},
		{
			"bufferView":16,
			"componentType":5126,
			"count":223,
			"max":[
				15.194199562072754,
				7.610000133514404,
				15.300000190734863
			],
			"min":[
				-19.51110076904297,
				-7.679999828338623,
				13.729999542236328
			],
			"type":"VEC3"
		},
		{
			"bufferView":17,
			"componentType":5126,
			"count":223,
			"type":"VEC3"
		},
		{
			"bufferView":18,
			"componentType":5126,
			"count":223,
			"type":"VEC2"
		},
		{
			"bufferView":19,
			"componentType":5123,
			"count":753,
			"type":"SCALAR"
		},
		{
			"bufferView":20,
			"componentType":5126,
			"count":595,
			"max":[
				18.993799209594727,
				7.699999809265137,
				15.100000381469727
			],
			"min":[
				1.3939399719238281,
				-7.679999828338623,
				11.649999618530273
			],
			"type":"VEC3"
		},
		{
			"bufferView":21,
			"componentType":5126,
			"count":595,
			"type":"VEC3"
		},
		{
			"bufferView":22,
			"componentType":5126,
			"count":595,
			"type":"VEC2"
		},
		{
			"bufferView":23,
			"componentType":5123,
			"count":1581,
			"type":"SCALAR"
		},
		{
			"bufferView":24,
			"componentType":5126,
			"count":128,
			"max":[
				3.828939914703369,
				3.7200000286102295,
				15.300000190734863
			],
			"min":[
				-19.51110076904297,
				-7.3531999588012695,
				15.149999618530273
			],
			"type":"VEC3"
		},
		{
			"bufferView":25,
			"componentType":5126,
			"count":128,
			"type":"VEC3"
		},
		{
			"bufferView":26,
			"componentType":5126,
			"count":128,
			"type":"VEC2"
		},
		{
			"bufferView":27,
			"componentType":5123,
			"count":336,
			"type":"SCALAR"
		},
		{
			"bufferView":28,
			"componentType":5126,
			"count":3408,
			"max":[
				2.528939962387085,
				3.9832000732421875,
				13.609999656677246
			],
			"min":[
				-18.35110092163086,
				-7.633200168609619,
				0.17000000178813934
			],
			"type":"VEC3"
		},
		{
			"bufferView":29,
			"componentType":5126,
			"count":3408,
			"type":"VEC3"
		},
		{
			"bufferView":30,
			"componentType":5126,
			"count":3408,
			"type":"VEC2"
		},
		{
			"bufferView":31,
			"componentType":5123,
			"count":4806,
			"type":"SCALAR"
		},
		{
			"bufferView":32,
			"componentType":5126,
			"count":12551,
			"max":[
				20.14109992980957,
				8.496800422668457,
				15.312307357788086
			],
			"min":[
				-20.14109992980957,
				-8.496800422668457,
				-15.300000190734863
			],
			"type":"VEC3"
		},
		{
			"bufferView":33,
			"componentType":5126,
			"count":12551,
			"type":"VEC3"
		},
		{
			"bufferView":34,
			"componentType":5126,
			"count":12551,
			"type":"VEC2"
		},
		{
			"bufferView":35,
			"componentType":5123,
			"count":22944,
			"type":"SCALAR"
		},
		{
			"bufferView":36,
			"componentType":5126,
			"count":132,
			"max":[
				4.593939781188965,
				3.880000114440918,
				14.15999984741211
			],
			"min":[
				3.8039400577545166,
				-3.5999999046325684,
				13
			],
			"type":"VEC3"
		},
		{
			"bufferView":37,
			"componentType":5126,
			"count":132,
			"type":"VEC3"
		},
		{
			"bufferView":38,
			"componentType":5126,
			"count":132,
			"type":"VEC2"
		},
		{
			"bufferView":39,
			"componentType":5123,
			"count":240,
			"type":"SCALAR"
		},
		{
			"bufferView":40,
			"componentType":5126,
			"count":695,
			"max":[
				-19.76110076904297,
				1.7103099822998047,
				4.310309886932373
			],
			"min":[
				-19.76110076904297,
				-1.7103099822998047,
				0.8896909952163696
			],
			"type":"VEC3"
		},
		{
			"bufferView":41,
			"componentType":5126,
			"count":695,
			"type":"VEC3"
		},
		{
			"bufferView":42,
			"componentType":5126,
			"count":695,
			"type":"VEC2"
		},
		{
			"bufferView":43,
			"componentType":5123,
			"count":1443,
			"type":"SCALAR"
		},
		{
			"bufferView":44,
			"componentType":5126,
			"count":9913,
			"max":[
				-19.411100387573242,
				2.260309934616089,
				4.860310077667236
			],
			"min":[
				-20.14109992980957,
				-2.260309934616089,
				0.3396899998188019
			],
			"type":"VEC3"
		},
		{
			"bufferView":45,
			"componentType":5126,
			"count":9913,
			"type":"VEC3"
		},
		{
			"bufferView":46,
			"componentType":5126,
			"count":9913,
			"type":"VEC2"
		},
		{
			"bufferView":47,
			"componentType":5123,
			"count":15426,
			"type":"SCALAR"
		},
		{
			"bufferView":48,
			"componentType":5126,
			"count":413,
			"max":[
				-19.76110076904297,
				1.351140022277832,
				3.9511399269104004
			],
			"min":[
				-19.76110076904297,
				-1.351140022277832,
				1.2488600015640259
			],
			"type":"VEC3"
		},
		{
			"bufferView":49,
			"componentType":5126,
			"count":413,
			"type":"VEC3"
		},
		{
			"bufferView":50,
			"componentType":5126,
			"count":413,
			"type":"VEC2"
		},
		{
			"bufferView":51,
			"componentType":5123,
			"count":720,
			"type":"SCALAR"
		},
		{
			"bufferView":52,
			"componentType":5126,
			"count":352,
			"max":[
				-19.76110076904297,
				1.7103099822998047,
				4.310309886932373
			],
			"min":[
				-19.76110076904297,
				-1.7103099822998047,
				0.8896909952163696
			],
			"type":"VEC3"
		},
		{
			"bufferView":53,
			"componentType":5126,
			"count":352,
			"type":"VEC3"
		},
		{
			"bufferView":54,
			"componentType":5126,
			"count":352,
			"type":"VEC2"
		},
		{
			"bufferView":55,
			"componentType":5123,
			"count":720,
			"type":"SCALAR"
		},
		{
			"bufferView":56,
			"componentType":5126,
			"count":120,
			"max":[
				-19.76110076904297,
				1.5983999967575073,
				4.198400020599365
			],
			"min":[
				-19.76110076904297,
				-1.5983999967575073,
				1.0016000270843506
			],
			"type":"VEC3"
		},
		{
			"bufferView":57,
			"componentType":5126,
			"count":120,
			"type":"VEC3"
		},
		{
			"bufferView":58,
			"componentType":5126,
			"count":120,
			"type":"VEC2"
		},
		{
			"bufferView":59,
			"componentType":5123,
			"count":240,
			"type":"SCALAR"
		}
	],
	"bufferViews":[
		{
			"buffer":0,
			"byteLength":170028,
			"byteOffset":0,
			"target":34962
		},
		{
			"buffer":0,
			"byteLength":170028,
			"byteOffset":170028,
			"target":34962
		},
		{
			"buffer":0,
			"byteLength":113352,
			"byteOffset":340056,
			"target":34962
		},
		{
			"buffer":0,
			"byteLength":52704,
			"byteOffset":453408,
			"target":34963
		},
		{
			"buffer":0,
			"byteLength":28212,
			"byteOffset":506112,
			"target":34962
		},
		{
			"buffer":0,
			"byteLength":28212,
			"byteOffset":534324,
			"target":34962
		},
		{
			"buffer":0,
			"byteLength":18808,
			"byteOffset":562536,
			"target":34962
		},
		{
			"buffer":0,
			"byteLength":10314,
			"byteOffset":581344,
			"target":34963
		},
		{
			"buffer":0,
			"byteLength":752868,
			"byteOffset":591660,
			"target":34962
		},
		{
			"buffer":0,
			"byteLength":752868,
			"byteOffset":1344528,
			"target":34962
		},
		{
			"buffer":0,
			"byteLength":501912,
			"byteOffset":2097396,
			"target":34962
		},
		{
			"buffer":0,
			"byteLength":200484,
			"byteOffset":2599308,
			"target":34963
		},
		{
			"buffer":0,
			"byteLength":421044,
			"byteOffset":2799792,
			"target":34962
		},
		{
			"buffer":0,
			"byteLength":421044,
			"byteOffset":3220836,
			"target":34962
		},
		{
			"buffer":0,
			"byteLength":280696,
			"byteOffset":3641880,
			"target":34962
		},
		{
			"buffer":0,
			"byteLength":89778,
			"byteOffset":3922576,
			"target":34963
		},
		{
			"buffer":0,
			"byteLength":2676,
			"byteOffset":4012356,
			"target":34962
		},
		{
			"buffer":0,
			"byteLength":2676,
			"byteOffset":4015032,
			"target":34962
		},
		{
			"buffer":0,
			"byteLength":1784,
			"byteOffset":4017708,
			"target":34962
		},
		{
			"buffer":0,
			"byteLength":1506,
			"byteOffset":4019492,
			"target":34963
		},
		{
			"buffer":0,
			"byteLength":7140,
			"byteOffset":4021000,
			"target":34962
		},
		{
			"buffer":0,
			"byteLength":7140,
			"byteOffset":4028140,
			"target":34962
		},
		{
			"buffer":0,
			"byteLength":4760,
			"byteOffset":4035280,
			"target":34962
		},
		{
			"buffer":0,
			"byteLength":3162,
			"byteOffset":4040040,
			"target":34963
		},
		{
			"buffer":0,
			"byteLength":1536,
			"byteOffset":4043204,
			"target":34962
		},
		{
			"buffer":0,
			"byteLength":1536,
			"byteOffset":4044740,
			"target":34962
		},
		{
			"buffer":0,
			"byteLength":1024,
			"byteOffset":4046276,
			"target":34962
		},
		{
			"buffer":0,
			"byteLength":672,
			"byteOffset":4047300,
			"target":34963
		},
		{
			"buffer":0,
			"byteLength":40896,
			"byteOffset":4047972,
			"target":34962
		},
		{
			"buffer":0,
			"byteLength":40896,
			"byteOffset":4088868,
			"target":34962
		},
		{
			"buffer":0,
			"byteLength":27264,
			"byteOffset":4129764,
			"target":34962
		},
		{
			"buffer":0,
			"byteLength":9612,
			"byteOffset":4157028,
			"target":34963
		},
		{
			"buffer":0,
			"byteLength":150612,
			"byteOffset":4166640,
			"target":34962
		},
		{
			"buffer":0,
			"byteLength":150612,
			"byteOffset":4317252,
			"target":34962
		},
		{
			"buffer":0,
			"byteLength":100408,
			"byteOffset":4467864,
			"target":34962
		},
		{
			"buffer":0,
			"byteLength":45888,
			"byteOffset":4568272,
			"target":34963
		},
		{
			"buffer":0,
			"byteLength":1584,
			"byteOffset":4614160,
			"target":34962
		},
		{
			"buffer":0,
			"byteLength":1584,
			"byteOffset":4615744,
			"target":34962
		},
		{
			"buffer":0,
			"byteLength":1056,
			"byteOffset":4617328,
			"target":34962
		},
		{
			"buffer":0,
			"byteLength":480,
			"byteOffset":4618384,
			"target":34963
		},
		{
			"buffer":0,
			"byteLength":8340,
			"byteOffset":4618864,
			"target":34962
		},
		{
			"buffer":0,
			"byteLength":8340,
			"byteOffset":4627204,
			"target":34962
		},
		{
			"buffer":0,
			"byteLength":5560,
			"byteOffset":4635544,
			"target":34962
		},
		{
			"buffer":0,
			"byteLength":2886,
			"byteOffset":4641104,
			"target":34963
		},
		{
			"buffer":0,
			"byteLength":118956,
			"byteOffset":4643992,
			"target":34962
		},
		{
			"buffer":0,
			"byteLength":118956,
			"byteOffset":4762948,
			"target":34962
		},
		{
			"buffer":0,
			"byteLength":79304,
			"byteOffset":4881904,
			"target":34962
		},
		{
			"buffer":0,
			"byteLength":30852,
			"byteOffset":4961208,
			"target":34963
		},
		{
			"buffer":0,
			"byteLength":4956,
			"byteOffset":4992060,
			"target":34962
		},
		{
			"buffer":0,
			"byteLength":4956,
			"byteOffset":4997016,
			"target":34962
		},
		{
			"buffer":0,
			"byteLength":3304,
			"byteOffset":5001972,
			"target":34962
		},
		{
			"buffer":0,
			"byteLength":1440,
			"byteOffset":5005276,
			"target":34963
		},
		{
			"buffer":0,
			"byteLength":4224,
			"byteOffset":5006716,
			"target":34962
		},
		{
			"buffer":0,
			"byteLength":4224,
			"byteOffset":5010940,
			"target":34962
		},
		{
			"buffer":0,
			"byteLength":2816,
			"byteOffset":5015164,
			"target":34962
		},
		{
			"buffer":0,
			"byteLength":1440,
			"byteOffset":5017980,
			"target":34963
		},
		{
			"buffer":0,
			"byteLength":1440,
			"byteOffset":5019420,
			"target":34962
		},
		{
			"buffer":0,
			"byteLength":1440,
			"byteOffset":5020860,
			"target":34962
		},
		{
			"buffer":0,
			"byteLength":960,
			"byteOffset":5022300,
			"target":34962
		},
		{
			"buffer":0,
			"byteLength":480,
			"byteOffset":5023260,
			"target":34963
		}
	],
	"samplers":[
		{
			"magFilter":9729,
			"minFilter":9987
		}
	],
	"buffers":[
		{
			"byteLength":5023740,
			"uri":"sk.bin"
		}
	]
}
