{
	"asset":{
		"generator":"Khronos glTF Blender I/O v4.4.56",
		"version":"2.0"
	},
	"scene":0,
	"scenes":[
		{
			"name":"Scene",
			"nodes":[
				0
			]
		}
	],
	"nodes":[
		{
			"mesh":0,
			"name":"Cube.002"
		}
	],
	"materials":[
		{
			"alphaMode":"BLEND",
			"doubleSided":true,
			"name":"Material.006",
			"pbrMetallicRoughness":{
				"baseColorTexture":{
					"index":0
				},
				"metallicRoughnessTexture":{
					"index":1
				}
			}
		}
	],
	"meshes":[
		{
			"name":"Cube.003",
			"primitives":[
				{
					"attributes":{
						"POSITION":0,
						"NORMAL":1,
						"TEXCOORD_0":2
					},
					"indices":3,
					"material":0
				}
			]
		}
	],
	"textures":[
		{
			"sampler":0,
			"source":0
		},
		{
			"sampler":0,
			"source":1
		}
	],
	"images":[
		{
			"mimeType":"image/png",
			"name":"tex",
			"uri":"tex.png"
		},
		{
			"mimeType":"image/png",
			"name":"texspec",
			"uri":"texspec.png"
		}
	],
	"accessors":[
		{
			"bufferView":0,
			"componentType":5126,
			"count":1980,
			"max":[
				1.068911075592041,
				2.9000000953674316,
				1.068911075592041
			],
			"min":[
				-1.068911075592041,
				-0.20000001788139343,
				-1.068911075592041
			],
			"type":"VEC3"
		},
		{
			"bufferView":1,
			"componentType":5126,
			"count":1980,
			"type":"VEC3"
		},
		{
			"bufferView":2,
			"componentType":5126,
			"count":1980,
			"type":"VEC2"
		},
		{
			"bufferView":3,
			"componentType":5123,
			"count":3876,
			"type":"SCALAR"
		}
	],
	"bufferViews":[
		{
			"buffer":0,
			"byteLength":23760,
			"byteOffset":0,
			"target":34962
		},
		{
			"buffer":0,
			"byteLength":23760,
			"byteOffset":23760,
			"target":34962
		},
		{
			"buffer":0,
			"byteLength":15840,
			"byteOffset":47520,
			"target":34962
		},
		{
			"buffer":0,
			"byteLength":7752,
			"byteOffset":63360,
			"target":34963
		}
	],
	"samplers":[
		{
			"magFilter":9729,
			"minFilter":9987
		}
	],
	"buffers":[
		{
			"byteLength":71112,
			"uri":"boom.bin"
		}
	]
}
