{
	"asset":{
		"generator":"Khronos glTF Blender I/O v4.5.47",
		"version":"2.0"
	},
	"scene":0,
	"scenes":[
		{
			"name":"Scene",
			"nodes":[
				0,
				1,
				2,
				3,
				4,
				5,
				6,
				7,
				8,
				9,
				10,
				11
			]
		}
	],
	"nodes":[
		{
			"mesh":0,
			"name":"Sphere",
			"translation":[
				0,
				0,
				10
			]
		},
		{
			"mesh":1,
			"name":"Sphere.001",
			"translation":[
				0,
				0,
				8
			]
		},
		{
			"mesh":2,
			"name":"Sphere.002",
			"translation":[
				0,
				0,
				6
			]
		},
		{
			"mesh":3,
			"name":"Sphere.003",
			"translation":[
				0,
				0,
				4
			]
		},
		{
			"mesh":4,
			"name":"Sphere.004",
			"translation":[
				0,
				0,
				2
			]
		},
		{
			"mesh":5,
			"name":"Sphere.005"
		},
		{
			"mesh":6,
			"name":"Sphere.006",
			"translation":[
				0,
				0,
				-2
			]
		},
		{
			"mesh":7,
			"name":"Sphere.007",
			"translation":[
				0,
				0,
				-4
			]
		},
		{
			"mesh":8,
			"name":"Sphere.008",
			"translation":[
				0,
				0,
				-6
			]
		},
		{
			"mesh":9,
			"name":"Sphere.009",
			"translation":[
				0,
				0,
				-8
			]
		},
		{
			"mesh":10,
			"name":"Sphere.010",
			"translation":[
				0,
				0,
				-10
			]
		},
		{
			"mesh":11,
			"name":"Text.011",
			"rotation":[
				0.5,
				0.5,
				-0.5,
				0.4999999701976776
			],
			"translation":[
				0,
				2,
				11
			]
		}
	],
	"materials":[
		{
			"alphaMode":"MASK",
			"doubleSided":true,
			"name":"Material.001",
			"pbrMetallicRoughness":{
				"baseColorFactor":[
					0.800000011920929,
					0.800000011920929,
					0.800000011920929,
					0
				],
				"metallicFactor":0,
				"roughnessFactor":0.5
			}
		},
		{
			"alphaMode":"BLEND",
			"doubleSided":true,
			"name":"Material.002",
			"pbrMetallicRoughness":{
				"baseColorFactor":[
					0.800000011920929,
					0.800000011920929,
					0.800000011920929,
					0.10000000149011612
				],
				"metallicFactor":0,
				"roughnessFactor":0.5
			}
		},
		{
			"alphaMode":"BLEND",
			"doubleSided":true,
			"name":"Material.003",
			"pbrMetallicRoughness":{
				"baseColorFactor":[
					0.800000011920929,
					0.800000011920929,
					0.800000011920929,
					0.20000000298023224
				],
				"metallicFactor":0,
				"roughnessFactor":0.5
			}
		},
		{
			"alphaMode":"BLEND",
			"doubleSided":true,
			"name":"Material.004",
			"pbrMetallicRoughness":{
				"baseColorFactor":[
					0.800000011920929,
					0.800000011920929,
					0.800000011920929,
					0.30000001192092896
				],
				"metallicFactor":0,
				"roughnessFactor":0.5
			}
		},
		{
			"alphaMode":"BLEND",
			"doubleSided":true,
			"name":"Material.005",
			"pbrMetallicRoughness":{
				"baseColorFactor":[
					0.800000011920929,
					0.800000011920929,
					0.800000011920929,
					0.4000000059604645
				],
				"metallicFactor":0,
				"roughnessFactor":0.5
			}
		},
		{
			"alphaMode":"BLEND",
			"doubleSided":true,
			"name":"Material.006",
			"pbrMetallicRoughness":{
				"baseColorFactor":[
					0.800000011920929,
					0.800000011920929,
					0.800000011920929,
					0.5
				],
				"metallicFactor":0,
				"roughnessFactor":0.5
			}
		},
		{
			"alphaMode":"BLEND",
			"doubleSided":true,
			"name":"Material.007",
			"pbrMetallicRoughness":{
				"baseColorFactor":[
					0.800000011920929,
					0.800000011920929,
					0.800000011920929,
					0.6000000238418579
				],
				"metallicFactor":0,
				"roughnessFactor":0.5
			}
		},
		{
			"alphaMode":"BLEND",
			"doubleSided":true,
			"name":"Material.008",
			"pbrMetallicRoughness":{
				"baseColorFactor":[
					0.800000011920929,
					0.800000011920929,
					0.800000011920929,
					0.699999988079071
				],
				"metallicFactor":0,
				"roughnessFactor":0.5
			}
		},
		{
			"alphaMode":"BLEND",
			"doubleSided":true,
			"name":"Material.009",
			"pbrMetallicRoughness":{
				"baseColorFactor":[
					0.800000011920929,
					0.800000011920929,
					0.800000011920929,
					0.800000011920929
				],
				"metallicFactor":0,
				"roughnessFactor":0.5
			}
		},
		{
			"alphaMode":"BLEND",
			"doubleSided":true,
			"name":"Material.010",
			"pbrMetallicRoughness":{
				"baseColorFactor":[
					0.800000011920929,
					0.800000011920929,
					0.800000011920929,
					0.8999999761581421
				],
				"metallicFactor":0,
				"roughnessFactor":0.5
			}
		},
		{
			"doubleSided":true,
			"name":"Material.011",
			"pbrMetallicRoughness":{
				"baseColorFactor":[
					0.800000011920929,
					0.800000011920929,
					0.800000011920929,
					1
				],
				"metallicFactor":0,
				"roughnessFactor":0.5
			}
		}
	],
	"meshes":[
		{
			"name":"Sphere",
			"primitives":[
				{
					"attributes":{
						"POSITION":0,
						"NORMAL":1,
						"TEXCOORD_0":2
					},
					"indices":3,
					"material":0
				}
			]
		},
		{
			"name":"Sphere.001",
			"primitives":[
				{
					"attributes":{
						"POSITION":4,
						"NORMAL":5,
						"TEXCOORD_0":6
					},
					"indices":3,
					"material":1
				}
			]
		},
		{
			"name":"Sphere.002",
			"primitives":[
				{
					"attributes":{
						"POSITION":7,
						"NORMAL":8,
						"TEXCOORD_0":9
					},
					"indices":3,
					"material":2
				}
			]
		},
		{
			"name":"Sphere.003",
			"primitives":[
				{
					"attributes":{
						"POSITION":10,
						"NORMAL":11,
						"TEXCOORD_0":12
					},
					"indices":3,
					"material":3
				}
			]
		},
		{
			"name":"Sphere.004",
			"primitives":[
				{
					"attributes":{
						"POSITION":13,
						"NORMAL":14,
						"TEXCOORD_0":15
					},
					"indices":3,
					"material":4
				}
			]
		},
		{
			"name":"Sphere.005",
			"primitives":[
				{
					"attributes":{
						"POSITION":16,
						"NORMAL":17,
						"TEXCOORD_0":18
					},
					"indices":3,
					"material":5
				}
			]
		},
		{
			"name":"Sphere.006",
			"primitives":[
				{
					"attributes":{
						"POSITION":19,
						"NORMAL":20,
						"TEXCOORD_0":21
					},
					"indices":3,
					"material":6
				}
			]
		},
		{
			"name":"Sphere.007",
			"primitives":[
				{
					"attributes":{
						"POSITION":22,
						"NORMAL":23,
						"TEXCOORD_0":24
					},
					"indices":3,
					"material":7
				}
			]
		},
		{
			"name":"Sphere.008",
			"primitives":[
				{
					"attributes":{
						"POSITION":25,
						"NORMAL":26,
						"TEXCOORD_0":27
					},
					"indices":3,
					"material":8
				}
			]
		},
		{
			"name":"Sphere.009",
			"primitives":[
				{
					"attributes":{
						"POSITION":28,
						"NORMAL":29,
						"TEXCOORD_0":30
					},
					"indices":3,
					"material":9
				}
			]
		},
		{
			"name":"Sphere.010",
			"primitives":[
				{
					"attributes":{
						"POSITION":31,
						"NORMAL":32,
						"TEXCOORD_0":33
					},
					"indices":3,
					"material":10
				}
			]
		},
		{
			"name":"Text.011",
			"primitives":[
				{
					"attributes":{
						"POSITION":34,
						"NORMAL":35,
						"TEXCOORD_0":36
					},
					"indices":37
				}
			]
		}
	],
	"accessors":[
		{
			"bufferView":0,
			"componentType":5126,
			"count":559,
			"max":[
				0.9999997019767761,
				1,
				0.9999993443489075
			],
			"min":[
				-0.9999990463256836,
				-1,
				-1
			],
			"type":"VEC3"
		},
		{
			"bufferView":1,
			"componentType":5126,
			"count":559,
			"type":"VEC3"
		},
		{
			"bufferView":2,
			"componentType":5126,
			"count":559,
			"type":"VEC2"
		},
		{
			"bufferView":3,
			"componentType":5123,
			"count":2880,
			"type":"SCALAR"
		},
		{
			"bufferView":4,
			"componentType":5126,
			"count":559,
			"max":[
				0.9999997019767761,
				1,
				0.9999993443489075
			],
			"min":[
				-0.9999990463256836,
				-1,
				-1
			],
			"type":"VEC3"
		},
		{
			"bufferView":5,
			"componentType":5126,
			"count":559,
			"type":"VEC3"
		},
		{
			"bufferView":6,
			"componentType":5126,
			"count":559,
			"type":"VEC2"
		},
		{
			"bufferView":7,
			"componentType":5126,
			"count":559,
			"max":[
				0.9999997019767761,
				1,
				0.9999993443489075
			],
			"min":[
				-0.9999990463256836,
				-1,
				-1
			],
			"type":"VEC3"
		},
		{
			"bufferView":8,
			"componentType":5126,
			"count":559,
			"type":"VEC3"
		},
		{
			"bufferView":9,
			"componentType":5126,
			"count":559,
			"type":"VEC2"
		},
		{
			"bufferView":10,
			"componentType":5126,
			"count":559,
			"max":[
				0.9999997019767761,
				1,
				0.9999993443489075
			],
			"min":[
				-0.9999990463256836,
				-1,
				-1
			],
			"type":"VEC3"
		},
		{
			"bufferView":11,
			"componentType":5126,
			"count":559,
			"type":"VEC3"
		},
		{
			"bufferView":12,
			"componentType":5126,
			"count":559,
			"type":"VEC2"
		},
		{
			"bufferView":13,
			"componentType":5126,
			"count":559,
			"max":[
				0.9999997019767761,
				1,
				0.9999993443489075
			],
			"min":[
				-0.9999990463256836,
				-1,
				-1
			],
			"type":"VEC3"
		},
		{
			"bufferView":14,
			"componentType":5126,
			"count":559,
			"type":"VEC3"
		},
		{
			"bufferView":15,
			"componentType":5126,
			"count":559,
			"type":"VEC2"
		},
		{
			"bufferView":16,
			"componentType":5126,
			"count":559,
			"max":[
				0.9999997019767761,
				1,
				0.9999993443489075
			],
			"min":[
				-0.9999990463256836,
				-1,
				-1
			],
			"type":"VEC3"
		},
		{
			"bufferView":17,
			"componentType":5126,
			"count":559,
			"type":"VEC3"
		},
		{
			"bufferView":18,
			"componentType":5126,
			"count":559,
			"type":"VEC2"
		},
		{
			"bufferView":19,
			"componentType":5126,
			"count":559,
			"max":[
				0.9999997019767761,
				1,
				0.9999993443489075
			],
			"min":[
				-0.9999990463256836,
				-1,
				-1
			],
			"type":"VEC3"
		},
		{
			"bufferView":20,
			"componentType":5126,
			"count":559,
			"type":"VEC3"
		},
		{
			"bufferView":21,
			"componentType":5126,
			"count":559,
			"type":"VEC2"
		},
		{
			"bufferView":22,
			"componentType":5126,
			"count":559,
			"max":[
				0.9999997019767761,
				1,
				0.9999993443489075
			],
			"min":[
				-0.9999990463256836,
				-1,
				-1
			],
			"type":"VEC3"
		},
		{
			"bufferView":23,
			"componentType":5126,
			"count":559,
			"type":"VEC3"
		},
		{
			"bufferView":24,
			"componentType":5126,
			"count":559,
			"type":"VEC2"
		},
		{
			"bufferView":25,
			"componentType":5126,
			"count":559,
			"max":[
				0.9999997019767761,
				1,
				0.9999993443489075
			],
			"min":[
				-0.9999990463256836,
				-1,
				-1
			],
			"type":"VEC3"
		},
		{
			"bufferView":26,
			"componentType":5126,
			"count":559,
			"type":"VEC3"
		},
		{
			"bufferView":27,
			"componentType":5126,
			"count":559,
			"type":"VEC2"
		},
		{
			"bufferView":28,
			"componentType":5126,
			"count":559,
			"max":[
				0.9999997019767761,
				1,
				0.9999993443489075
			],
			"min":[
				-0.9999990463256836,
				-1,
				-1
			],
			"type":"VEC3"
		},
		{
			"bufferView":29,
			"componentType":5126,
			"count":559,
			"type":"VEC3"
		},
		{
			"bufferView":30,
			"componentType":5126,
			"count":559,
			"type":"VEC2"
		},
		{
			"bufferView":31,
			"componentType":5126,
			"count":559,
			"max":[
				0.9999997019767761,
				1,
				0.9999993443489075
			],
			"min":[
				-0.9999990463256836,
				-1,
				-1
			],
			"type":"VEC3"
		},
		{
			"bufferView":32,
			"componentType":5126,
			"count":559,
			"type":"VEC3"
		},
		{
			"bufferView":33,
			"componentType":5126,
			"count":559,
			"type":"VEC2"
		},
		{
			"bufferView":34,
			"componentType":5126,
			"count":2793,
			"max":[
				21.18899917602539,
				9.179392463920522e-07,
				1.0090007781982422
			],
			"min":[
				0,
				0,
				-0.6860000491142273
			],
			"type":"VEC3"
		},
		{
			"bufferView":35,
			"componentType":5126,
			"count":2793,
			"type":"VEC3"
		},
		{
			"bufferView":36,
			"componentType":5126,
			"count":2793,
			"type":"VEC2"
		},
		{
			"bufferView":37,
			"componentType":5123,
			"count":8271,
			"type":"SCALAR"
		}
	],
	"bufferViews":[
		{
			"buffer":0,
			"byteLength":6708,
			"byteOffset":0,
			"target":34962
		},
		{
			"buffer":0,
			"byteLength":6708,
			"byteOffset":6708,
			"target":34962
		},
		{
			"buffer":0,
			"byteLength":4472,
			"byteOffset":13416,
			"target":34962
		},
		{
			"buffer":0,
			"byteLength":5760,
			"byteOffset":17888,
			"target":34963
		},
		{
			"buffer":0,
			"byteLength":6708,
			"byteOffset":23648,
			"target":34962
		},
		{
			"buffer":0,
			"byteLength":6708,
			"byteOffset":30356,
			"target":34962
		},
		{
			"buffer":0,
			"byteLength":4472,
			"byteOffset":37064,
			"target":34962
		},
		{
			"buffer":0,
			"byteLength":6708,
			"byteOffset":41536,
			"target":34962
		},
		{
			"buffer":0,
			"byteLength":6708,
			"byteOffset":48244,
			"target":34962
		},
		{
			"buffer":0,
			"byteLength":4472,
			"byteOffset":54952,
			"target":34962
		},
		{
			"buffer":0,
			"byteLength":6708,
			"byteOffset":59424,
			"target":34962
		},
		{
			"buffer":0,
			"byteLength":6708,
			"byteOffset":66132,
			"target":34962
		},
		{
			"buffer":0,
			"byteLength":4472,
			"byteOffset":72840,
			"target":34962
		},
		{
			"buffer":0,
			"byteLength":6708,
			"byteOffset":77312,
			"target":34962
		},
		{
			"buffer":0,
			"byteLength":6708,
			"byteOffset":84020,
			"target":34962
		},
		{
			"buffer":0,
			"byteLength":4472,
			"byteOffset":90728,
			"target":34962
		},
		{
			"buffer":0,
			"byteLength":6708,
			"byteOffset":95200,
			"target":34962
		},
		{
			"buffer":0,
			"byteLength":6708,
			"byteOffset":101908,
			"target":34962
		},
		{
			"buffer":0,
			"byteLength":4472,
			"byteOffset":108616,
			"target":34962
		},
		{
			"buffer":0,
			"byteLength":6708,
			"byteOffset":113088,
			"target":34962
		},
		{
			"buffer":0,
			"byteLength":6708,
			"byteOffset":119796,
			"target":34962
		},
		{
			"buffer":0,
			"byteLength":4472,
			"byteOffset":126504,
			"target":34962
		},
		{
			"buffer":0,
			"byteLength":6708,
			"byteOffset":130976,
			"target":34962
		},
		{
			"buffer":0,
			"byteLength":6708,
			"byteOffset":137684,
			"target":34962
		},
		{
			"buffer":0,
			"byteLength":4472,
			"byteOffset":144392,
			"target":34962
		},
		{
			"buffer":0,
			"byteLength":6708,
			"byteOffset":148864,
			"target":34962
		},
		{
			"buffer":0,
			"byteLength":6708,
			"byteOffset":155572,
			"target":34962
		},
		{
			"buffer":0,
			"byteLength":4472,
			"byteOffset":162280,
			"target":34962
		},
		{
			"buffer":0,
			"byteLength":6708,
			"byteOffset":166752,
			"target":34962
		},
		{
			"buffer":0,
			"byteLength":6708,
			"byteOffset":173460,
			"target":34962
		},
		{
			"buffer":0,
			"byteLength":4472,
			"byteOffset":180168,
			"target":34962
		},
		{
			"buffer":0,
			"byteLength":6708,
			"byteOffset":184640,
			"target":34962
		},
		{
			"buffer":0,
			"byteLength":6708,
			"byteOffset":191348,
			"target":34962
		},
		{
			"buffer":0,
			"byteLength":4472,
			"byteOffset":198056,
			"target":34962
		},
		{
			"buffer":0,
			"byteLength":33516,
			"byteOffset":202528,
			"target":34962
		},
		{
			"buffer":0,
			"byteLength":33516,
			"byteOffset":236044,
			"target":34962
		},
		{
			"buffer":0,
			"byteLength":22344,
			"byteOffset":269560,
			"target":34962
		},
		{
			"buffer":0,
			"byteLength":16542,
			"byteOffset":291904,
			"target":34963
		}
	],
	"buffers":[
		{
			"byteLength":308448,
			"uri":"alphaballs.bin"
		}
	]
}
