{
	"asset":{
		"generator":"Khronos glTF Blender I/O v4.5.47",
		"version":"2.0"
	},
	"scene":0,
	"scenes":[
		{
			"name":"Scene",
			"nodes":[
				0
			]
		}
	],
	"nodes":[
		{
			"mesh":0,
			"name":"Torus"
		}
	],
	"materials":[
		{
			"doubleSided":true,
			"name":"Material.001",
			"pbrMetallicRoughness":{
				"baseColorTexture":{
					"index":0
				},
				"metallicFactor":0,
				"roughnessFactor":0.5
			}
		}
	],
	"meshes":[
		{
			"name":"Torus",
			"primitives":[
				{
					"attributes":{
						"POSITION":0,
						"NORMAL":1,
						"TEXCOORD_0":2,
						"COLOR_0":3,
						"COLOR_1":4
					},
					"indices":5,
					"material":0
				}
			]
		}
	],
	"textures":[
		{
			"sampler":0,
			"source":0
		}
	],
	"images":[
		{
			"mimeType":"image/png",
			"name":"tile1024",
			"uri":"tile1024.png"
		}
	],
	"accessors":[
		{
			"bufferView":0,
			"componentType":5126,
			"count":791,
			"max":[
				1.25,
				0.25,
				1.25
			],
			"min":[
				-1.25,
				-0.25,
				-1.25
			],
			"type":"VEC3"
		},
		{
			"bufferView":1,
			"componentType":5126,
			"count":791,
			"type":"VEC3"
		},
		{
			"bufferView":2,
			"componentType":5126,
			"count":791,
			"type":"VEC2"
		},
		{
			"bufferView":3,
			"componentType":5121,
			"count":791,
			"normalized":true,
			"type":"VEC4"
		},
		{
			"bufferView":4,
			"componentType":5123,
			"count":791,
			"normalized":true,
			"type":"VEC4"
		},
		{
			"bufferView":5,
			"componentType":5123,
			"count":3456,
			"type":"SCALAR"
		}
	],
	"bufferViews":[
		{
			"buffer":0,
			"byteLength":9492,
			"byteOffset":0,
			"target":34962
		},
		{
			"buffer":0,
			"byteLength":9492,
			"byteOffset":9492,
			"target":34962
		},
		{
			"buffer":0,
			"byteLength":6328,
			"byteOffset":18984,
			"target":34962
		},
		{
			"buffer":0,
			"byteLength":3164,
			"byteOffset":25312,
			"target":34962
		},
		{
			"buffer":0,
			"byteLength":6328,
			"byteOffset":28476,
			"target":34962
		},
		{
			"buffer":0,
			"byteLength":6912,
			"byteOffset":34804,
			"target":34963
		}
	],
	"samplers":[
		{
			"magFilter":9729,
			"minFilter":9987
		}
	],
	"buffers":[
		{
			"byteLength":41716,
			"uri":"torus.bin"
		}
	]
}
