{
	"asset":{
		"generator":"Khronos glTF Blender I/O v4.3.47",
		"version":"2.0"
	},
	"scene":0,
	"scenes":[
		{
			"name":"Scene",
			"nodes":[
				0
			]
		}
	],
	"nodes":[
		{
			"mesh":0,
			"name":"Circle",
			"scale":[
				200,
				1,
				200
			],
			"translation":[
				0,
				-72.05375671386719,
				0
			]
		}
	],
	"materials":[
		{
			"doubleSided":true,
			"name":"Material.001",
			"pbrMetallicRoughness":{
				"baseColorTexture":{
					"index":0
				},
				"metallicRoughnessTexture":{
					"index":1
				}
			}
		}
	],
	"meshes":[
		{
			"name":"Circle",
			"primitives":[
				{
					"attributes":{
						"POSITION":0,
						"NORMAL":1,
						"TEXCOORD_0":2
					},
					"indices":3,
					"material":0
				}
			]
		}
	],
	"textures":[
		{
			"sampler":0,
			"source":0
		},
		{
			"sampler":0,
			"source":1
		}
	],
	"images":[
		{
			"mimeType":"image/jpeg",
			"name":"forrest_diffuse",
			"uri":"texture/forrest_diffuse.jpg"
		},
		{
			"mimeType":"image/png",
			"name":"forrest_specular-forrest_specular",
			"uri":"texture/forrest_specular-forrest_specular.png"
		}
	],
	"accessors":[
		{
			"bufferView":0,
			"componentType":5126,
			"count":131585,
			"max":[
				1,
				4.278369903564453,
				1
			],
			"min":[
				-1,
				0.7814348936080933,
				-1
			],
			"type":"VEC3"
		},
		{
			"bufferView":1,
			"componentType":5126,
			"count":131585,
			"type":"VEC3"
		},
		{
			"bufferView":2,
			"componentType":5126,
			"count":131585,
			"type":"VEC2"
		},
		{
			"bufferView":3,
			"componentType":5125,
			"count":786432,
			"type":"SCALAR"
		}
	],
	"bufferViews":[
		{
			"buffer":0,
			"byteLength":1579020,
			"byteOffset":0,
			"target":34962
		},
		{
			"buffer":0,
			"byteLength":1579020,
			"byteOffset":1579020,
			"target":34962
		},
		{
			"buffer":0,
			"byteLength":1052680,
			"byteOffset":3158040,
			"target":34962
		},
		{
			"buffer":0,
			"byteLength":3145728,
			"byteOffset":4210720,
			"target":34963
		}
	],
	"samplers":[
		{
			"magFilter":9729,
			"minFilter":9987
		}
	],
	"buffers":[
		{
			"byteLength":7356448,
			"uri":"grass.bin"
		}
	]
}
