{
	"asset":{
		"generator":"Khronos glTF Blender I/O v4.3.47",
		"version":"2.0"
	},
	"scene":0,
	"scenes":[
		{
			"name":"Scene",
			"nodes":[
				0
			]
		}
	],
	"nodes":[
		{
			"mesh":0,
			"name":"Plane",
			"scale":[
				-10000,
				-10000,
				-10000
			],
			"translation":[
				0,
				-110,
				0
			]
		}
	],
	"materials":[
		{
			"doubleSided":true,
			"name":"Material.005",
			"pbrMetallicRoughness":{
				"baseColorTexture":{
					"index":0
				},
				"metallicFactor":0,
				"roughnessFactor":0.5
			}
		}
	],
	"meshes":[
		{
			"name":"Plane",
			"primitives":[
				{
					"attributes":{
						"POSITION":0,
						"NORMAL":1,
						"TEXCOORD_0":2,
						"TEXCOORD_1":3
					},
					"indices":4,
					"material":0
				}
			]
		}
	],
	"textures":[
		{
			"sampler":0,
			"source":0
		}
	],
	"images":[
		{
			"mimeType":"image/png",
			"name":"Map_Diffuse",
			"uri":"texture/Map_Diffuse.png"
		}
	],
	"accessors":[
		{
			"bufferView":0,
			"componentType":5126,
			"count":132293,
			"max":[
				1,
				0,
				1
			],
			"min":[
				-1,
				-0.01096737664192915,
				-1
			],
			"type":"VEC3"
		},
		{
			"bufferView":1,
			"componentType":5126,
			"count":132293,
			"type":"VEC3"
		},
		{
			"bufferView":2,
			"componentType":5126,
			"count":132293,
			"type":"VEC2"
		},
		{
			"bufferView":3,
			"componentType":5126,
			"count":132293,
			"type":"VEC2"
		},
		{
			"bufferView":4,
			"componentType":5125,
			"count":788346,
			"type":"SCALAR"
		}
	],
	"bufferViews":[
		{
			"buffer":0,
			"byteLength":1587516,
			"byteOffset":0,
			"target":34962
		},
		{
			"buffer":0,
			"byteLength":1587516,
			"byteOffset":1587516,
			"target":34962
		},
		{
			"buffer":0,
			"byteLength":1058344,
			"byteOffset":3175032,
			"target":34962
		},
		{
			"buffer":0,
			"byteLength":1058344,
			"byteOffset":4233376,
			"target":34962
		},
		{
			"buffer":0,
			"byteLength":3153384,
			"byteOffset":5291720,
			"target":34963
		}
	],
	"samplers":[
		{
			"magFilter":9729,
			"minFilter":9987
		}
	],
	"buffers":[
		{
			"byteLength":8445104,
			"uri":"map.bin"
		}
	]
}
