{
	"asset":{
		"generator":"Khronos glTF Blender I/O v4.4.56",
		"version":"2.0"
	},
	"scene":0,
	"scenes":[
		{
			"name":"Scene",
			"nodes":[
				0
			]
		}
	],
	"nodes":[
		{
			"mesh":0,
			"name":"Circle.001",
			"rotation":[
				0.7071068286895752,
				0,
				0,
				0.7071068286895752
			],
			"scale":[
				0.18000000715255737,
				0.18000000715255737,
				0.18000000715255737
			],
			"translation":[
				0,
				4.5,
				-0.6000000238418579
			]
		}
	],
	"materials":[
		{
			"doubleSided":true,
			"name":"Material.003",
			"normalTexture":{
				"index":0
			},
			"pbrMetallicRoughness":{
				"baseColorTexture":{
					"index":1
				},
				"metallicFactor":0,
				"metallicRoughnessTexture":{
					"index":2
				}
			}
		}
	],
	"meshes":[
		{
			"name":"Circle.001",
			"primitives":[
				{
					"attributes":{
						"POSITION":0,
						"NORMAL":1,
						"TEXCOORD_0":2
					},
					"indices":3,
					"material":0
				}
			]
		}
	],
	"textures":[
		{
			"sampler":0,
			"source":0
		},
		{
			"sampler":0,
			"source":1
		},
		{
			"sampler":0,
			"source":2
		}
	],
	"images":[
		{
			"mimeType":"image/png",
			"name":"baked",
			"uri":"baked.png"
		},
		{
			"mimeType":"image/png",
			"name":"bakeddiffuse",
			"uri":"bakeddiffuse.png"
		},
		{
			"mimeType":"image/png",
			"name":"bakedspec",
			"uri":"bakedspec.png"
		}
	],
	"accessors":[
		{
			"bufferView":0,
			"componentType":5126,
			"count":1745,
			"max":[
				1.888888955116272,
				5.000000953674316,
				25.0000057220459
			],
			"min":[
				-1.888888955116272,
				-6.888889312744141,
				-2.9999940395355225
			],
			"type":"VEC3"
		},
		{
			"bufferView":1,
			"componentType":5126,
			"count":1745,
			"type":"VEC3"
		},
		{
			"bufferView":2,
			"componentType":5126,
			"count":1745,
			"type":"VEC2"
		},
		{
			"bufferView":3,
			"componentType":5123,
			"count":5736,
			"type":"SCALAR"
		}
	],
	"bufferViews":[
		{
			"buffer":0,
			"byteLength":20940,
			"byteOffset":0,
			"target":34962
		},
		{
			"buffer":0,
			"byteLength":20940,
			"byteOffset":20940,
			"target":34962
		},
		{
			"buffer":0,
			"byteLength":13960,
			"byteOffset":41880,
			"target":34962
		},
		{
			"buffer":0,
			"byteLength":11472,
			"byteOffset":55840,
			"target":34963
		}
	],
	"samplers":[
		{
			"magFilter":9729,
			"minFilter":9987
		}
	],
	"buffers":[
		{
			"byteLength":67312,
			"uri":"lampbaked.bin"
		}
	]
}
