{
	"asset":{
		"generator":"Khronos glTF Blender I/O v4.3.47",
		"version":"2.0"
	},
	"extensionsUsed":[
		"KHR_materials_unlit"
	],
	"scene":0,
	"scenes":[
		{
			"name":"Scene",
			"nodes":[
				0
			]
		}
	],
	"nodes":[
		{
			"mesh":0,
			"name":"Sphere",
			"scale":[
				10000,
				10000,
				10000
			]
		}
	],
	"materials":[
		{
			"doubleSided":true,
			"extensions":{
				"KHR_materials_unlit":{}
			},
			"name":"Material.001",
			"pbrMetallicRoughness":{
				"baseColorTexture":{
					"index":0
				},
				"metallicFactor":0,
				"roughnessFactor":0.9
			}
		}
	],
	"meshes":[
		{
			"name":"Sphere.001",
			"primitives":[
				{
					"attributes":{
						"POSITION":0,
						"NORMAL":1,
						"TEXCOORD_0":2
					},
					"indices":3,
					"material":0
				}
			]
		}
	],
	"textures":[
		{
			"sampler":0,
			"source":0
		}
	],
	"images":[
		{
			"mimeType":"image/jpeg",
			"name":"sky_unshaded",
			"uri":"textures/sky_unshaded.jpg"
		}
	],
	"accessors":[
		{
			"bufferView":0,
			"componentType":5126,
			"count":2048,
			"max":[
				0.9999992847442627,
				0.999954879283905,
				1.0014944076538086
			],
			"min":[
				-0.9999985694885254,
				-1.0000450611114502,
				-0.9985051155090332
			],
			"type":"VEC3"
		},
		{
			"bufferView":1,
			"componentType":5126,
			"count":2048,
			"type":"VEC3"
		},
		{
			"bufferView":2,
			"componentType":5126,
			"count":2048,
			"type":"VEC2"
		},
		{
			"bufferView":3,
			"componentType":5123,
			"count":2880,
			"type":"SCALAR"
		}
	],
	"bufferViews":[
		{
			"buffer":0,
			"byteLength":24576,
			"byteOffset":0,
			"target":34962
		},
		{
			"buffer":0,
			"byteLength":24576,
			"byteOffset":24576,
			"target":34962
		},
		{
			"buffer":0,
			"byteLength":16384,
			"byteOffset":49152,
			"target":34962
		},
		{
			"buffer":0,
			"byteLength":5760,
			"byteOffset":65536,
			"target":34963
		}
	],
	"samplers":[
		{
			"magFilter":9729,
			"minFilter":9987
		}
	],
	"buffers":[
		{
			"byteLength":71296,
			"uri":"skybox.bin"
		}
	]
}
