{
	"asset":{
		"generator":"Khronos glTF Blender I/O v4.3.47",
		"version":"2.0"
	},
	"scene":0,
	"scenes":[
		{
			"name":"Scene",
			"nodes":[
				0
			]
		}
	],
	"nodes":[
		{
			"mesh":0,
			"name":"rock_face_02"
		}
	],
	"materials":[
		{
			"doubleSided":true,
			"name":"rock_face_02.001",
			"pbrMetallicRoughness":{
				"baseColorTexture":{
					"index":0
				},
				"metallicFactor":0,
				"metallicRoughnessTexture":{
					"index":1
				},
				"roughnessFactor":0.5
			}
		}
	],
	"meshes":[
		{
			"name":"rock_face_section_2_proxy.001",
			"primitives":[
				{
					"attributes":{
						"POSITION":0,
						"NORMAL":1,
						"TEXCOORD_0":2
					},
					"indices":3,
					"material":0
				}
			]
		}
	],
	"textures":[
		{
			"sampler":0,
			"source":0
		},
		{
			"sampler":0,
			"source":1
		}
	],
	"images":[
		{
			"mimeType":"image/jpeg",
			"name":"rock_face_02_diff_4k",
			"uri":"textures/rock_face_02_diff_4k.jpg"
		},
		{
			"mimeType":"image/png",
			"name":"rock_face_02_arm_4k",
			"uri":"textures/rock_face_02_arm_4k.png"
		}
	],
	"accessors":[
		{
			"bufferView":0,
			"componentType":5126,
			"count":16397,
			"max":[
				0.45009371638298035,
				2.3323476314544678,
				0.938514769077301
			],
			"min":[
				-2.2611024379730225,
				-0.13961930572986603,
				-1.188185453414917
			],
			"type":"VEC3"
		},
		{
			"bufferView":1,
			"componentType":5126,
			"count":16397,
			"type":"VEC3"
		},
		{
			"bufferView":2,
			"componentType":5126,
			"count":16397,
			"type":"VEC2"
		},
		{
			"bufferView":3,
			"componentType":5123,
			"count":88698,
			"type":"SCALAR"
		}
	],
	"bufferViews":[
		{
			"buffer":0,
			"byteLength":196764,
			"byteOffset":0,
			"target":34962
		},
		{
			"buffer":0,
			"byteLength":196764,
			"byteOffset":196764,
			"target":34962
		},
		{
			"buffer":0,
			"byteLength":131176,
			"byteOffset":393528,
			"target":34962
		},
		{
			"buffer":0,
			"byteLength":177396,
			"byteOffset":524704,
			"target":34963
		}
	],
	"samplers":[
		{
			"magFilter":9729,
			"minFilter":9987
		}
	],
	"buffers":[
		{
			"byteLength":702100,
			"uri":"rock_face_02_4k.bin"
		}
	]
}
