{
	"asset":{
		"generator":"Khronos glTF Blender I/O v4.4.56",
		"version":"2.0"
	},
	"scene":0,
	"scenes":[
		{
			"name":"Scene",
			"nodes":[
				0
			]
		}
	],
	"nodes":[
		{
			"mesh":0,
			"name":"Plane"
		}
	],
	"materials":[
		{
			"doubleSided":true,
			"name":"Material.001",
			"pbrMetallicRoughness":{
				"baseColorTexture":{
					"index":0
				},
				"metallicFactor":0,
				"roughnessFactor":0.5
			}
		}
	],
	"meshes":[
		{
			"name":"Plane",
			"primitives":[
				{
					"attributes":{
						"POSITION":0,
						"NORMAL":1,
						"TEXCOORD_0":2
					},
					"indices":3,
					"material":0
				}
			]
		}
	],
	"textures":[
		{
			"sampler":0,
			"source":0
		}
	],
	"images":[
		{
			"mimeType":"image/png",
			"name":"ground_grass_gen_05",
			"uri":"ground_grass_gen_05.png"
		}
	],
	"accessors":[
		{
			"bufferView":0,
			"componentType":5126,
			"count":457,
			"max":[
				1.0073992013931274,
				0.290615051984787,
				1.024511456489563
			],
			"min":[
				-1.002762794494629,
				0,
				-1.0215312242507935
			],
			"type":"VEC3"
		},
		{
			"bufferView":1,
			"componentType":5126,
			"count":457,
			"type":"VEC3"
		},
		{
			"bufferView":2,
			"componentType":5126,
			"count":457,
			"type":"VEC2"
		},
		{
			"bufferView":3,
			"componentType":5123,
			"count":1536,
			"type":"SCALAR"
		}
	],
	"bufferViews":[
		{
			"buffer":0,
			"byteLength":5484,
			"byteOffset":0,
			"target":34962
		},
		{
			"buffer":0,
			"byteLength":5484,
			"byteOffset":5484,
			"target":34962
		},
		{
			"buffer":0,
			"byteLength":3656,
			"byteOffset":10968,
			"target":34962
		},
		{
			"buffer":0,
			"byteLength":3072,
			"byteOffset":14624,
			"target":34963
		}
	],
	"samplers":[
		{
			"magFilter":9729,
			"minFilter":9987
		}
	],
	"buffers":[
		{
			"byteLength":17696,
			"uri":"farlands.bin"
		}
	]
}
