{
	"asset":{
		"generator":"Khronos glTF Blender I/O v4.5.47",
		"version":"2.0"
	},
	"scene":0,
	"scenes":[
		{
			"name":"Scene",
			"nodes":[
				0
			]
		}
	],
	"nodes":[
		{
			"mesh":0,
			"name":"Plane"
		}
	],
	"materials":[
		{
			"doubleSided":true,
			"name":"Material.001",
			"normalTexture":{
				"index":0
			},
			"pbrMetallicRoughness":{
				"baseColorTexture":{
					"index":1
				},
				"metallicFactor":0,
				"metallicRoughnessTexture":{
					"index":2
				}
			}
		}
	],
	"meshes":[
		{
			"name":"Plane",
			"primitives":[
				{
					"attributes":{
						"POSITION":0,
						"NORMAL":1,
						"TEXCOORD_0":2
					},
					"indices":3,
					"material":0
				}
			]
		}
	],
	"textures":[
		{
			"sampler":0,
			"source":0
		},
		{
			"sampler":0,
			"source":1
		},
		{
			"sampler":0,
			"source":2
		}
	],
	"images":[
		{
			"mimeType":"image/jpeg",
			"name":"aerial_grass_rock_nor_gl_4k",
			"uri":"aerial_grass_rock_nor_gl_4k.jpg"
		},
		{
			"mimeType":"image/jpeg",
			"name":"aerial_grass_rock_diff_4k",
			"uri":"aerial_grass_rock_diff_4k.jpg"
		},
		{
			"mimeType":"image/png",
			"name":"aerial_grass_rock_rough_4k",
			"uri":"aerial_grass_rock_rough_4k.png"
		}
	],
	"accessors":[
		{
			"bufferView":0,
			"componentType":5126,
			"count":72576,
			"max":[
				1.0308235883712769,
				0.05000000074505806,
				1.078338623046875
			],
			"min":[
				-1.0834218263626099,
				-0.26223838329315186,
				-1.072266697883606
			],
			"type":"VEC3"
		},
		{
			"bufferView":1,
			"componentType":5126,
			"count":72576,
			"type":"VEC3"
		},
		{
			"bufferView":2,
			"componentType":5126,
			"count":72576,
			"type":"VEC2"
		},
		{
			"bufferView":3,
			"componentType":5125,
			"count":393216,
			"type":"SCALAR"
		}
	],
	"bufferViews":[
		{
			"buffer":0,
			"byteLength":870912,
			"byteOffset":0,
			"target":34962
		},
		{
			"buffer":0,
			"byteLength":870912,
			"byteOffset":870912,
			"target":34962
		},
		{
			"buffer":0,
			"byteLength":580608,
			"byteOffset":1741824,
			"target":34962
		},
		{
			"buffer":0,
			"byteLength":1572864,
			"byteOffset":2322432,
			"target":34963
		}
	],
	"samplers":[
		{
			"magFilter":9729,
			"minFilter":9987
		}
	],
	"buffers":[
		{
			"byteLength":3895296,
			"uri":"island.bin"
		}
	]
}
