{
	"asset":{
		"generator":"Khronos glTF Blender I/O v4.4.56",
		"version":"2.0"
	},
	"scene":0,
	"scenes":[
		{
			"name":"Scene",
			"nodes":[
				0
			]
		}
	],
	"nodes":[
		{
			"mesh":0,
			"name":"Plane"
		}
	],
	"materials":[
		{
			"doubleSided":true,
			"name":"Material.001",
			"pbrMetallicRoughness":{
				"baseColorTexture":{
					"index":0
				},
				"metallicFactor":0,
				"roughnessFactor":0.5
			}
		}
	],
	"meshes":[
		{
			"name":"Plane",
			"primitives":[
				{
					"attributes":{
						"POSITION":0,
						"NORMAL":1,
						"TEXCOORD_0":2
					},
					"indices":3,
					"material":0
				}
			]
		}
	],
	"textures":[
		{
			"sampler":0,
			"source":0
		}
	],
	"images":[
		{
			"mimeType":"image/png",
			"name":"checker2",
			"uri":"checker2.png"
		}
	],
	"accessors":[
		{
			"bufferView":0,
			"componentType":5126,
			"count":1041,
			"max":[
				20,
				44.49346160888672,
				35.90108108520508
			],
			"min":[
				-59.83818054199219,
				0,
				-55.001949310302734
			],
			"type":"VEC3"
		},
		{
			"bufferView":1,
			"componentType":5126,
			"count":1041,
			"type":"VEC3"
		},
		{
			"bufferView":2,
			"componentType":5126,
			"count":1041,
			"type":"VEC2"
		},
		{
			"bufferView":3,
			"componentType":5123,
			"count":2514,
			"type":"SCALAR"
		}
	],
	"bufferViews":[
		{
			"buffer":0,
			"byteLength":12492,
			"byteOffset":0,
			"target":34962
		},
		{
			"buffer":0,
			"byteLength":12492,
			"byteOffset":12492,
			"target":34962
		},
		{
			"buffer":0,
			"byteLength":8328,
			"byteOffset":24984,
			"target":34962
		},
		{
			"buffer":0,
			"byteLength":5028,
			"byteOffset":33312,
			"target":34963
		}
	],
	"samplers":[
		{
			"magFilter":9728,
			"minFilter":9984
		}
	],
	"buffers":[
		{
			"byteLength":38340,
			"uri":"bakedTest30samp.bin"
		}
	]
}
