{
	"asset":{
		"generator":"Khronos glTF Blender I/O v4.4.56",
		"version":"2.0"
	},
	"scene":0,
	"scenes":[
		{
			"name":"Scene",
			"nodes":[
				0
			]
		}
	],
	"nodes":[
		{
			"mesh":0,
			"name":"Plane",
			"scale":[
				3.9781441688537598,
				3.9781441688537598,
				3.9781441688537598
			]
		}
	],
	"materials":[
		{
			"doubleSided":true,
			"name":"Material",
			"pbrMetallicRoughness":{
				"baseColorTexture":{
					"index":0
				},
				"metallicFactor":0,
				"roughnessFactor":0.5
			}
		}
	],
	"meshes":[
		{
			"name":"Plane.002",
			"primitives":[
				{
					"attributes":{
						"POSITION":0,
						"NORMAL":1,
						"TEXCOORD_0":2,
						"TEXCOORD_1":3
					},
					"indices":4,
					"material":0
				}
			]
		}
	],
	"textures":[
		{
			"sampler":0,
			"source":0
		}
	],
	"images":[
		{
			"mimeType":"image/png",
			"name":"raytrace3de",
			"uri":"raytrace3de.png"
		}
	],
	"accessors":[
		{
			"bufferView":0,
			"componentType":5126,
			"count":677,
			"max":[
				1.0203526020050049,
				3.1249852180480957,
				2.9930992126464844
			],
			"min":[
				-4.59574556350708,
				-0.015422478318214417,
				-2.0680131912231445
			],
			"type":"VEC3"
		},
		{
			"bufferView":1,
			"componentType":5126,
			"count":677,
			"type":"VEC3"
		},
		{
			"bufferView":2,
			"componentType":5126,
			"count":677,
			"type":"VEC2"
		},
		{
			"bufferView":3,
			"componentType":5126,
			"count":677,
			"type":"VEC2"
		},
		{
			"bufferView":4,
			"componentType":5123,
			"count":3045,
			"type":"SCALAR"
		}
	],
	"bufferViews":[
		{
			"buffer":0,
			"byteLength":8124,
			"byteOffset":0,
			"target":34962
		},
		{
			"buffer":0,
			"byteLength":8124,
			"byteOffset":8124,
			"target":34962
		},
		{
			"buffer":0,
			"byteLength":5416,
			"byteOffset":16248,
			"target":34962
		},
		{
			"buffer":0,
			"byteLength":5416,
			"byteOffset":21664,
			"target":34962
		},
		{
			"buffer":0,
			"byteLength":6090,
			"byteOffset":27080,
			"target":34963
		}
	],
	"samplers":[
		{
			"magFilter":9729,
			"minFilter":9987
		}
	],
	"buffers":[
		{
			"byteLength":33172,
			"uri":"bakedTest30sampDE.bin"
		}
	]
}
