{
	"asset":{
		"generator":"Khronos glTF Blender I/O v4.4.56",
		"version":"2.0"
	},
	"scene":0,
	"scenes":[
		{
			"name":"Scene",
			"nodes":[
				0,
				1
			]
		}
	],
	"nodes":[
		{
			"mesh":0,
			"name":"Plane.002",
			"scale":[
				50,
				50,
				50
			],
			"translation":[
				0,
				-0.6468343734741211,
				0
			]
		},
		{
			"mesh":1,
			"name":"Plane.001",
			"scale":[
				50,
				50,
				50
			],
			"translation":[
				0,
				-0.6468343734741211,
				0
			]
		}
	],
	"materials":[
		{
			"doubleSided":true,
			"name":"Material.001",
			"pbrMetallicRoughness":{
				"baseColorTexture":{
					"index":0
				},
				"metallicFactor":0,
				"roughnessFactor":0.5
			}
		}
	],
	"meshes":[
		{
			"name":"Plane.002",
			"primitives":[
				{
					"attributes":{
						"POSITION":0,
						"NORMAL":1,
						"TEXCOORD_0":2,
						"TEXCOORD_1":3
					},
					"indices":4,
					"material":0
				}
			]
		},
		{
			"name":"Plane.001",
			"primitives":[
				{
					"attributes":{
						"POSITION":5,
						"NORMAL":6,
						"TEXCOORD_0":7,
						"TEXCOORD_1":8
					},
					"indices":9,
					"material":0
				}
			]
		}
	],
	"textures":[
		{
			"sampler":0,
			"source":0
		}
	],
	"images":[
		{
			"mimeType":"image/png",
			"name":"baked8k",
			"uri":"baked8k.png"
		}
	],
	"accessors":[
		{
			"bufferView":0,
			"componentType":5126,
			"count":1389,
			"max":[
				1.0288556814193726,
				0.24068045616149902,
				1.0175862312316895
			],
			"min":[
				-1.0597481727600098,
				0,
				-1.038277506828308
			],
			"type":"VEC3"
		},
		{
			"bufferView":1,
			"componentType":5126,
			"count":1389,
			"type":"VEC3"
		},
		{
			"bufferView":2,
			"componentType":5126,
			"count":1389,
			"type":"VEC2"
		},
		{
			"bufferView":3,
			"componentType":5126,
			"count":1389,
			"type":"VEC2"
		},
		{
			"bufferView":4,
			"componentType":5123,
			"count":6144,
			"type":"SCALAR"
		},
		{
			"bufferView":5,
			"componentType":5126,
			"count":1681,
			"max":[
				0.27440252900123596,
				0.24784550070762634,
				0.5488050580024719
			],
			"min":[
				-0.27440252900123596,
				-0.0207081139087677,
				-0.5488050580024719
			],
			"type":"VEC3"
		},
		{
			"bufferView":6,
			"componentType":5126,
			"count":1681,
			"type":"VEC3"
		},
		{
			"bufferView":7,
			"componentType":5126,
			"count":1681,
			"type":"VEC2"
		},
		{
			"bufferView":8,
			"componentType":5126,
			"count":1681,
			"type":"VEC2"
		},
		{
			"bufferView":9,
			"componentType":5123,
			"count":4566,
			"type":"SCALAR"
		}
	],
	"bufferViews":[
		{
			"buffer":0,
			"byteLength":16668,
			"byteOffset":0,
			"target":34962
		},
		{
			"buffer":0,
			"byteLength":16668,
			"byteOffset":16668,
			"target":34962
		},
		{
			"buffer":0,
			"byteLength":11112,
			"byteOffset":33336,
			"target":34962
		},
		{
			"buffer":0,
			"byteLength":11112,
			"byteOffset":44448,
			"target":34962
		},
		{
			"buffer":0,
			"byteLength":12288,
			"byteOffset":55560,
			"target":34963
		},
		{
			"buffer":0,
			"byteLength":20172,
			"byteOffset":67848,
			"target":34962
		},
		{
			"buffer":0,
			"byteLength":20172,
			"byteOffset":88020,
			"target":34962
		},
		{
			"buffer":0,
			"byteLength":13448,
			"byteOffset":108192,
			"target":34962
		},
		{
			"buffer":0,
			"byteLength":13448,
			"byteOffset":121640,
			"target":34962
		},
		{
			"buffer":0,
			"byteLength":9132,
			"byteOffset":135088,
			"target":34963
		}
	],
	"samplers":[
		{
			"magFilter":9729,
			"minFilter":9987
		}
	],
	"buffers":[
		{
			"byteLength":144220,
			"uri":"sample.bin"
		}
	]
}
