{
	"asset":{
		"generator":"Khronos glTF Blender I/O v4.4.56",
		"version":"2.0"
	},
	"scene":0,
	"scenes":[
		{
			"name":"Scene",
			"nodes":[
				0
			]
		}
	],
	"nodes":[
		{
			"mesh":0,
			"name":"Sphere.024",
			"scale":[
				0.42000001668930054,
				0.42000001668930054,
				0.42000001668930054
			],
			"translation":[
				0.8400000333786011,
				3.200000047683716,
				-0.8400000333786011
			]
		}
	],
	"materials":[
		{
			"doubleSided":true,
			"name":"Material.001",
			"pbrMetallicRoughness":{
				"baseColorTexture":{
					"index":0
				},
				"metallicFactor":0,
				"roughnessFactor":0.5
			}
		}
	],
	"meshes":[
		{
			"name":"Sphere.024",
			"primitives":[
				{
					"attributes":{
						"POSITION":0,
						"NORMAL":1,
						"TEXCOORD_0":2
					},
					"indices":3,
					"material":0
				}
			]
		}
	],
	"textures":[
		{
			"sampler":0,
			"source":0
		}
	],
	"images":[
		{
			"mimeType":"image/png",
			"name":"cloud",
			"uri":"tex/cloud.png"
		}
	],
	"accessors":[
		{
			"bufferView":0,
			"componentType":5126,
			"count":20687,
			"max":[
				9.904760360717773,
				4.115238189697266,
				13.904760360717773
			],
			"min":[
				-13.904760360717773,
				-7.619046688079834,
				-9.904760360717773
			],
			"type":"VEC3"
		},
		{
			"bufferView":1,
			"componentType":5126,
			"count":20687,
			"type":"VEC3"
		},
		{
			"bufferView":2,
			"componentType":5126,
			"count":20687,
			"type":"VEC2"
		},
		{
			"bufferView":3,
			"componentType":5123,
			"count":106566,
			"type":"SCALAR"
		}
	],
	"bufferViews":[
		{
			"buffer":0,
			"byteLength":248244,
			"byteOffset":0,
			"target":34962
		},
		{
			"buffer":0,
			"byteLength":248244,
			"byteOffset":248244,
			"target":34962
		},
		{
			"buffer":0,
			"byteLength":165496,
			"byteOffset":496488,
			"target":34962
		},
		{
			"buffer":0,
			"byteLength":213132,
			"byteOffset":661984,
			"target":34963
		}
	],
	"samplers":[
		{
			"magFilter":9728,
			"minFilter":9984
		}
	],
	"buffers":[
		{
			"byteLength":875116,
			"uri":"aoTest.bin"
		}
	]
}
