{
	"asset":{
		"generator":"Khronos glTF Blender I/O v4.3.47",
		"version":"2.0"
	},
	"scene":0,
	"scenes":[
		{
			"name":"Scene",
			"nodes":[
				0
			]
		}
	],
	"nodes":[
		{
			"mesh":0,
			"name":"Plane",
			"scale":[
				3,
				1,
				5
			]
		}
	],
	"materials":[
		{
			"doubleSided":true,
			"name":"Material.001",
			"pbrMetallicRoughness":{
				"baseColorTexture":{
					"index":0
				},
				"metallicFactor":0,
				"roughnessFactor":0.5
			}
		},
		{
			"doubleSided":true,
			"name":"Material",
			"pbrMetallicRoughness":{
				"baseColorTexture":{
					"index":1
				},
				"metallicFactor":0,
				"roughnessFactor":0.5
			}
		},
		{
			"doubleSided":true,
			"name":"Material.004",
			"pbrMetallicRoughness":{
				"baseColorTexture":{
					"index":2
				},
				"metallicFactor":0,
				"roughnessFactor":0.5
			}
		},
		{
			"doubleSided":true,
			"name":"Material.003",
			"pbrMetallicRoughness":{
				"baseColorTexture":{
					"index":3
				},
				"metallicFactor":0,
				"roughnessFactor":0.5
			}
		},
		{
			"doubleSided":true,
			"name":"Material.005",
			"pbrMetallicRoughness":{
				"baseColorTexture":{
					"index":4
				},
				"metallicFactor":0,
				"roughnessFactor":0.5
			}
		},
		{
			"doubleSided":true,
			"name":"Material.002",
			"pbrMetallicRoughness":{
				"baseColorTexture":{
					"index":5
				},
				"metallicFactor":0,
				"roughnessFactor":0.5
			}
		}
	],
	"meshes":[
		{
			"name":"Plane",
			"primitives":[
				{
					"attributes":{
						"POSITION":0,
						"NORMAL":1,
						"TEXCOORD_0":2
					},
					"indices":3,
					"material":0
				},
				{
					"attributes":{
						"POSITION":4,
						"NORMAL":5,
						"TEXCOORD_0":6
					},
					"indices":7,
					"material":1
				},
				{
					"attributes":{
						"POSITION":8,
						"NORMAL":9,
						"TEXCOORD_0":10
					},
					"indices":11,
					"material":2
				},
				{
					"attributes":{
						"POSITION":12,
						"NORMAL":13,
						"TEXCOORD_0":14
					},
					"indices":11,
					"material":3
				},
				{
					"attributes":{
						"POSITION":15,
						"NORMAL":16,
						"TEXCOORD_0":17
					},
					"indices":11,
					"material":4
				},
				{
					"attributes":{
						"POSITION":18,
						"NORMAL":19,
						"TEXCOORD_0":20
					},
					"indices":11,
					"material":5
				}
			]
		}
	],
	"textures":[
		{
			"sampler":0,
			"source":0
		},
		{
			"sampler":0,
			"source":1
		},
		{
			"sampler":0,
			"source":2
		},
		{
			"sampler":0,
			"source":2
		},
		{
			"sampler":0,
			"source":2
		},
		{
			"sampler":0,
			"source":2
		}
	],
	"images":[
		{
			"mimeType":"image/jpeg",
			"name":"rebar_diffuse",
			"uri":"texture/rebar_diffuse.jpg"
		},
		{
			"mimeType":"image/jpeg",
			"name":"cracked_diffuse",
			"uri":"texture/cracked_diffuse.jpg"
		},
		{
			"mimeType":"image/jpeg",
			"name":"rock_diffuse",
			"uri":"texture/rock_diffuse.jpg"
		}
	],
	"accessors":[
		{
			"bufferView":0,
			"componentType":5126,
			"count":44,
			"max":[
				1.3918325901031494,
				2.9758193492889404,
				1.7836652994155884
			],
			"min":[
				-1.7836652994155884,
				0,
				-1.3918325901031494
			],
			"type":"VEC3"
		},
		{
			"bufferView":1,
			"componentType":5126,
			"count":44,
			"type":"VEC3"
		},
		{
			"bufferView":2,
			"componentType":5126,
			"count":44,
			"type":"VEC2"
		},
		{
			"bufferView":3,
			"componentType":5123,
			"count":78,
			"type":"SCALAR"
		},
		{
			"bufferView":4,
			"componentType":5126,
			"count":4,
			"max":[
				1,
				0,
				1.0000001192092896
			],
			"min":[
				-1,
				0,
				-1.0000001192092896
			],
			"type":"VEC3"
		},
		{
			"bufferView":5,
			"componentType":5126,
			"count":4,
			"type":"VEC3"
		},
		{
			"bufferView":6,
			"componentType":5126,
			"count":4,
			"type":"VEC2"
		},
		{
			"bufferView":7,
			"componentType":5123,
			"count":6,
			"type":"SCALAR"
		},
		{
			"bufferView":8,
			"componentType":5126,
			"count":1727,
			"max":[
				0.9538014531135559,
				1.9694173336029053,
				0.9805976152420044
			],
			"min":[
				0.5059423446655273,
				-0.11368691921234131,
				0.7118821144104004
			],
			"type":"VEC3"
		},
		{
			"bufferView":9,
			"componentType":5126,
			"count":1727,
			"type":"VEC3"
		},
		{
			"bufferView":10,
			"componentType":5126,
			"count":1727,
			"type":"VEC2"
		},
		{
			"bufferView":11,
			"componentType":5123,
			"count":7350,
			"type":"SCALAR"
		},
		{
			"bufferView":12,
			"componentType":5126,
			"count":1727,
			"max":[
				-0.5451301336288452,
				1.9694173336029053,
				-0.7211306095123291
			],
			"min":[
				-0.9929893016815186,
				-0.11368691921234131,
				-0.9898461103439331
			],
			"type":"VEC3"
		},
		{
			"bufferView":13,
			"componentType":5126,
			"count":1727,
			"type":"VEC3"
		},
		{
			"bufferView":14,
			"componentType":5126,
			"count":1727,
			"type":"VEC2"
		},
		{
			"bufferView":15,
			"componentType":5126,
			"count":1727,
			"max":[
				0.9538014531135559,
				1.9694173336029053,
				0.13708120584487915
			],
			"min":[
				0.5059423446655273,
				-0.11368691921234131,
				-0.13163429498672485
			],
			"type":"VEC3"
		},
		{
			"bufferView":16,
			"componentType":5126,
			"count":1727,
			"type":"VEC3"
		},
		{
			"bufferView":17,
			"componentType":5126,
			"count":1727,
			"type":"VEC2"
		},
		{
			"bufferView":18,
			"componentType":5126,
			"count":1727,
			"max":[
				0.9538014531135559,
				1.9694173336029053,
				-0.7211306095123291
			],
			"min":[
				0.5059423446655273,
				-0.11368691921234131,
				-0.9898461103439331
			],
			"type":"VEC3"
		},
		{
			"bufferView":19,
			"componentType":5126,
			"count":1727,
			"type":"VEC3"
		},
		{
			"bufferView":20,
			"componentType":5126,
			"count":1727,
			"type":"VEC2"
		}
	],
	"bufferViews":[
		{
			"buffer":0,
			"byteLength":528,
			"byteOffset":0,
			"target":34962
		},
		{
			"buffer":0,
			"byteLength":528,
			"byteOffset":528,
			"target":34962
		},
		{
			"buffer":0,
			"byteLength":352,
			"byteOffset":1056,
			"target":34962
		},
		{
			"buffer":0,
			"byteLength":156,
			"byteOffset":1408,
			"target":34963
		},
		{
			"buffer":0,
			"byteLength":48,
			"byteOffset":1564,
			"target":34962
		},
		{
			"buffer":0,
			"byteLength":48,
			"byteOffset":1612,
			"target":34962
		},
		{
			"buffer":0,
			"byteLength":32,
			"byteOffset":1660,
			"target":34962
		},
		{
			"buffer":0,
			"byteLength":12,
			"byteOffset":1692,
			"target":34963
		},
		{
			"buffer":0,
			"byteLength":20724,
			"byteOffset":1704,
			"target":34962
		},
		{
			"buffer":0,
			"byteLength":20724,
			"byteOffset":22428,
			"target":34962
		},
		{
			"buffer":0,
			"byteLength":13816,
			"byteOffset":43152,
			"target":34962
		},
		{
			"buffer":0,
			"byteLength":14700,
			"byteOffset":56968,
			"target":34963
		},
		{
			"buffer":0,
			"byteLength":20724,
			"byteOffset":71668,
			"target":34962
		},
		{
			"buffer":0,
			"byteLength":20724,
			"byteOffset":92392,
			"target":34962
		},
		{
			"buffer":0,
			"byteLength":13816,
			"byteOffset":113116,
			"target":34962
		},
		{
			"buffer":0,
			"byteLength":20724,
			"byteOffset":126932,
			"target":34962
		},
		{
			"buffer":0,
			"byteLength":20724,
			"byteOffset":147656,
			"target":34962
		},
		{
			"buffer":0,
			"byteLength":13816,
			"byteOffset":168380,
			"target":34962
		},
		{
			"buffer":0,
			"byteLength":20724,
			"byteOffset":182196,
			"target":34962
		},
		{
			"buffer":0,
			"byteLength":20724,
			"byteOffset":202920,
			"target":34962
		},
		{
			"buffer":0,
			"byteLength":13816,
			"byteOffset":223644,
			"target":34962
		}
	],
	"samplers":[
		{
			"magFilter":9729,
			"minFilter":9987
		}
	],
	"buffers":[
		{
			"byteLength":237460,
			"uri":"test.bin"
		}
	]
}
