{
	"asset":{
		"generator":"Khronos glTF Blender I/O v4.5.47",
		"version":"2.0"
	},
	"extensionsUsed":[
		"KHR_materials_transmission",
		"KHR_materials_specular",
		"KHR_materials_ior"
	],
	"scene":0,
	"scenes":[
		{
			"name":"Scene",
			"nodes":[
				0,
				1,
				2,
				3,
				4,
				5,
				6,
				7
			]
		}
	],
	"nodes":[
		{
			"mesh":0,
			"name":"red",
			"rotation":[
				0.70710688829422,
				0,
				0,
				0.7071066498756409
			]
		},
		{
			"mesh":1,
			"name":"CornellBox-Glossy-Floor.001",
			"rotation":[
				0.70710688829422,
				0,
				0,
				0.7071066498756409
			]
		},
		{
			"mesh":2,
			"name":"CornellBox-Glossy-Floor.002",
			"rotation":[
				0.70710688829422,
				0,
				0,
				0.7071066498756409
			]
		},
		{
			"mesh":3,
			"name":"CornellBox-Glossy-Floor.003",
			"rotation":[
				0.70710688829422,
				0,
				0,
				0.7071066498756409
			]
		},
		{
			"mesh":4,
			"name":"white",
			"rotation":[
				0.70710688829422,
				0,
				0,
				0.7071066498756409
			]
		},
		{
			"mesh":5,
			"name":"white.002",
			"rotation":[
				0.70710688829422,
				0,
				0,
				0.7071066498756409
			]
		},
		{
			"mesh":6,
			"name":"white.001",
			"rotation":[
				0.70710688829422,
				0,
				0,
				0.7071066498756409
			]
		},
		{
			"mesh":7,
			"name":"green",
			"rotation":[
				0.70710688829422,
				0,
				0,
				0.7071066498756409
			]
		}
	],
	"materials":[
		{
			"doubleSided":true,
			"extensions":{
				"KHR_materials_specular":{
					"specularFactor":0
				}
			},
			"name":"right.001",
			"pbrMetallicRoughness":{
				"baseColorTexture":{
					"index":0
				},
				"metallicFactor":0,
				"roughnessFactor":0.8999999761581421
			}
		},
		{
			"doubleSided":true,
			"emissiveFactor":[
				1,
				1,
				1
			],
			"extensions":{
				"KHR_materials_transmission":{
					"transmissionFactor":1
				},
				"KHR_materials_specular":{
					"specularFactor":0
				}
			},
			"name":"light.001",
			"pbrMetallicRoughness":{
				"baseColorTexture":{
					"index":1
				},
				"metallicFactor":0,
				"roughnessFactor":0.8999999761581421
			}
		},
		{
			"doubleSided":true,
			"extensions":{
				"KHR_materials_transmission":{
					"transmissionFactor":1
				},
				"KHR_materials_specular":{
					"specularColorFactor":[
						1.7999998331069946,
						1.7999998331069946,
						1.7999998331069946
					]
				}
			},
			"name":"gray.001",
			"pbrMetallicRoughness":{
				"baseColorTexture":{
					"index":2
				},
				"metallicFactor":0,
				"roughnessFactor":0.800000011920929
			}
		},
		{
			"doubleSided":true,
			"extensions":{
				"KHR_materials_specular":{
					"specularFactor":0
				},
				"KHR_materials_ior":{
					"ior":1
				}
			},
			"name":"white.001",
			"pbrMetallicRoughness":{
				"baseColorTexture":{
					"index":3
				},
				"metallicFactor":0,
				"roughnessFactor":0.8999999761581421
			}
		},
		{
			"doubleSided":true,
			"extensions":{
				"KHR_materials_specular":{
					"specularFactor":0
				}
			},
			"name":"green.001",
			"pbrMetallicRoughness":{
				"baseColorTexture":{
					"index":4
				},
				"metallicFactor":0,
				"roughnessFactor":0.8999999761581421
			}
		}
	],
	"meshes":[
		{
			"name":"CornellBox-Glossy-Floor.008",
			"primitives":[
				{
					"attributes":{
						"POSITION":0,
						"NORMAL":1,
						"TEXCOORD_0":2,
						"COLOR_0":3,
						"COLOR_1":4
					},
					"indices":5,
					"material":0
				}
			]
		},
		{
			"name":"CornellBox-Glossy-Floor.009",
			"primitives":[
				{
					"attributes":{
						"POSITION":6,
						"NORMAL":7,
						"TEXCOORD_0":8,
						"COLOR_0":9,
						"COLOR_1":10,
						"COLOR_2":11,
						"COLOR_3":12
					},
					"indices":5,
					"material":1
				}
			]
		},
		{
			"name":"CornellBox-Glossy-Floor.010",
			"primitives":[
				{
					"attributes":{
						"POSITION":13,
						"NORMAL":14,
						"TEXCOORD_0":15,
						"COLOR_0":16,
						"COLOR_1":17
					},
					"indices":18,
					"material":2
				}
			]
		},
		{
			"name":"CornellBox-Glossy-Floor.011",
			"primitives":[
				{
					"attributes":{
						"POSITION":19,
						"NORMAL":20,
						"TEXCOORD_0":21,
						"COLOR_0":22,
						"COLOR_1":23,
						"COLOR_2":24,
						"COLOR_3":25
					},
					"indices":26,
					"material":2
				}
			]
		},
		{
			"name":"CornellBox-Glossy-Floor.012",
			"primitives":[
				{
					"attributes":{
						"POSITION":27,
						"NORMAL":28,
						"TEXCOORD_0":29,
						"COLOR_0":30,
						"COLOR_1":31
					},
					"indices":5,
					"material":3
				}
			]
		},
		{
			"name":"CornellBox-Glossy-Floor.013",
			"primitives":[
				{
					"attributes":{
						"POSITION":32,
						"NORMAL":33,
						"TEXCOORD_0":34,
						"COLOR_0":35,
						"COLOR_1":36
					},
					"indices":5,
					"material":3
				}
			]
		},
		{
			"name":"CornellBox-Glossy-Floor.014",
			"primitives":[
				{
					"attributes":{
						"POSITION":37,
						"NORMAL":38,
						"TEXCOORD_0":39,
						"COLOR_0":40,
						"COLOR_1":41
					},
					"indices":5,
					"material":3
				}
			]
		},
		{
			"name":"CornellBox-Glossy-Floor.015",
			"primitives":[
				{
					"attributes":{
						"POSITION":42,
						"NORMAL":43,
						"TEXCOORD_0":44,
						"COLOR_0":45,
						"COLOR_1":46,
						"COLOR_2":47,
						"COLOR_3":48
					},
					"indices":5,
					"material":4
				}
			]
		}
	],
	"textures":[
		{
			"sampler":0,
			"source":0
		},
		{
			"sampler":0,
			"source":1
		},
		{
			"sampler":0,
			"source":2
		},
		{
			"sampler":0,
			"source":2
		},
		{
			"sampler":0,
			"source":3
		}
	],
	"images":[
		{
			"mimeType":"image/png",
			"name":"red",
			"uri":"red.png"
		},
		{
			"mimeType":"image/png",
			"name":"tan",
			"uri":"tan.png"
		},
		{
			"mimeType":"image/png",
			"name":"Untitled-2",
			"uri":"Untitled-2.png"
		},
		{
			"mimeType":"image/png",
			"name":"Untitled-3",
			"uri":"Untitled-3.png"
		}
	],
	"accessors":[
		{
			"bufferView":0,
			"componentType":5126,
			"count":4,
			"max":[
				-0.9900000095367432,
				0.9900000095367432,
				0
			],
			"min":[
				-1.0199999809265137,
				-1.0399999618530273,
				-1.590000033378601
			],
			"type":"VEC3"
		},
		{
			"bufferView":1,
			"componentType":5126,
			"count":4,
			"type":"VEC3"
		},
		{
			"bufferView":2,
			"componentType":5126,
			"count":4,
			"type":"VEC2"
		},
		{
			"bufferView":3,
			"componentType":5121,
			"count":4,
			"normalized":true,
			"type":"VEC4"
		},
		{
			"bufferView":4,
			"componentType":5123,
			"count":4,
			"normalized":true,
			"type":"VEC4"
		},
		{
			"bufferView":5,
			"componentType":5123,
			"count":6,
			"type":"SCALAR"
		},
		{
			"bufferView":6,
			"componentType":5126,
			"count":4,
			"max":[
				0.23000000417232513,
				0.1599999964237213,
				-1.5800000429153442
			],
			"min":[
				-0.23999999463558197,
				-0.2199999988079071,
				-1.5800000429153442
			],
			"type":"VEC3"
		},
		{
			"bufferView":7,
			"componentType":5126,
			"count":4,
			"type":"VEC3"
		},
		{
			"bufferView":8,
			"componentType":5126,
			"count":4,
			"type":"VEC2"
		},
		{
			"bufferView":9,
			"componentType":5126,
			"count":4,
			"type":"VEC3"
		},
		{
			"bufferView":10,
			"componentType":5123,
			"count":4,
			"normalized":true,
			"type":"VEC4"
		},
		{
			"bufferView":11,
			"componentType":5123,
			"count":4,
			"normalized":true,
			"type":"VEC4"
		},
		{
			"bufferView":12,
			"componentType":5123,
			"count":4,
			"normalized":true,
			"type":"VEC4"
		},
		{
			"bufferView":13,
			"componentType":5126,
			"count":628,
			"max":[
				0.9692000150680542,
				-0.12530000507831573,
				-0.019300000742077827
			],
			"min":[
				0.10140000283718109,
				-0.9968000054359436,
				-0.8945000171661377
			],
			"type":"VEC3"
		},
		{
			"bufferView":14,
			"componentType":5126,
			"count":628,
			"type":"VEC3"
		},
		{
			"bufferView":15,
			"componentType":5126,
			"count":628,
			"type":"VEC2"
		},
		{
			"bufferView":16,
			"componentType":5121,
			"count":628,
			"normalized":true,
			"type":"VEC4"
		},
		{
			"bufferView":17,
			"componentType":5123,
			"count":628,
			"normalized":true,
			"type":"VEC4"
		},
		{
			"bufferView":18,
			"componentType":5123,
			"count":3264,
			"type":"SCALAR"
		},
		{
			"bufferView":19,
			"componentType":5126,
			"count":30,
			"max":[
				-0.10509999841451645,
				0.4749999940395355,
				9.999999747378752e-05
			],
			"min":[
				-0.7675999999046326,
				-0.1876000016927719,
				-0.47099998593330383
			],
			"type":"VEC3"
		},
		{
			"bufferView":20,
			"componentType":5126,
			"count":30,
			"type":"VEC3"
		},
		{
			"bufferView":21,
			"componentType":5126,
			"count":30,
			"type":"VEC2"
		},
		{
			"bufferView":22,
			"componentType":5121,
			"count":30,
			"normalized":true,
			"type":"VEC4"
		},
		{
			"bufferView":23,
			"componentType":5123,
			"count":30,
			"normalized":true,
			"type":"VEC4"
		},
		{
			"bufferView":24,
			"componentType":5123,
			"count":30,
			"normalized":true,
			"type":"VEC4"
		},
		{
			"bufferView":25,
			"componentType":5123,
			"count":30,
			"normalized":true,
			"type":"VEC4"
		},
		{
			"bufferView":26,
			"componentType":5123,
			"count":36,
			"type":"SCALAR"
		},
		{
			"bufferView":27,
			"componentType":5126,
			"count":4,
			"max":[
				1,
				0.9900000095367432,
				0
			],
			"min":[
				-1.0099999904632568,
				-1.0399999618530273,
				0
			],
			"type":"VEC3"
		},
		{
			"bufferView":28,
			"componentType":5126,
			"count":4,
			"type":"VEC3"
		},
		{
			"bufferView":29,
			"componentType":5126,
			"count":4,
			"type":"VEC2"
		},
		{
			"bufferView":30,
			"componentType":5121,
			"count":4,
			"normalized":true,
			"type":"VEC4"
		},
		{
			"bufferView":31,
			"componentType":5123,
			"count":4,
			"normalized":true,
			"type":"VEC4"
		},
		{
			"bufferView":32,
			"componentType":5126,
			"count":4,
			"max":[
				1,
				0.9900000095367432,
				-1.590000033378601
			],
			"min":[
				-1.0199999809265137,
				-1.0399999618530273,
				-1.590000033378601
			],
			"type":"VEC3"
		},
		{
			"bufferView":33,
			"componentType":5126,
			"count":4,
			"type":"VEC3"
		},
		{
			"bufferView":34,
			"componentType":5126,
			"count":4,
			"type":"VEC2"
		},
		{
			"bufferView":35,
			"componentType":5121,
			"count":4,
			"normalized":true,
			"type":"VEC4"
		},
		{
			"bufferView":36,
			"componentType":5123,
			"count":4,
			"normalized":true,
			"type":"VEC4"
		},
		{
			"bufferView":37,
			"componentType":5126,
			"count":4,
			"max":[
				1,
				-1.0399999618530273,
				0
			],
			"min":[
				-1.0199999809265137,
				-1.0399999618530273,
				-1.590000033378601
			],
			"type":"VEC3"
		},
		{
			"bufferView":38,
			"componentType":5126,
			"count":4,
			"type":"VEC3"
		},
		{
			"bufferView":39,
			"componentType":5126,
			"count":4,
			"type":"VEC2"
		},
		{
			"bufferView":40,
			"componentType":5121,
			"count":4,
			"normalized":true,
			"type":"VEC4"
		},
		{
			"bufferView":41,
			"componentType":5123,
			"count":4,
			"normalized":true,
			"type":"VEC4"
		},
		{
			"bufferView":42,
			"componentType":5126,
			"count":4,
			"max":[
				1,
				0.9900000095367432,
				0
			],
			"min":[
				1,
				-1.0399999618530273,
				-1.590000033378601
			],
			"type":"VEC3"
		},
		{
			"bufferView":43,
			"componentType":5126,
			"count":4,
			"type":"VEC3"
		},
		{
			"bufferView":44,
			"componentType":5126,
			"count":4,
			"type":"VEC2"
		},
		{
			"bufferView":45,
			"componentType":5121,
			"count":4,
			"normalized":true,
			"type":"VEC4"
		},
		{
			"bufferView":46,
			"componentType":5123,
			"count":4,
			"normalized":true,
			"type":"VEC4"
		},
		{
			"bufferView":47,
			"componentType":5123,
			"count":4,
			"normalized":true,
			"type":"VEC4"
		},
		{
			"bufferView":48,
			"componentType":5123,
			"count":4,
			"normalized":true,
			"type":"VEC4"
		}
	],
	"bufferViews":[
		{
			"buffer":0,
			"byteLength":48,
			"byteOffset":0,
			"target":34962
		},
		{
			"buffer":0,
			"byteLength":48,
			"byteOffset":48,
			"target":34962
		},
		{
			"buffer":0,
			"byteLength":32,
			"byteOffset":96,
			"target":34962
		},
		{
			"buffer":0,
			"byteLength":16,
			"byteOffset":128,
			"target":34962
		},
		{
			"buffer":0,
			"byteLength":32,
			"byteOffset":144,
			"target":34962
		},
		{
			"buffer":0,
			"byteLength":12,
			"byteOffset":176,
			"target":34963
		},
		{
			"buffer":0,
			"byteLength":48,
			"byteOffset":188,
			"target":34962
		},
		{
			"buffer":0,
			"byteLength":48,
			"byteOffset":236,
			"target":34962
		},
		{
			"buffer":0,
			"byteLength":32,
			"byteOffset":284,
			"target":34962
		},
		{
			"buffer":0,
			"byteLength":48,
			"byteOffset":316,
			"target":34962
		},
		{
			"buffer":0,
			"byteLength":32,
			"byteOffset":364,
			"target":34962
		},
		{
			"buffer":0,
			"byteLength":32,
			"byteOffset":396,
			"target":34962
		},
		{
			"buffer":0,
			"byteLength":32,
			"byteOffset":428,
			"target":34962
		},
		{
			"buffer":0,
			"byteLength":7536,
			"byteOffset":460,
			"target":34962
		},
		{
			"buffer":0,
			"byteLength":7536,
			"byteOffset":7996,
			"target":34962
		},
		{
			"buffer":0,
			"byteLength":5024,
			"byteOffset":15532,
			"target":34962
		},
		{
			"buffer":0,
			"byteLength":2512,
			"byteOffset":20556,
			"target":34962
		},
		{
			"buffer":0,
			"byteLength":5024,
			"byteOffset":23068,
			"target":34962
		},
		{
			"buffer":0,
			"byteLength":6528,
			"byteOffset":28092,
			"target":34963
		},
		{
			"buffer":0,
			"byteLength":360,
			"byteOffset":34620,
			"target":34962
		},
		{
			"buffer":0,
			"byteLength":360,
			"byteOffset":34980,
			"target":34962
		},
		{
			"buffer":0,
			"byteLength":240,
			"byteOffset":35340,
			"target":34962
		},
		{
			"buffer":0,
			"byteLength":120,
			"byteOffset":35580,
			"target":34962
		},
		{
			"buffer":0,
			"byteLength":240,
			"byteOffset":35700,
			"target":34962
		},
		{
			"buffer":0,
			"byteLength":240,
			"byteOffset":35940,
			"target":34962
		},
		{
			"buffer":0,
			"byteLength":240,
			"byteOffset":36180,
			"target":34962
		},
		{
			"buffer":0,
			"byteLength":72,
			"byteOffset":36420,
			"target":34963
		},
		{
			"buffer":0,
			"byteLength":48,
			"byteOffset":36492,
			"target":34962
		},
		{
			"buffer":0,
			"byteLength":48,
			"byteOffset":36540,
			"target":34962
		},
		{
			"buffer":0,
			"byteLength":32,
			"byteOffset":36588,
			"target":34962
		},
		{
			"buffer":0,
			"byteLength":16,
			"byteOffset":36620,
			"target":34962
		},
		{
			"buffer":0,
			"byteLength":32,
			"byteOffset":36636,
			"target":34962
		},
		{
			"buffer":0,
			"byteLength":48,
			"byteOffset":36668,
			"target":34962
		},
		{
			"buffer":0,
			"byteLength":48,
			"byteOffset":36716,
			"target":34962
		},
		{
			"buffer":0,
			"byteLength":32,
			"byteOffset":36764,
			"target":34962
		},
		{
			"buffer":0,
			"byteLength":16,
			"byteOffset":36796,
			"target":34962
		},
		{
			"buffer":0,
			"byteLength":32,
			"byteOffset":36812,
			"target":34962
		},
		{
			"buffer":0,
			"byteLength":48,
			"byteOffset":36844,
			"target":34962
		},
		{
			"buffer":0,
			"byteLength":48,
			"byteOffset":36892,
			"target":34962
		},
		{
			"buffer":0,
			"byteLength":32,
			"byteOffset":36940,
			"target":34962
		},
		{
			"buffer":0,
			"byteLength":16,
			"byteOffset":36972,
			"target":34962
		},
		{
			"buffer":0,
			"byteLength":32,
			"byteOffset":36988,
			"target":34962
		},
		{
			"buffer":0,
			"byteLength":48,
			"byteOffset":37020,
			"target":34962
		},
		{
			"buffer":0,
			"byteLength":48,
			"byteOffset":37068,
			"target":34962
		},
		{
			"buffer":0,
			"byteLength":32,
			"byteOffset":37116,
			"target":34962
		},
		{
			"buffer":0,
			"byteLength":16,
			"byteOffset":37148,
			"target":34962
		},
		{
			"buffer":0,
			"byteLength":32,
			"byteOffset":37164,
			"target":34962
		},
		{
			"buffer":0,
			"byteLength":32,
			"byteOffset":37196,
			"target":34962
		},
		{
			"buffer":0,
			"byteLength":32,
			"byteOffset":37228,
			"target":34962
		}
	],
	"samplers":[
		{
			"magFilter":9729,
			"minFilter":9987
		}
	],
	"buffers":[
		{
			"byteLength":37260,
			"uri":"cornel.bin"
		}
	]
}
