{
	"asset":{
		"generator":"Khronos glTF Blender I/O v4.5.47",
		"version":"2.0"
	},
	"scene":0,
	"scenes":[
		{
			"name":"Scene",
			"nodes":[
				0
			]
		}
	],
	"nodes":[
		{
			"mesh":0,
			"name":"bakedLM"
		}
	],
	"materials":[
		{
			"doubleSided":true,
			"name":"Material.003",
			"normalTexture":{
				"index":0
			},
			"pbrMetallicRoughness":{
				"baseColorTexture":{
					"index":1
				},
				"metallicFactor":0,
				"metallicRoughnessTexture":{
					"index":2
				}
			}
		}
	],
	"meshes":[
		{
			"name":"Cube.003",
			"primitives":[
				{
					"attributes":{
						"POSITION":0,
						"NORMAL":1,
						"TEXCOORD_0":2,
						"TEXCOORD_1":3
					},
					"indices":4,
					"material":0
				}
			]
		}
	],
	"textures":[
		{
			"sampler":0,
			"source":0
		},
		{
			"sampler":0,
			"source":1
		},
		{
			"sampler":0,
			"source":2
		}
	],
	"images":[
		{
			"mimeType":"image/png",
			"name":"nom",
			"uri":"nom.png"
		},
		{
			"mimeType":"image/png",
			"name":"nom",
			"uri":"nom-1.png"
		},
		{
			"mimeType":"image/png",
			"name":"spec",
			"uri":"spec.png"
		}
	],
	"accessors":[
		{
			"bufferView":0,
			"componentType":5126,
			"count":1065,
			"max":[
				1,
				1,
				2
			],
			"min":[
				-1,
				5.960464477539063e-08,
				-2
			],
			"type":"VEC3"
		},
		{
			"bufferView":1,
			"componentType":5126,
			"count":1065,
			"type":"VEC3"
		},
		{
			"bufferView":2,
			"componentType":5126,
			"count":1065,
			"type":"VEC2"
		},
		{
			"bufferView":3,
			"componentType":5126,
			"count":1065,
			"type":"VEC2"
		},
		{
			"bufferView":4,
			"componentType":5123,
			"count":5214,
			"type":"SCALAR"
		}
	],
	"bufferViews":[
		{
			"buffer":0,
			"byteLength":12780,
			"byteOffset":0,
			"target":34962
		},
		{
			"buffer":0,
			"byteLength":12780,
			"byteOffset":12780,
			"target":34962
		},
		{
			"buffer":0,
			"byteLength":8520,
			"byteOffset":25560,
			"target":34962
		},
		{
			"buffer":0,
			"byteLength":8520,
			"byteOffset":34080,
			"target":34962
		},
		{
			"buffer":0,
			"byteLength":10428,
			"byteOffset":42600,
			"target":34963
		}
	],
	"samplers":[
		{
			"magFilter":9729,
			"minFilter":9987
		}
	],
	"buffers":[
		{
			"byteLength":53028,
			"uri":"table.bin"
		}
	]
}
