{
	"asset":{
		"generator":"Khronos glTF Blender I/O v4.4.56",
		"version":"2.0"
	},
	"scene":0,
	"scenes":[
		{
			"name":"Scene",
			"nodes":[
				0,
				1
			]
		}
	],
	"nodes":[
		{
			"name":"Empty",
			"rotation":[
				0.5,
				0.5,
				-0.5,
				0.5
			]
		},
		{
			"mesh":0,
			"name":"leipoldtia_schultzei_Large_LOD2",
			"scale":[
				0.4548720121383667,
				0.454872190952301,
				0.4548720121383667
			],
			"translation":[
				0.00010836124420166016,
				0,
				0
			]
		}
	],
	"materials":[
		{
			"alphaMode":"BLEND",
			"doubleSided":true,
			"name":"leipoldtia_schultzei",
			"normalTexture":{
				"index":0
			},
			"pbrMetallicRoughness":{
				"baseColorTexture":{
					"index":1
				},
				"metallicFactor":0,
				"metallicRoughnessTexture":{
					"index":2
				}
			}
		}
	],
	"meshes":[
		{
			"name":"Plane.064",
			"primitives":[
				{
					"attributes":{
						"POSITION":0,
						"NORMAL":1,
						"TEXCOORD_0":2
					},
					"indices":3,
					"material":0
				}
			]
		}
	],
	"textures":[
		{
			"sampler":0,
			"source":0
		},
		{
			"sampler":0,
			"source":1
		},
		{
			"sampler":0,
			"source":2
		}
	],
	"images":[
		{
			"mimeType":"image/png",
			"name":"leipoldtia_schultzei_nor_gl",
			"uri":"leipoldtia_schultzei_nor_gl.png"
		},
		{
			"mimeType":"image/png",
			"name":"leipoldtia_schultzei_diff-leipoldtia_schultzei_mask",
			"uri":"leipoldtia_schultzei_diff-leipoldtia_schultzei_mask.png"
		},
		{
			"mimeType":"image/png",
			"name":"leipoldtia_schultzei_rough",
			"uri":"leipoldtia_schultzei_rough.png"
		}
	],
	"accessors":[
		{
			"bufferView":0,
			"componentType":5126,
			"count":33197,
			"max":[
				0.7909736633300781,
				0.6149930953979492,
				0.7413418889045715
			],
			"min":[
				-1.2506884336471558,
				-0.03939099609851837,
				-1.046207308769226
			],
			"type":"VEC3"
		},
		{
			"bufferView":1,
			"componentType":5126,
			"count":33197,
			"type":"VEC3"
		},
		{
			"bufferView":2,
			"componentType":5126,
			"count":33197,
			"type":"VEC2"
		},
		{
			"bufferView":3,
			"componentType":5123,
			"count":187260,
			"type":"SCALAR"
		}
	],
	"bufferViews":[
		{
			"buffer":0,
			"byteLength":398364,
			"byteOffset":0,
			"target":34962
		},
		{
			"buffer":0,
			"byteLength":398364,
			"byteOffset":398364,
			"target":34962
		},
		{
			"buffer":0,
			"byteLength":265576,
			"byteOffset":796728,
			"target":34962
		},
		{
			"buffer":0,
			"byteLength":374520,
			"byteOffset":1062304,
			"target":34963
		}
	],
	"samplers":[
		{
			"magFilter":9729,
			"minFilter":9987
		}
	],
	"buffers":[
		{
			"byteLength":1436824,
			"uri":"plant3.bin"
		}
	]
}
