{
	"asset":{
		"generator":"Khronos glTF Blender I/O v4.4.56",
		"version":"2.0"
	},
	"scene":0,
	"scenes":[
		{
			"name":"Scene",
			"nodes":[
				0
			]
		}
	],
	"nodes":[
		{
			"mesh":0,
			"name":"Cube"
		}
	],
	"materials":[
		{
			"doubleSided":true,
			"name":"Material.006",
			"pbrMetallicRoughness":{
				"baseColorTexture":{
					"index":0
				},
				"metallicFactor":0,
				"roughnessFactor":0.5
			}
		}
	],
	"meshes":[
		{
			"name":"Cube",
			"primitives":[
				{
					"attributes":{
						"POSITION":0,
						"NORMAL":1,
						"TEXCOORD_0":2
					},
					"indices":3,
					"material":0
				}
			]
		}
	],
	"textures":[
		{
			"sampler":0,
			"source":0
		}
	],
	"images":[
		{
			"mimeType":"image/png",
			"name":"castle",
			"uri":"castle.png"
		}
	],
	"accessors":[
		{
			"bufferView":0,
			"componentType":5126,
			"count":187,
			"max":[
				27.23270034790039,
				26,
				17.197446823120117
			],
			"min":[
				-27.23270034790039,
				-14.991090774536133,
				-17.197446823120117
			],
			"type":"VEC3"
		},
		{
			"bufferView":1,
			"componentType":5126,
			"count":187,
			"type":"VEC3"
		},
		{
			"bufferView":2,
			"componentType":5126,
			"count":187,
			"type":"VEC2"
		},
		{
			"bufferView":3,
			"componentType":5123,
			"count":342,
			"type":"SCALAR"
		}
	],
	"bufferViews":[
		{
			"buffer":0,
			"byteLength":2244,
			"byteOffset":0,
			"target":34962
		},
		{
			"buffer":0,
			"byteLength":2244,
			"byteOffset":2244,
			"target":34962
		},
		{
			"buffer":0,
			"byteLength":1496,
			"byteOffset":4488,
			"target":34962
		},
		{
			"buffer":0,
			"byteLength":684,
			"byteOffset":5984,
			"target":34963
		}
	],
	"samplers":[
		{
			"magFilter":9729,
			"minFilter":9987
		}
	],
	"buffers":[
		{
			"byteLength":6668,
			"uri":"stonemarket2.bin"
		}
	]
}
