{
	"asset":{
		"generator":"Khronos glTF Blender I/O v5.0.21",
		"version":"2.0"
	},
	"scene":0,
	"scenes":[
		{
			"name":"Scene",
			"nodes":[
				0
			]
		}
	],
	"nodes":[
		{
			"mesh":0,
			"name":"Cylinder"
		}
	],
	"materials":[
		{
			"alphaMode":"BLEND",
			"doubleSided":true,
			"name":"Material.001",
			"normalTexture":{
				"index":0
			},
			"pbrMetallicRoughness":{
				"baseColorFactor":[
					0.800000011920929,
					0.800000011920929,
					0.800000011920929,
					0.4000000059604645
				],
				"roughnessFactor":0
			}
		}
	],
	"meshes":[
		{
			"name":"Cylinder",
			"primitives":[
				{
					"attributes":{
						"POSITION":0,
						"NORMAL":1,
						"TEXCOORD_0":2,
						"TEXCOORD_1":3
					},
					"indices":4,
					"material":0
				}
			]
		}
	],
	"textures":[
		{
			"sampler":0,
			"source":0
		}
	],
	"images":[
		{
			"mimeType":"image/png",
			"name":"cupnormal",
			"uri":"cupnormal.png"
		}
	],
	"accessors":[
		{
			"bufferView":0,
			"componentType":5126,
			"count":557,
			"max":[
				1,
				3,
				1
			],
			"min":[
				-1,
				-1,
				-1
			],
			"type":"VEC3"
		},
		{
			"bufferView":1,
			"componentType":5126,
			"count":557,
			"type":"VEC3"
		},
		{
			"bufferView":2,
			"componentType":5126,
			"count":557,
			"type":"VEC2"
		},
		{
			"bufferView":3,
			"componentType":5126,
			"count":557,
			"type":"VEC2"
		},
		{
			"bufferView":4,
			"componentType":5123,
			"count":1908,
			"type":"SCALAR"
		}
	],
	"bufferViews":[
		{
			"buffer":0,
			"byteLength":6684,
			"byteOffset":0,
			"target":34962
		},
		{
			"buffer":0,
			"byteLength":6684,
			"byteOffset":6684,
			"target":34962
		},
		{
			"buffer":0,
			"byteLength":4456,
			"byteOffset":13368,
			"target":34962
		},
		{
			"buffer":0,
			"byteLength":4456,
			"byteOffset":17824,
			"target":34962
		},
		{
			"buffer":0,
			"byteLength":3816,
			"byteOffset":22280,
			"target":34963
		}
	],
	"samplers":[
		{
			"magFilter":9729,
			"minFilter":9987
		}
	],
	"buffers":[
		{
			"byteLength":26096,
			"uri":"glass.bin"
		}
	]
}
